<mxfile host="Electron" agent="Mozilla/5.0 (Windows NT 10.0; Win64; x64) AppleWebKit/537.36 (KHTML, like Gecko) draw.io/24.7.8 Chrome/128.0.6613.36 Electron/32.0.1 Safari/537.36" version="24.7.8">
  <diagram name="Page-1" id="B8acHFmCraTAQUAFy0U6">
    <mxGraphModel dx="6144" dy="2473" grid="0" gridSize="10" guides="1" tooltips="1" connect="1" arrows="1" fold="1" page="1" pageScale="1" pageWidth="1920" pageHeight="1080" math="0" shadow="0">
      <root>
        <mxCell id="0" />
        <mxCell id="1" parent="0" />
        <mxCell id="nyVP8lf8nU9UiDjdo4iV-2" value="&lt;span style=&quot;font-weight: 400; text-wrap: wrap;&quot;&gt;EntityType&lt;/span&gt;" style="shape=table;startSize=30;container=1;collapsible=1;childLayout=tableLayout;fixedRows=1;rowLines=0;fontStyle=1;align=center;resizeLast=1;html=1;rounded=1;" vertex="1" parent="1">
          <mxGeometry x="-2803" y="-759" width="253" height="90" as="geometry" />
        </mxCell>
        <mxCell id="nyVP8lf8nU9UiDjdo4iV-3" value="" style="shape=tableRow;horizontal=0;startSize=0;swimlaneHead=0;swimlaneBody=0;fillColor=none;collapsible=0;dropTarget=0;points=[[0,0.5],[1,0.5]];portConstraint=eastwest;top=0;left=0;right=0;bottom=1;" vertex="1" parent="nyVP8lf8nU9UiDjdo4iV-2">
          <mxGeometry y="30" width="253" height="30" as="geometry" />
        </mxCell>
        <mxCell id="nyVP8lf8nU9UiDjdo4iV-4" value="PK" style="shape=partialRectangle;connectable=0;fillColor=none;top=0;left=0;bottom=0;right=0;fontStyle=1;overflow=hidden;whiteSpace=wrap;html=1;" vertex="1" parent="nyVP8lf8nU9UiDjdo4iV-3">
          <mxGeometry width="30" height="30" as="geometry">
            <mxRectangle width="30" height="30" as="alternateBounds" />
          </mxGeometry>
        </mxCell>
        <mxCell id="nyVP8lf8nU9UiDjdo4iV-5" value="EntityTypeId" style="shape=partialRectangle;connectable=0;fillColor=none;top=0;left=0;bottom=0;right=0;align=left;spacingLeft=6;fontStyle=5;overflow=hidden;whiteSpace=wrap;html=1;" vertex="1" parent="nyVP8lf8nU9UiDjdo4iV-3">
          <mxGeometry x="30" width="150" height="30" as="geometry">
            <mxRectangle width="150" height="30" as="alternateBounds" />
          </mxGeometry>
        </mxCell>
        <mxCell id="nyVP8lf8nU9UiDjdo4iV-28" value="INT" style="shape=partialRectangle;connectable=0;fillColor=none;top=0;left=0;bottom=0;right=0;align=left;spacingLeft=6;fontStyle=5;overflow=hidden;whiteSpace=wrap;html=1;" vertex="1" parent="nyVP8lf8nU9UiDjdo4iV-3">
          <mxGeometry x="180" width="73" height="30" as="geometry">
            <mxRectangle width="73" height="30" as="alternateBounds" />
          </mxGeometry>
        </mxCell>
        <mxCell id="nyVP8lf8nU9UiDjdo4iV-6" value="" style="shape=tableRow;horizontal=0;startSize=0;swimlaneHead=0;swimlaneBody=0;fillColor=none;collapsible=0;dropTarget=0;points=[[0,0.5],[1,0.5]];portConstraint=eastwest;top=0;left=0;right=0;bottom=0;" vertex="1" parent="nyVP8lf8nU9UiDjdo4iV-2">
          <mxGeometry y="60" width="253" height="30" as="geometry" />
        </mxCell>
        <mxCell id="nyVP8lf8nU9UiDjdo4iV-7" value="" style="shape=partialRectangle;connectable=0;fillColor=none;top=0;left=0;bottom=0;right=0;editable=1;overflow=hidden;whiteSpace=wrap;html=1;" vertex="1" parent="nyVP8lf8nU9UiDjdo4iV-6">
          <mxGeometry width="30" height="30" as="geometry">
            <mxRectangle width="30" height="30" as="alternateBounds" />
          </mxGeometry>
        </mxCell>
        <mxCell id="nyVP8lf8nU9UiDjdo4iV-8" value="Name" style="shape=partialRectangle;connectable=0;fillColor=none;top=0;left=0;bottom=0;right=0;align=left;spacingLeft=6;overflow=hidden;whiteSpace=wrap;html=1;" vertex="1" parent="nyVP8lf8nU9UiDjdo4iV-6">
          <mxGeometry x="30" width="150" height="30" as="geometry">
            <mxRectangle width="150" height="30" as="alternateBounds" />
          </mxGeometry>
        </mxCell>
        <mxCell id="nyVP8lf8nU9UiDjdo4iV-29" value="VARCHAR" style="shape=partialRectangle;connectable=0;fillColor=none;top=0;left=0;bottom=0;right=0;align=left;spacingLeft=6;overflow=hidden;whiteSpace=wrap;html=1;" vertex="1" parent="nyVP8lf8nU9UiDjdo4iV-6">
          <mxGeometry x="180" width="73" height="30" as="geometry">
            <mxRectangle width="73" height="30" as="alternateBounds" />
          </mxGeometry>
        </mxCell>
        <mxCell id="nyVP8lf8nU9UiDjdo4iV-32" value="&lt;span style=&quot;font-weight: 400; text-wrap: wrap;&quot;&gt;Language&lt;/span&gt;" style="shape=table;startSize=30;container=1;collapsible=1;childLayout=tableLayout;fixedRows=1;rowLines=0;fontStyle=1;align=center;resizeLast=1;html=1;rounded=1;" vertex="1" parent="1">
          <mxGeometry x="-3840" y="364" width="253" height="90" as="geometry" />
        </mxCell>
        <mxCell id="nyVP8lf8nU9UiDjdo4iV-33" value="" style="shape=tableRow;horizontal=0;startSize=0;swimlaneHead=0;swimlaneBody=0;fillColor=none;collapsible=0;dropTarget=0;points=[[0,0.5],[1,0.5]];portConstraint=eastwest;top=0;left=0;right=0;bottom=1;" vertex="1" parent="nyVP8lf8nU9UiDjdo4iV-32">
          <mxGeometry y="30" width="253" height="30" as="geometry" />
        </mxCell>
        <mxCell id="nyVP8lf8nU9UiDjdo4iV-34" value="PK" style="shape=partialRectangle;connectable=0;fillColor=none;top=0;left=0;bottom=0;right=0;fontStyle=1;overflow=hidden;whiteSpace=wrap;html=1;" vertex="1" parent="nyVP8lf8nU9UiDjdo4iV-33">
          <mxGeometry width="30" height="30" as="geometry">
            <mxRectangle width="30" height="30" as="alternateBounds" />
          </mxGeometry>
        </mxCell>
        <mxCell id="nyVP8lf8nU9UiDjdo4iV-35" value="LanguageId" style="shape=partialRectangle;connectable=0;fillColor=none;top=0;left=0;bottom=0;right=0;align=left;spacingLeft=6;fontStyle=5;overflow=hidden;whiteSpace=wrap;html=1;" vertex="1" parent="nyVP8lf8nU9UiDjdo4iV-33">
          <mxGeometry x="30" width="150" height="30" as="geometry">
            <mxRectangle width="150" height="30" as="alternateBounds" />
          </mxGeometry>
        </mxCell>
        <mxCell id="nyVP8lf8nU9UiDjdo4iV-36" value="INT" style="shape=partialRectangle;connectable=0;fillColor=none;top=0;left=0;bottom=0;right=0;align=left;spacingLeft=6;fontStyle=5;overflow=hidden;whiteSpace=wrap;html=1;" vertex="1" parent="nyVP8lf8nU9UiDjdo4iV-33">
          <mxGeometry x="180" width="73" height="30" as="geometry">
            <mxRectangle width="73" height="30" as="alternateBounds" />
          </mxGeometry>
        </mxCell>
        <mxCell id="nyVP8lf8nU9UiDjdo4iV-37" value="" style="shape=tableRow;horizontal=0;startSize=0;swimlaneHead=0;swimlaneBody=0;fillColor=none;collapsible=0;dropTarget=0;points=[[0,0.5],[1,0.5]];portConstraint=eastwest;top=0;left=0;right=0;bottom=0;" vertex="1" parent="nyVP8lf8nU9UiDjdo4iV-32">
          <mxGeometry y="60" width="253" height="30" as="geometry" />
        </mxCell>
        <mxCell id="nyVP8lf8nU9UiDjdo4iV-38" value="" style="shape=partialRectangle;connectable=0;fillColor=none;top=0;left=0;bottom=0;right=0;editable=1;overflow=hidden;whiteSpace=wrap;html=1;" vertex="1" parent="nyVP8lf8nU9UiDjdo4iV-37">
          <mxGeometry width="30" height="30" as="geometry">
            <mxRectangle width="30" height="30" as="alternateBounds" />
          </mxGeometry>
        </mxCell>
        <mxCell id="nyVP8lf8nU9UiDjdo4iV-39" value="Name" style="shape=partialRectangle;connectable=0;fillColor=none;top=0;left=0;bottom=0;right=0;align=left;spacingLeft=6;overflow=hidden;whiteSpace=wrap;html=1;" vertex="1" parent="nyVP8lf8nU9UiDjdo4iV-37">
          <mxGeometry x="30" width="150" height="30" as="geometry">
            <mxRectangle width="150" height="30" as="alternateBounds" />
          </mxGeometry>
        </mxCell>
        <mxCell id="nyVP8lf8nU9UiDjdo4iV-40" value="VARCHAR" style="shape=partialRectangle;connectable=0;fillColor=none;top=0;left=0;bottom=0;right=0;align=left;spacingLeft=6;overflow=hidden;whiteSpace=wrap;html=1;" vertex="1" parent="nyVP8lf8nU9UiDjdo4iV-37">
          <mxGeometry x="180" width="73" height="30" as="geometry">
            <mxRectangle width="73" height="30" as="alternateBounds" />
          </mxGeometry>
        </mxCell>
        <mxCell id="nyVP8lf8nU9UiDjdo4iV-41" value="&lt;span style=&quot;font-weight: 400; text-wrap: wrap;&quot;&gt;Personality&lt;/span&gt;" style="shape=table;startSize=30;container=1;collapsible=1;childLayout=tableLayout;fixedRows=1;rowLines=0;fontStyle=1;align=center;resizeLast=1;html=1;rounded=1;" vertex="1" parent="1">
          <mxGeometry x="-2803" y="-497" width="253" height="90" as="geometry" />
        </mxCell>
        <mxCell id="nyVP8lf8nU9UiDjdo4iV-42" value="" style="shape=tableRow;horizontal=0;startSize=0;swimlaneHead=0;swimlaneBody=0;fillColor=none;collapsible=0;dropTarget=0;points=[[0,0.5],[1,0.5]];portConstraint=eastwest;top=0;left=0;right=0;bottom=1;" vertex="1" parent="nyVP8lf8nU9UiDjdo4iV-41">
          <mxGeometry y="30" width="253" height="30" as="geometry" />
        </mxCell>
        <mxCell id="nyVP8lf8nU9UiDjdo4iV-43" value="PK" style="shape=partialRectangle;connectable=0;fillColor=none;top=0;left=0;bottom=0;right=0;fontStyle=1;overflow=hidden;whiteSpace=wrap;html=1;" vertex="1" parent="nyVP8lf8nU9UiDjdo4iV-42">
          <mxGeometry width="30" height="30" as="geometry">
            <mxRectangle width="30" height="30" as="alternateBounds" />
          </mxGeometry>
        </mxCell>
        <mxCell id="nyVP8lf8nU9UiDjdo4iV-44" value="PersonalityId" style="shape=partialRectangle;connectable=0;fillColor=none;top=0;left=0;bottom=0;right=0;align=left;spacingLeft=6;fontStyle=5;overflow=hidden;whiteSpace=wrap;html=1;" vertex="1" parent="nyVP8lf8nU9UiDjdo4iV-42">
          <mxGeometry x="30" width="150" height="30" as="geometry">
            <mxRectangle width="150" height="30" as="alternateBounds" />
          </mxGeometry>
        </mxCell>
        <mxCell id="nyVP8lf8nU9UiDjdo4iV-45" value="INT" style="shape=partialRectangle;connectable=0;fillColor=none;top=0;left=0;bottom=0;right=0;align=left;spacingLeft=6;fontStyle=5;overflow=hidden;whiteSpace=wrap;html=1;" vertex="1" parent="nyVP8lf8nU9UiDjdo4iV-42">
          <mxGeometry x="180" width="73" height="30" as="geometry">
            <mxRectangle width="73" height="30" as="alternateBounds" />
          </mxGeometry>
        </mxCell>
        <mxCell id="nyVP8lf8nU9UiDjdo4iV-46" value="" style="shape=tableRow;horizontal=0;startSize=0;swimlaneHead=0;swimlaneBody=0;fillColor=none;collapsible=0;dropTarget=0;points=[[0,0.5],[1,0.5]];portConstraint=eastwest;top=0;left=0;right=0;bottom=0;" vertex="1" parent="nyVP8lf8nU9UiDjdo4iV-41">
          <mxGeometry y="60" width="253" height="30" as="geometry" />
        </mxCell>
        <mxCell id="nyVP8lf8nU9UiDjdo4iV-47" value="" style="shape=partialRectangle;connectable=0;fillColor=none;top=0;left=0;bottom=0;right=0;editable=1;overflow=hidden;whiteSpace=wrap;html=1;" vertex="1" parent="nyVP8lf8nU9UiDjdo4iV-46">
          <mxGeometry width="30" height="30" as="geometry">
            <mxRectangle width="30" height="30" as="alternateBounds" />
          </mxGeometry>
        </mxCell>
        <mxCell id="nyVP8lf8nU9UiDjdo4iV-48" value="Name" style="shape=partialRectangle;connectable=0;fillColor=none;top=0;left=0;bottom=0;right=0;align=left;spacingLeft=6;overflow=hidden;whiteSpace=wrap;html=1;" vertex="1" parent="nyVP8lf8nU9UiDjdo4iV-46">
          <mxGeometry x="30" width="150" height="30" as="geometry">
            <mxRectangle width="150" height="30" as="alternateBounds" />
          </mxGeometry>
        </mxCell>
        <mxCell id="nyVP8lf8nU9UiDjdo4iV-49" value="VARCHAR" style="shape=partialRectangle;connectable=0;fillColor=none;top=0;left=0;bottom=0;right=0;align=left;spacingLeft=6;overflow=hidden;whiteSpace=wrap;html=1;" vertex="1" parent="nyVP8lf8nU9UiDjdo4iV-46">
          <mxGeometry x="180" width="73" height="30" as="geometry">
            <mxRectangle width="73" height="30" as="alternateBounds" />
          </mxGeometry>
        </mxCell>
        <mxCell id="nyVP8lf8nU9UiDjdo4iV-50" value="&lt;span style=&quot;font-weight: 400; text-wrap: wrap;&quot;&gt;ScriptLine&lt;/span&gt;" style="shape=table;startSize=30;container=1;collapsible=1;childLayout=tableLayout;fixedRows=1;rowLines=0;fontStyle=1;align=center;resizeLast=1;html=1;rounded=1;" vertex="1" parent="1">
          <mxGeometry x="-2779" y="42" width="253" height="150" as="geometry" />
        </mxCell>
        <mxCell id="nyVP8lf8nU9UiDjdo4iV-51" value="" style="shape=tableRow;horizontal=0;startSize=0;swimlaneHead=0;swimlaneBody=0;fillColor=none;collapsible=0;dropTarget=0;points=[[0,0.5],[1,0.5]];portConstraint=eastwest;top=0;left=0;right=0;bottom=1;" vertex="1" parent="nyVP8lf8nU9UiDjdo4iV-50">
          <mxGeometry y="30" width="253" height="30" as="geometry" />
        </mxCell>
        <mxCell id="nyVP8lf8nU9UiDjdo4iV-52" value="PK" style="shape=partialRectangle;connectable=0;fillColor=none;top=0;left=0;bottom=0;right=0;fontStyle=1;overflow=hidden;whiteSpace=wrap;html=1;" vertex="1" parent="nyVP8lf8nU9UiDjdo4iV-51">
          <mxGeometry width="30" height="30" as="geometry">
            <mxRectangle width="30" height="30" as="alternateBounds" />
          </mxGeometry>
        </mxCell>
        <mxCell id="nyVP8lf8nU9UiDjdo4iV-53" value="ScriptLineId" style="shape=partialRectangle;connectable=0;fillColor=none;top=0;left=0;bottom=0;right=0;align=left;spacingLeft=6;fontStyle=5;overflow=hidden;whiteSpace=wrap;html=1;" vertex="1" parent="nyVP8lf8nU9UiDjdo4iV-51">
          <mxGeometry x="30" width="150" height="30" as="geometry">
            <mxRectangle width="150" height="30" as="alternateBounds" />
          </mxGeometry>
        </mxCell>
        <mxCell id="nyVP8lf8nU9UiDjdo4iV-54" value="INT" style="shape=partialRectangle;connectable=0;fillColor=none;top=0;left=0;bottom=0;right=0;align=left;spacingLeft=6;fontStyle=5;overflow=hidden;whiteSpace=wrap;html=1;" vertex="1" parent="nyVP8lf8nU9UiDjdo4iV-51">
          <mxGeometry x="180" width="73" height="30" as="geometry">
            <mxRectangle width="73" height="30" as="alternateBounds" />
          </mxGeometry>
        </mxCell>
        <mxCell id="nyVP8lf8nU9UiDjdo4iV-55" value="" style="shape=tableRow;horizontal=0;startSize=0;swimlaneHead=0;swimlaneBody=0;fillColor=none;collapsible=0;dropTarget=0;points=[[0,0.5],[1,0.5]];portConstraint=eastwest;top=0;left=0;right=0;bottom=0;" vertex="1" parent="nyVP8lf8nU9UiDjdo4iV-50">
          <mxGeometry y="60" width="253" height="30" as="geometry" />
        </mxCell>
        <mxCell id="nyVP8lf8nU9UiDjdo4iV-56" value="FK" style="shape=partialRectangle;connectable=0;fillColor=none;top=0;left=0;bottom=0;right=0;editable=1;overflow=hidden;whiteSpace=wrap;html=1;" vertex="1" parent="nyVP8lf8nU9UiDjdo4iV-55">
          <mxGeometry width="30" height="30" as="geometry">
            <mxRectangle width="30" height="30" as="alternateBounds" />
          </mxGeometry>
        </mxCell>
        <mxCell id="nyVP8lf8nU9UiDjdo4iV-57" value="ScriptLineTypeId" style="shape=partialRectangle;connectable=0;fillColor=none;top=0;left=0;bottom=0;right=0;align=left;spacingLeft=6;overflow=hidden;whiteSpace=wrap;html=1;" vertex="1" parent="nyVP8lf8nU9UiDjdo4iV-55">
          <mxGeometry x="30" width="150" height="30" as="geometry">
            <mxRectangle width="150" height="30" as="alternateBounds" />
          </mxGeometry>
        </mxCell>
        <mxCell id="nyVP8lf8nU9UiDjdo4iV-58" value="INT" style="shape=partialRectangle;connectable=0;fillColor=none;top=0;left=0;bottom=0;right=0;align=left;spacingLeft=6;overflow=hidden;whiteSpace=wrap;html=1;" vertex="1" parent="nyVP8lf8nU9UiDjdo4iV-55">
          <mxGeometry x="180" width="73" height="30" as="geometry">
            <mxRectangle width="73" height="30" as="alternateBounds" />
          </mxGeometry>
        </mxCell>
        <mxCell id="nyVP8lf8nU9UiDjdo4iV-67" style="shape=tableRow;horizontal=0;startSize=0;swimlaneHead=0;swimlaneBody=0;fillColor=none;collapsible=0;dropTarget=0;points=[[0,0.5],[1,0.5]];portConstraint=eastwest;top=0;left=0;right=0;bottom=0;" vertex="1" parent="nyVP8lf8nU9UiDjdo4iV-50">
          <mxGeometry y="90" width="253" height="30" as="geometry" />
        </mxCell>
        <mxCell id="nyVP8lf8nU9UiDjdo4iV-68" value="FK" style="shape=partialRectangle;connectable=0;fillColor=none;top=0;left=0;bottom=0;right=0;editable=1;overflow=hidden;whiteSpace=wrap;html=1;" vertex="1" parent="nyVP8lf8nU9UiDjdo4iV-67">
          <mxGeometry width="30" height="30" as="geometry">
            <mxRectangle width="30" height="30" as="alternateBounds" />
          </mxGeometry>
        </mxCell>
        <mxCell id="nyVP8lf8nU9UiDjdo4iV-69" value="ScriptLineToneId" style="shape=partialRectangle;connectable=0;fillColor=none;top=0;left=0;bottom=0;right=0;align=left;spacingLeft=6;overflow=hidden;whiteSpace=wrap;html=1;" vertex="1" parent="nyVP8lf8nU9UiDjdo4iV-67">
          <mxGeometry x="30" width="150" height="30" as="geometry">
            <mxRectangle width="150" height="30" as="alternateBounds" />
          </mxGeometry>
        </mxCell>
        <mxCell id="nyVP8lf8nU9UiDjdo4iV-70" value="INT" style="shape=partialRectangle;connectable=0;fillColor=none;top=0;left=0;bottom=0;right=0;align=left;spacingLeft=6;overflow=hidden;whiteSpace=wrap;html=1;" vertex="1" parent="nyVP8lf8nU9UiDjdo4iV-67">
          <mxGeometry x="180" width="73" height="30" as="geometry">
            <mxRectangle width="73" height="30" as="alternateBounds" />
          </mxGeometry>
        </mxCell>
        <mxCell id="nyVP8lf8nU9UiDjdo4iV-63" style="shape=tableRow;horizontal=0;startSize=0;swimlaneHead=0;swimlaneBody=0;fillColor=none;collapsible=0;dropTarget=0;points=[[0,0.5],[1,0.5]];portConstraint=eastwest;top=0;left=0;right=0;bottom=0;" vertex="1" parent="nyVP8lf8nU9UiDjdo4iV-50">
          <mxGeometry y="120" width="253" height="30" as="geometry" />
        </mxCell>
        <mxCell id="nyVP8lf8nU9UiDjdo4iV-64" value="FK" style="shape=partialRectangle;connectable=0;fillColor=none;top=0;left=0;bottom=0;right=0;editable=1;overflow=hidden;whiteSpace=wrap;html=1;" vertex="1" parent="nyVP8lf8nU9UiDjdo4iV-63">
          <mxGeometry width="30" height="30" as="geometry">
            <mxRectangle width="30" height="30" as="alternateBounds" />
          </mxGeometry>
        </mxCell>
        <mxCell id="nyVP8lf8nU9UiDjdo4iV-65" value="TextContentId" style="shape=partialRectangle;connectable=0;fillColor=none;top=0;left=0;bottom=0;right=0;align=left;spacingLeft=6;overflow=hidden;whiteSpace=wrap;html=1;" vertex="1" parent="nyVP8lf8nU9UiDjdo4iV-63">
          <mxGeometry x="30" width="150" height="30" as="geometry">
            <mxRectangle width="150" height="30" as="alternateBounds" />
          </mxGeometry>
        </mxCell>
        <mxCell id="nyVP8lf8nU9UiDjdo4iV-66" value="INT" style="shape=partialRectangle;connectable=0;fillColor=none;top=0;left=0;bottom=0;right=0;align=left;spacingLeft=6;overflow=hidden;whiteSpace=wrap;html=1;" vertex="1" parent="nyVP8lf8nU9UiDjdo4iV-63">
          <mxGeometry x="180" width="73" height="30" as="geometry">
            <mxRectangle width="73" height="30" as="alternateBounds" />
          </mxGeometry>
        </mxCell>
        <mxCell id="nyVP8lf8nU9UiDjdo4iV-71" value="&lt;span style=&quot;font-weight: 400; text-wrap: wrap;&quot;&gt;ScriptLineType&lt;/span&gt;" style="shape=table;startSize=30;container=1;collapsible=1;childLayout=tableLayout;fixedRows=1;rowLines=0;fontStyle=1;align=center;resizeLast=1;html=1;rounded=1;" vertex="1" parent="1">
          <mxGeometry x="-3146" y="22" width="253" height="90" as="geometry" />
        </mxCell>
        <mxCell id="nyVP8lf8nU9UiDjdo4iV-72" value="" style="shape=tableRow;horizontal=0;startSize=0;swimlaneHead=0;swimlaneBody=0;fillColor=none;collapsible=0;dropTarget=0;points=[[0,0.5],[1,0.5]];portConstraint=eastwest;top=0;left=0;right=0;bottom=1;" vertex="1" parent="nyVP8lf8nU9UiDjdo4iV-71">
          <mxGeometry y="30" width="253" height="30" as="geometry" />
        </mxCell>
        <mxCell id="nyVP8lf8nU9UiDjdo4iV-73" value="PK" style="shape=partialRectangle;connectable=0;fillColor=none;top=0;left=0;bottom=0;right=0;fontStyle=1;overflow=hidden;whiteSpace=wrap;html=1;" vertex="1" parent="nyVP8lf8nU9UiDjdo4iV-72">
          <mxGeometry width="30" height="30" as="geometry">
            <mxRectangle width="30" height="30" as="alternateBounds" />
          </mxGeometry>
        </mxCell>
        <mxCell id="nyVP8lf8nU9UiDjdo4iV-74" value="ScriptLineTypeId" style="shape=partialRectangle;connectable=0;fillColor=none;top=0;left=0;bottom=0;right=0;align=left;spacingLeft=6;fontStyle=5;overflow=hidden;whiteSpace=wrap;html=1;" vertex="1" parent="nyVP8lf8nU9UiDjdo4iV-72">
          <mxGeometry x="30" width="150" height="30" as="geometry">
            <mxRectangle width="150" height="30" as="alternateBounds" />
          </mxGeometry>
        </mxCell>
        <mxCell id="nyVP8lf8nU9UiDjdo4iV-75" value="INT" style="shape=partialRectangle;connectable=0;fillColor=none;top=0;left=0;bottom=0;right=0;align=left;spacingLeft=6;fontStyle=5;overflow=hidden;whiteSpace=wrap;html=1;" vertex="1" parent="nyVP8lf8nU9UiDjdo4iV-72">
          <mxGeometry x="180" width="73" height="30" as="geometry">
            <mxRectangle width="73" height="30" as="alternateBounds" />
          </mxGeometry>
        </mxCell>
        <mxCell id="nyVP8lf8nU9UiDjdo4iV-76" value="" style="shape=tableRow;horizontal=0;startSize=0;swimlaneHead=0;swimlaneBody=0;fillColor=none;collapsible=0;dropTarget=0;points=[[0,0.5],[1,0.5]];portConstraint=eastwest;top=0;left=0;right=0;bottom=0;" vertex="1" parent="nyVP8lf8nU9UiDjdo4iV-71">
          <mxGeometry y="60" width="253" height="30" as="geometry" />
        </mxCell>
        <mxCell id="nyVP8lf8nU9UiDjdo4iV-77" value="" style="shape=partialRectangle;connectable=0;fillColor=none;top=0;left=0;bottom=0;right=0;editable=1;overflow=hidden;whiteSpace=wrap;html=1;" vertex="1" parent="nyVP8lf8nU9UiDjdo4iV-76">
          <mxGeometry width="30" height="30" as="geometry">
            <mxRectangle width="30" height="30" as="alternateBounds" />
          </mxGeometry>
        </mxCell>
        <mxCell id="nyVP8lf8nU9UiDjdo4iV-78" value="Type" style="shape=partialRectangle;connectable=0;fillColor=none;top=0;left=0;bottom=0;right=0;align=left;spacingLeft=6;overflow=hidden;whiteSpace=wrap;html=1;" vertex="1" parent="nyVP8lf8nU9UiDjdo4iV-76">
          <mxGeometry x="30" width="150" height="30" as="geometry">
            <mxRectangle width="150" height="30" as="alternateBounds" />
          </mxGeometry>
        </mxCell>
        <mxCell id="nyVP8lf8nU9UiDjdo4iV-79" value="VARCHAR" style="shape=partialRectangle;connectable=0;fillColor=none;top=0;left=0;bottom=0;right=0;align=left;spacingLeft=6;overflow=hidden;whiteSpace=wrap;html=1;" vertex="1" parent="nyVP8lf8nU9UiDjdo4iV-76">
          <mxGeometry x="180" width="73" height="30" as="geometry">
            <mxRectangle width="73" height="30" as="alternateBounds" />
          </mxGeometry>
        </mxCell>
        <mxCell id="nyVP8lf8nU9UiDjdo4iV-80" value="&lt;span style=&quot;font-weight: 400; text-wrap: wrap;&quot;&gt;ScriptLineTone&lt;/span&gt;" style="shape=table;startSize=30;container=1;collapsible=1;childLayout=tableLayout;fixedRows=1;rowLines=0;fontStyle=1;align=center;resizeLast=1;html=1;rounded=1;" vertex="1" parent="1">
          <mxGeometry x="-3146" y="138" width="253" height="90" as="geometry" />
        </mxCell>
        <mxCell id="nyVP8lf8nU9UiDjdo4iV-81" value="" style="shape=tableRow;horizontal=0;startSize=0;swimlaneHead=0;swimlaneBody=0;fillColor=none;collapsible=0;dropTarget=0;points=[[0,0.5],[1,0.5]];portConstraint=eastwest;top=0;left=0;right=0;bottom=1;" vertex="1" parent="nyVP8lf8nU9UiDjdo4iV-80">
          <mxGeometry y="30" width="253" height="30" as="geometry" />
        </mxCell>
        <mxCell id="nyVP8lf8nU9UiDjdo4iV-82" value="PK" style="shape=partialRectangle;connectable=0;fillColor=none;top=0;left=0;bottom=0;right=0;fontStyle=1;overflow=hidden;whiteSpace=wrap;html=1;" vertex="1" parent="nyVP8lf8nU9UiDjdo4iV-81">
          <mxGeometry width="30" height="30" as="geometry">
            <mxRectangle width="30" height="30" as="alternateBounds" />
          </mxGeometry>
        </mxCell>
        <mxCell id="nyVP8lf8nU9UiDjdo4iV-83" value="ScriptLineToneId" style="shape=partialRectangle;connectable=0;fillColor=none;top=0;left=0;bottom=0;right=0;align=left;spacingLeft=6;fontStyle=5;overflow=hidden;whiteSpace=wrap;html=1;" vertex="1" parent="nyVP8lf8nU9UiDjdo4iV-81">
          <mxGeometry x="30" width="150" height="30" as="geometry">
            <mxRectangle width="150" height="30" as="alternateBounds" />
          </mxGeometry>
        </mxCell>
        <mxCell id="nyVP8lf8nU9UiDjdo4iV-84" value="INT" style="shape=partialRectangle;connectable=0;fillColor=none;top=0;left=0;bottom=0;right=0;align=left;spacingLeft=6;fontStyle=5;overflow=hidden;whiteSpace=wrap;html=1;" vertex="1" parent="nyVP8lf8nU9UiDjdo4iV-81">
          <mxGeometry x="180" width="73" height="30" as="geometry">
            <mxRectangle width="73" height="30" as="alternateBounds" />
          </mxGeometry>
        </mxCell>
        <mxCell id="nyVP8lf8nU9UiDjdo4iV-85" value="" style="shape=tableRow;horizontal=0;startSize=0;swimlaneHead=0;swimlaneBody=0;fillColor=none;collapsible=0;dropTarget=0;points=[[0,0.5],[1,0.5]];portConstraint=eastwest;top=0;left=0;right=0;bottom=0;" vertex="1" parent="nyVP8lf8nU9UiDjdo4iV-80">
          <mxGeometry y="60" width="253" height="30" as="geometry" />
        </mxCell>
        <mxCell id="nyVP8lf8nU9UiDjdo4iV-86" value="" style="shape=partialRectangle;connectable=0;fillColor=none;top=0;left=0;bottom=0;right=0;editable=1;overflow=hidden;whiteSpace=wrap;html=1;" vertex="1" parent="nyVP8lf8nU9UiDjdo4iV-85">
          <mxGeometry width="30" height="30" as="geometry">
            <mxRectangle width="30" height="30" as="alternateBounds" />
          </mxGeometry>
        </mxCell>
        <mxCell id="nyVP8lf8nU9UiDjdo4iV-87" value="Tone" style="shape=partialRectangle;connectable=0;fillColor=none;top=0;left=0;bottom=0;right=0;align=left;spacingLeft=6;overflow=hidden;whiteSpace=wrap;html=1;" vertex="1" parent="nyVP8lf8nU9UiDjdo4iV-85">
          <mxGeometry x="30" width="150" height="30" as="geometry">
            <mxRectangle width="150" height="30" as="alternateBounds" />
          </mxGeometry>
        </mxCell>
        <mxCell id="nyVP8lf8nU9UiDjdo4iV-88" value="VARCHAR" style="shape=partialRectangle;connectable=0;fillColor=none;top=0;left=0;bottom=0;right=0;align=left;spacingLeft=6;overflow=hidden;whiteSpace=wrap;html=1;" vertex="1" parent="nyVP8lf8nU9UiDjdo4iV-85">
          <mxGeometry x="180" width="73" height="30" as="geometry">
            <mxRectangle width="73" height="30" as="alternateBounds" />
          </mxGeometry>
        </mxCell>
        <mxCell id="nyVP8lf8nU9UiDjdo4iV-89" value="&lt;span style=&quot;font-weight: 400; text-wrap: wrap;&quot;&gt;Response&lt;/span&gt;" style="shape=table;startSize=30;container=1;collapsible=1;childLayout=tableLayout;fixedRows=1;rowLines=0;fontStyle=1;align=center;resizeLast=1;html=1;rounded=1;" vertex="1" parent="1">
          <mxGeometry x="-2446" y="244" width="253" height="120" as="geometry" />
        </mxCell>
        <mxCell id="nyVP8lf8nU9UiDjdo4iV-90" value="" style="shape=tableRow;horizontal=0;startSize=0;swimlaneHead=0;swimlaneBody=0;fillColor=none;collapsible=0;dropTarget=0;points=[[0,0.5],[1,0.5]];portConstraint=eastwest;top=0;left=0;right=0;bottom=1;" vertex="1" parent="nyVP8lf8nU9UiDjdo4iV-89">
          <mxGeometry y="30" width="253" height="30" as="geometry" />
        </mxCell>
        <mxCell id="nyVP8lf8nU9UiDjdo4iV-91" value="PK" style="shape=partialRectangle;connectable=0;fillColor=none;top=0;left=0;bottom=0;right=0;fontStyle=1;overflow=hidden;whiteSpace=wrap;html=1;" vertex="1" parent="nyVP8lf8nU9UiDjdo4iV-90">
          <mxGeometry width="30" height="30" as="geometry">
            <mxRectangle width="30" height="30" as="alternateBounds" />
          </mxGeometry>
        </mxCell>
        <mxCell id="nyVP8lf8nU9UiDjdo4iV-92" value="ResponseId" style="shape=partialRectangle;connectable=0;fillColor=none;top=0;left=0;bottom=0;right=0;align=left;spacingLeft=6;fontStyle=5;overflow=hidden;whiteSpace=wrap;html=1;" vertex="1" parent="nyVP8lf8nU9UiDjdo4iV-90">
          <mxGeometry x="30" width="150" height="30" as="geometry">
            <mxRectangle width="150" height="30" as="alternateBounds" />
          </mxGeometry>
        </mxCell>
        <mxCell id="nyVP8lf8nU9UiDjdo4iV-93" value="INT" style="shape=partialRectangle;connectable=0;fillColor=none;top=0;left=0;bottom=0;right=0;align=left;spacingLeft=6;fontStyle=5;overflow=hidden;whiteSpace=wrap;html=1;" vertex="1" parent="nyVP8lf8nU9UiDjdo4iV-90">
          <mxGeometry x="180" width="73" height="30" as="geometry">
            <mxRectangle width="73" height="30" as="alternateBounds" />
          </mxGeometry>
        </mxCell>
        <mxCell id="nyVP8lf8nU9UiDjdo4iV-94" value="" style="shape=tableRow;horizontal=0;startSize=0;swimlaneHead=0;swimlaneBody=0;fillColor=none;collapsible=0;dropTarget=0;points=[[0,0.5],[1,0.5]];portConstraint=eastwest;top=0;left=0;right=0;bottom=0;" vertex="1" parent="nyVP8lf8nU9UiDjdo4iV-89">
          <mxGeometry y="60" width="253" height="30" as="geometry" />
        </mxCell>
        <mxCell id="nyVP8lf8nU9UiDjdo4iV-95" value="FK" style="shape=partialRectangle;connectable=0;fillColor=none;top=0;left=0;bottom=0;right=0;editable=1;overflow=hidden;whiteSpace=wrap;html=1;" vertex="1" parent="nyVP8lf8nU9UiDjdo4iV-94">
          <mxGeometry width="30" height="30" as="geometry">
            <mxRectangle width="30" height="30" as="alternateBounds" />
          </mxGeometry>
        </mxCell>
        <mxCell id="nyVP8lf8nU9UiDjdo4iV-96" value="ScriptLineId" style="shape=partialRectangle;connectable=0;fillColor=none;top=0;left=0;bottom=0;right=0;align=left;spacingLeft=6;overflow=hidden;whiteSpace=wrap;html=1;" vertex="1" parent="nyVP8lf8nU9UiDjdo4iV-94">
          <mxGeometry x="30" width="150" height="30" as="geometry">
            <mxRectangle width="150" height="30" as="alternateBounds" />
          </mxGeometry>
        </mxCell>
        <mxCell id="nyVP8lf8nU9UiDjdo4iV-97" value="INT" style="shape=partialRectangle;connectable=0;fillColor=none;top=0;left=0;bottom=0;right=0;align=left;spacingLeft=6;overflow=hidden;whiteSpace=wrap;html=1;" vertex="1" parent="nyVP8lf8nU9UiDjdo4iV-94">
          <mxGeometry x="180" width="73" height="30" as="geometry">
            <mxRectangle width="73" height="30" as="alternateBounds" />
          </mxGeometry>
        </mxCell>
        <mxCell id="nyVP8lf8nU9UiDjdo4iV-98" style="shape=tableRow;horizontal=0;startSize=0;swimlaneHead=0;swimlaneBody=0;fillColor=none;collapsible=0;dropTarget=0;points=[[0,0.5],[1,0.5]];portConstraint=eastwest;top=0;left=0;right=0;bottom=0;" vertex="1" parent="nyVP8lf8nU9UiDjdo4iV-89">
          <mxGeometry y="90" width="253" height="30" as="geometry" />
        </mxCell>
        <mxCell id="nyVP8lf8nU9UiDjdo4iV-99" value="FK" style="shape=partialRectangle;connectable=0;fillColor=none;top=0;left=0;bottom=0;right=0;editable=1;overflow=hidden;whiteSpace=wrap;html=1;" vertex="1" parent="nyVP8lf8nU9UiDjdo4iV-98">
          <mxGeometry width="30" height="30" as="geometry">
            <mxRectangle width="30" height="30" as="alternateBounds" />
          </mxGeometry>
        </mxCell>
        <mxCell id="nyVP8lf8nU9UiDjdo4iV-100" value="ResponseTypeId" style="shape=partialRectangle;connectable=0;fillColor=none;top=0;left=0;bottom=0;right=0;align=left;spacingLeft=6;overflow=hidden;whiteSpace=wrap;html=1;" vertex="1" parent="nyVP8lf8nU9UiDjdo4iV-98">
          <mxGeometry x="30" width="150" height="30" as="geometry">
            <mxRectangle width="150" height="30" as="alternateBounds" />
          </mxGeometry>
        </mxCell>
        <mxCell id="nyVP8lf8nU9UiDjdo4iV-101" value="INT" style="shape=partialRectangle;connectable=0;fillColor=none;top=0;left=0;bottom=0;right=0;align=left;spacingLeft=6;overflow=hidden;whiteSpace=wrap;html=1;" vertex="1" parent="nyVP8lf8nU9UiDjdo4iV-98">
          <mxGeometry x="180" width="73" height="30" as="geometry">
            <mxRectangle width="73" height="30" as="alternateBounds" />
          </mxGeometry>
        </mxCell>
        <mxCell id="nyVP8lf8nU9UiDjdo4iV-106" value="&lt;span style=&quot;font-weight: 400; text-wrap: wrap;&quot;&gt;ResponseType&lt;/span&gt;" style="shape=table;startSize=30;container=1;collapsible=1;childLayout=tableLayout;fixedRows=1;rowLines=0;fontStyle=1;align=center;resizeLast=1;html=1;rounded=1;" vertex="1" parent="1">
          <mxGeometry x="-2779" y="208" width="253" height="90" as="geometry" />
        </mxCell>
        <mxCell id="nyVP8lf8nU9UiDjdo4iV-107" value="" style="shape=tableRow;horizontal=0;startSize=0;swimlaneHead=0;swimlaneBody=0;fillColor=none;collapsible=0;dropTarget=0;points=[[0,0.5],[1,0.5]];portConstraint=eastwest;top=0;left=0;right=0;bottom=1;" vertex="1" parent="nyVP8lf8nU9UiDjdo4iV-106">
          <mxGeometry y="30" width="253" height="30" as="geometry" />
        </mxCell>
        <mxCell id="nyVP8lf8nU9UiDjdo4iV-108" value="PK" style="shape=partialRectangle;connectable=0;fillColor=none;top=0;left=0;bottom=0;right=0;fontStyle=1;overflow=hidden;whiteSpace=wrap;html=1;" vertex="1" parent="nyVP8lf8nU9UiDjdo4iV-107">
          <mxGeometry width="30" height="30" as="geometry">
            <mxRectangle width="30" height="30" as="alternateBounds" />
          </mxGeometry>
        </mxCell>
        <mxCell id="nyVP8lf8nU9UiDjdo4iV-109" value="ResponseTypeId" style="shape=partialRectangle;connectable=0;fillColor=none;top=0;left=0;bottom=0;right=0;align=left;spacingLeft=6;fontStyle=5;overflow=hidden;whiteSpace=wrap;html=1;" vertex="1" parent="nyVP8lf8nU9UiDjdo4iV-107">
          <mxGeometry x="30" width="150" height="30" as="geometry">
            <mxRectangle width="150" height="30" as="alternateBounds" />
          </mxGeometry>
        </mxCell>
        <mxCell id="nyVP8lf8nU9UiDjdo4iV-110" value="INT" style="shape=partialRectangle;connectable=0;fillColor=none;top=0;left=0;bottom=0;right=0;align=left;spacingLeft=6;fontStyle=5;overflow=hidden;whiteSpace=wrap;html=1;" vertex="1" parent="nyVP8lf8nU9UiDjdo4iV-107">
          <mxGeometry x="180" width="73" height="30" as="geometry">
            <mxRectangle width="73" height="30" as="alternateBounds" />
          </mxGeometry>
        </mxCell>
        <mxCell id="nyVP8lf8nU9UiDjdo4iV-111" value="" style="shape=tableRow;horizontal=0;startSize=0;swimlaneHead=0;swimlaneBody=0;fillColor=none;collapsible=0;dropTarget=0;points=[[0,0.5],[1,0.5]];portConstraint=eastwest;top=0;left=0;right=0;bottom=0;" vertex="1" parent="nyVP8lf8nU9UiDjdo4iV-106">
          <mxGeometry y="60" width="253" height="30" as="geometry" />
        </mxCell>
        <mxCell id="nyVP8lf8nU9UiDjdo4iV-112" value="" style="shape=partialRectangle;connectable=0;fillColor=none;top=0;left=0;bottom=0;right=0;editable=1;overflow=hidden;whiteSpace=wrap;html=1;" vertex="1" parent="nyVP8lf8nU9UiDjdo4iV-111">
          <mxGeometry width="30" height="30" as="geometry">
            <mxRectangle width="30" height="30" as="alternateBounds" />
          </mxGeometry>
        </mxCell>
        <mxCell id="nyVP8lf8nU9UiDjdo4iV-113" value="Type" style="shape=partialRectangle;connectable=0;fillColor=none;top=0;left=0;bottom=0;right=0;align=left;spacingLeft=6;overflow=hidden;whiteSpace=wrap;html=1;" vertex="1" parent="nyVP8lf8nU9UiDjdo4iV-111">
          <mxGeometry x="30" width="150" height="30" as="geometry">
            <mxRectangle width="150" height="30" as="alternateBounds" />
          </mxGeometry>
        </mxCell>
        <mxCell id="nyVP8lf8nU9UiDjdo4iV-114" value="VARCHAR" style="shape=partialRectangle;connectable=0;fillColor=none;top=0;left=0;bottom=0;right=0;align=left;spacingLeft=6;overflow=hidden;whiteSpace=wrap;html=1;" vertex="1" parent="nyVP8lf8nU9UiDjdo4iV-111">
          <mxGeometry x="180" width="73" height="30" as="geometry">
            <mxRectangle width="73" height="30" as="alternateBounds" />
          </mxGeometry>
        </mxCell>
        <mxCell id="nyVP8lf8nU9UiDjdo4iV-119" value="&lt;span style=&quot;font-weight: 400; text-wrap: wrap;&quot;&gt;TextContent&lt;/span&gt;" style="shape=table;startSize=30;container=1;collapsible=1;childLayout=tableLayout;fixedRows=1;rowLines=0;fontStyle=1;align=center;resizeLast=1;html=1;rounded=1;" vertex="1" parent="1">
          <mxGeometry x="-3146" y="261" width="253" height="120" as="geometry" />
        </mxCell>
        <mxCell id="nyVP8lf8nU9UiDjdo4iV-120" value="" style="shape=tableRow;horizontal=0;startSize=0;swimlaneHead=0;swimlaneBody=0;fillColor=none;collapsible=0;dropTarget=0;points=[[0,0.5],[1,0.5]];portConstraint=eastwest;top=0;left=0;right=0;bottom=1;" vertex="1" parent="nyVP8lf8nU9UiDjdo4iV-119">
          <mxGeometry y="30" width="253" height="30" as="geometry" />
        </mxCell>
        <mxCell id="nyVP8lf8nU9UiDjdo4iV-121" value="PK" style="shape=partialRectangle;connectable=0;fillColor=none;top=0;left=0;bottom=0;right=0;fontStyle=1;overflow=hidden;whiteSpace=wrap;html=1;" vertex="1" parent="nyVP8lf8nU9UiDjdo4iV-120">
          <mxGeometry width="30" height="30" as="geometry">
            <mxRectangle width="30" height="30" as="alternateBounds" />
          </mxGeometry>
        </mxCell>
        <mxCell id="nyVP8lf8nU9UiDjdo4iV-122" value="TextContentId" style="shape=partialRectangle;connectable=0;fillColor=none;top=0;left=0;bottom=0;right=0;align=left;spacingLeft=6;fontStyle=5;overflow=hidden;whiteSpace=wrap;html=1;" vertex="1" parent="nyVP8lf8nU9UiDjdo4iV-120">
          <mxGeometry x="30" width="150" height="30" as="geometry">
            <mxRectangle width="150" height="30" as="alternateBounds" />
          </mxGeometry>
        </mxCell>
        <mxCell id="nyVP8lf8nU9UiDjdo4iV-123" value="INT" style="shape=partialRectangle;connectable=0;fillColor=none;top=0;left=0;bottom=0;right=0;align=left;spacingLeft=6;fontStyle=5;overflow=hidden;whiteSpace=wrap;html=1;" vertex="1" parent="nyVP8lf8nU9UiDjdo4iV-120">
          <mxGeometry x="180" width="73" height="30" as="geometry">
            <mxRectangle width="73" height="30" as="alternateBounds" />
          </mxGeometry>
        </mxCell>
        <mxCell id="nyVP8lf8nU9UiDjdo4iV-124" value="" style="shape=tableRow;horizontal=0;startSize=0;swimlaneHead=0;swimlaneBody=0;fillColor=none;collapsible=0;dropTarget=0;points=[[0,0.5],[1,0.5]];portConstraint=eastwest;top=0;left=0;right=0;bottom=0;" vertex="1" parent="nyVP8lf8nU9UiDjdo4iV-119">
          <mxGeometry y="60" width="253" height="30" as="geometry" />
        </mxCell>
        <mxCell id="nyVP8lf8nU9UiDjdo4iV-125" value="FK" style="shape=partialRectangle;connectable=0;fillColor=none;top=0;left=0;bottom=0;right=0;editable=1;overflow=hidden;whiteSpace=wrap;html=1;" vertex="1" parent="nyVP8lf8nU9UiDjdo4iV-124">
          <mxGeometry width="30" height="30" as="geometry">
            <mxRectangle width="30" height="30" as="alternateBounds" />
          </mxGeometry>
        </mxCell>
        <mxCell id="nyVP8lf8nU9UiDjdo4iV-126" value="BaseLanguageId" style="shape=partialRectangle;connectable=0;fillColor=none;top=0;left=0;bottom=0;right=0;align=left;spacingLeft=6;overflow=hidden;whiteSpace=wrap;html=1;" vertex="1" parent="nyVP8lf8nU9UiDjdo4iV-124">
          <mxGeometry x="30" width="150" height="30" as="geometry">
            <mxRectangle width="150" height="30" as="alternateBounds" />
          </mxGeometry>
        </mxCell>
        <mxCell id="nyVP8lf8nU9UiDjdo4iV-127" value="INT" style="shape=partialRectangle;connectable=0;fillColor=none;top=0;left=0;bottom=0;right=0;align=left;spacingLeft=6;overflow=hidden;whiteSpace=wrap;html=1;" vertex="1" parent="nyVP8lf8nU9UiDjdo4iV-124">
          <mxGeometry x="180" width="73" height="30" as="geometry">
            <mxRectangle width="73" height="30" as="alternateBounds" />
          </mxGeometry>
        </mxCell>
        <mxCell id="nyVP8lf8nU9UiDjdo4iV-128" style="shape=tableRow;horizontal=0;startSize=0;swimlaneHead=0;swimlaneBody=0;fillColor=none;collapsible=0;dropTarget=0;points=[[0,0.5],[1,0.5]];portConstraint=eastwest;top=0;left=0;right=0;bottom=0;" vertex="1" parent="nyVP8lf8nU9UiDjdo4iV-119">
          <mxGeometry y="90" width="253" height="30" as="geometry" />
        </mxCell>
        <mxCell id="nyVP8lf8nU9UiDjdo4iV-129" value="" style="shape=partialRectangle;connectable=0;fillColor=none;top=0;left=0;bottom=0;right=0;editable=1;overflow=hidden;whiteSpace=wrap;html=1;" vertex="1" parent="nyVP8lf8nU9UiDjdo4iV-128">
          <mxGeometry width="30" height="30" as="geometry">
            <mxRectangle width="30" height="30" as="alternateBounds" />
          </mxGeometry>
        </mxCell>
        <mxCell id="nyVP8lf8nU9UiDjdo4iV-130" value="BaseText" style="shape=partialRectangle;connectable=0;fillColor=none;top=0;left=0;bottom=0;right=0;align=left;spacingLeft=6;overflow=hidden;whiteSpace=wrap;html=1;" vertex="1" parent="nyVP8lf8nU9UiDjdo4iV-128">
          <mxGeometry x="30" width="150" height="30" as="geometry">
            <mxRectangle width="150" height="30" as="alternateBounds" />
          </mxGeometry>
        </mxCell>
        <mxCell id="nyVP8lf8nU9UiDjdo4iV-131" value="VARCHAR" style="shape=partialRectangle;connectable=0;fillColor=none;top=0;left=0;bottom=0;right=0;align=left;spacingLeft=6;overflow=hidden;whiteSpace=wrap;html=1;" vertex="1" parent="nyVP8lf8nU9UiDjdo4iV-128">
          <mxGeometry x="180" width="73" height="30" as="geometry">
            <mxRectangle width="73" height="30" as="alternateBounds" />
          </mxGeometry>
        </mxCell>
        <mxCell id="nyVP8lf8nU9UiDjdo4iV-132" value="&lt;span style=&quot;font-weight: 400; text-wrap: wrap;&quot;&gt;TextContentTranslation&lt;/span&gt;" style="shape=table;startSize=30;container=1;collapsible=1;childLayout=tableLayout;fixedRows=1;rowLines=0;fontStyle=1;align=center;resizeLast=1;html=1;rounded=1;" vertex="1" parent="1">
          <mxGeometry x="-3495" y="178" width="278" height="150" as="geometry" />
        </mxCell>
        <mxCell id="nyVP8lf8nU9UiDjdo4iV-133" value="" style="shape=tableRow;horizontal=0;startSize=0;swimlaneHead=0;swimlaneBody=0;fillColor=none;collapsible=0;dropTarget=0;points=[[0,0.5],[1,0.5]];portConstraint=eastwest;top=0;left=0;right=0;bottom=1;" vertex="1" parent="nyVP8lf8nU9UiDjdo4iV-132">
          <mxGeometry y="30" width="278" height="30" as="geometry" />
        </mxCell>
        <mxCell id="nyVP8lf8nU9UiDjdo4iV-134" value="PK" style="shape=partialRectangle;connectable=0;fillColor=none;top=0;left=0;bottom=0;right=0;fontStyle=1;overflow=hidden;whiteSpace=wrap;html=1;" vertex="1" parent="nyVP8lf8nU9UiDjdo4iV-133">
          <mxGeometry width="30" height="30" as="geometry">
            <mxRectangle width="30" height="30" as="alternateBounds" />
          </mxGeometry>
        </mxCell>
        <mxCell id="nyVP8lf8nU9UiDjdo4iV-135" value="TextContentTranslationId" style="shape=partialRectangle;connectable=0;fillColor=none;top=0;left=0;bottom=0;right=0;align=left;spacingLeft=6;fontStyle=5;overflow=hidden;whiteSpace=wrap;html=1;" vertex="1" parent="nyVP8lf8nU9UiDjdo4iV-133">
          <mxGeometry x="30" width="161.95833333333363" height="30" as="geometry">
            <mxRectangle width="161.95833333333363" height="30" as="alternateBounds" />
          </mxGeometry>
        </mxCell>
        <mxCell id="nyVP8lf8nU9UiDjdo4iV-136" value="INT" style="shape=partialRectangle;connectable=0;fillColor=none;top=0;left=0;bottom=0;right=0;align=left;spacingLeft=6;fontStyle=5;overflow=hidden;whiteSpace=wrap;html=1;" vertex="1" parent="nyVP8lf8nU9UiDjdo4iV-133">
          <mxGeometry x="191.95833333333363" width="86.04166666666637" height="30" as="geometry">
            <mxRectangle width="86.04166666666637" height="30" as="alternateBounds" />
          </mxGeometry>
        </mxCell>
        <mxCell id="nyVP8lf8nU9UiDjdo4iV-149" style="shape=tableRow;horizontal=0;startSize=0;swimlaneHead=0;swimlaneBody=0;fillColor=none;collapsible=0;dropTarget=0;points=[[0,0.5],[1,0.5]];portConstraint=eastwest;top=0;left=0;right=0;bottom=0;" vertex="1" parent="nyVP8lf8nU9UiDjdo4iV-132">
          <mxGeometry y="60" width="278" height="30" as="geometry" />
        </mxCell>
        <mxCell id="nyVP8lf8nU9UiDjdo4iV-150" value="FK" style="shape=partialRectangle;connectable=0;fillColor=none;top=0;left=0;bottom=0;right=0;editable=1;overflow=hidden;whiteSpace=wrap;html=1;" vertex="1" parent="nyVP8lf8nU9UiDjdo4iV-149">
          <mxGeometry width="30" height="30" as="geometry">
            <mxRectangle width="30" height="30" as="alternateBounds" />
          </mxGeometry>
        </mxCell>
        <mxCell id="nyVP8lf8nU9UiDjdo4iV-151" value="TextContentId" style="shape=partialRectangle;connectable=0;fillColor=none;top=0;left=0;bottom=0;right=0;align=left;spacingLeft=6;overflow=hidden;whiteSpace=wrap;html=1;" vertex="1" parent="nyVP8lf8nU9UiDjdo4iV-149">
          <mxGeometry x="30" width="161.95833333333363" height="30" as="geometry">
            <mxRectangle width="161.95833333333363" height="30" as="alternateBounds" />
          </mxGeometry>
        </mxCell>
        <mxCell id="nyVP8lf8nU9UiDjdo4iV-152" value="INT" style="shape=partialRectangle;connectable=0;fillColor=none;top=0;left=0;bottom=0;right=0;align=left;spacingLeft=6;overflow=hidden;whiteSpace=wrap;html=1;" vertex="1" parent="nyVP8lf8nU9UiDjdo4iV-149">
          <mxGeometry x="191.95833333333363" width="86.04166666666637" height="30" as="geometry">
            <mxRectangle width="86.04166666666637" height="30" as="alternateBounds" />
          </mxGeometry>
        </mxCell>
        <mxCell id="nyVP8lf8nU9UiDjdo4iV-137" value="" style="shape=tableRow;horizontal=0;startSize=0;swimlaneHead=0;swimlaneBody=0;fillColor=none;collapsible=0;dropTarget=0;points=[[0,0.5],[1,0.5]];portConstraint=eastwest;top=0;left=0;right=0;bottom=0;" vertex="1" parent="nyVP8lf8nU9UiDjdo4iV-132">
          <mxGeometry y="90" width="278" height="30" as="geometry" />
        </mxCell>
        <mxCell id="nyVP8lf8nU9UiDjdo4iV-138" value="FK" style="shape=partialRectangle;connectable=0;fillColor=none;top=0;left=0;bottom=0;right=0;editable=1;overflow=hidden;whiteSpace=wrap;html=1;" vertex="1" parent="nyVP8lf8nU9UiDjdo4iV-137">
          <mxGeometry width="30" height="30" as="geometry">
            <mxRectangle width="30" height="30" as="alternateBounds" />
          </mxGeometry>
        </mxCell>
        <mxCell id="nyVP8lf8nU9UiDjdo4iV-139" value="LanguageId" style="shape=partialRectangle;connectable=0;fillColor=none;top=0;left=0;bottom=0;right=0;align=left;spacingLeft=6;overflow=hidden;whiteSpace=wrap;html=1;" vertex="1" parent="nyVP8lf8nU9UiDjdo4iV-137">
          <mxGeometry x="30" width="161.95833333333363" height="30" as="geometry">
            <mxRectangle width="161.95833333333363" height="30" as="alternateBounds" />
          </mxGeometry>
        </mxCell>
        <mxCell id="nyVP8lf8nU9UiDjdo4iV-140" value="INT" style="shape=partialRectangle;connectable=0;fillColor=none;top=0;left=0;bottom=0;right=0;align=left;spacingLeft=6;overflow=hidden;whiteSpace=wrap;html=1;" vertex="1" parent="nyVP8lf8nU9UiDjdo4iV-137">
          <mxGeometry x="191.95833333333363" width="86.04166666666637" height="30" as="geometry">
            <mxRectangle width="86.04166666666637" height="30" as="alternateBounds" />
          </mxGeometry>
        </mxCell>
        <mxCell id="nyVP8lf8nU9UiDjdo4iV-141" style="shape=tableRow;horizontal=0;startSize=0;swimlaneHead=0;swimlaneBody=0;fillColor=none;collapsible=0;dropTarget=0;points=[[0,0.5],[1,0.5]];portConstraint=eastwest;top=0;left=0;right=0;bottom=0;" vertex="1" parent="nyVP8lf8nU9UiDjdo4iV-132">
          <mxGeometry y="120" width="278" height="30" as="geometry" />
        </mxCell>
        <mxCell id="nyVP8lf8nU9UiDjdo4iV-142" value="" style="shape=partialRectangle;connectable=0;fillColor=none;top=0;left=0;bottom=0;right=0;editable=1;overflow=hidden;whiteSpace=wrap;html=1;" vertex="1" parent="nyVP8lf8nU9UiDjdo4iV-141">
          <mxGeometry width="30" height="30" as="geometry">
            <mxRectangle width="30" height="30" as="alternateBounds" />
          </mxGeometry>
        </mxCell>
        <mxCell id="nyVP8lf8nU9UiDjdo4iV-143" value="Text" style="shape=partialRectangle;connectable=0;fillColor=none;top=0;left=0;bottom=0;right=0;align=left;spacingLeft=6;overflow=hidden;whiteSpace=wrap;html=1;" vertex="1" parent="nyVP8lf8nU9UiDjdo4iV-141">
          <mxGeometry x="30" width="161.95833333333363" height="30" as="geometry">
            <mxRectangle width="161.95833333333363" height="30" as="alternateBounds" />
          </mxGeometry>
        </mxCell>
        <mxCell id="nyVP8lf8nU9UiDjdo4iV-144" value="VARCHAR" style="shape=partialRectangle;connectable=0;fillColor=none;top=0;left=0;bottom=0;right=0;align=left;spacingLeft=6;overflow=hidden;whiteSpace=wrap;html=1;" vertex="1" parent="nyVP8lf8nU9UiDjdo4iV-141">
          <mxGeometry x="191.95833333333363" width="86.04166666666637" height="30" as="geometry">
            <mxRectangle width="86.04166666666637" height="30" as="alternateBounds" />
          </mxGeometry>
        </mxCell>
        <mxCell id="nyVP8lf8nU9UiDjdo4iV-153" value="&lt;span style=&quot;font-weight: 400; text-wrap: wrap;&quot;&gt;HoldUp&lt;/span&gt;" style="shape=table;startSize=30;container=1;collapsible=1;childLayout=tableLayout;fixedRows=1;rowLines=0;fontStyle=1;align=center;resizeLast=1;html=1;rounded=1;" vertex="1" parent="1">
          <mxGeometry x="-2411" y="-934" width="253" height="150" as="geometry" />
        </mxCell>
        <mxCell id="nyVP8lf8nU9UiDjdo4iV-154" value="" style="shape=tableRow;horizontal=0;startSize=0;swimlaneHead=0;swimlaneBody=0;fillColor=none;collapsible=0;dropTarget=0;points=[[0,0.5],[1,0.5]];portConstraint=eastwest;top=0;left=0;right=0;bottom=1;" vertex="1" parent="nyVP8lf8nU9UiDjdo4iV-153">
          <mxGeometry y="30" width="253" height="30" as="geometry" />
        </mxCell>
        <mxCell id="nyVP8lf8nU9UiDjdo4iV-155" value="PK" style="shape=partialRectangle;connectable=0;fillColor=none;top=0;left=0;bottom=0;right=0;fontStyle=1;overflow=hidden;whiteSpace=wrap;html=1;" vertex="1" parent="nyVP8lf8nU9UiDjdo4iV-154">
          <mxGeometry width="30" height="30" as="geometry">
            <mxRectangle width="30" height="30" as="alternateBounds" />
          </mxGeometry>
        </mxCell>
        <mxCell id="nyVP8lf8nU9UiDjdo4iV-156" value="HoldUpId" style="shape=partialRectangle;connectable=0;fillColor=none;top=0;left=0;bottom=0;right=0;align=left;spacingLeft=6;fontStyle=5;overflow=hidden;whiteSpace=wrap;html=1;" vertex="1" parent="nyVP8lf8nU9UiDjdo4iV-154">
          <mxGeometry x="30" width="150" height="30" as="geometry">
            <mxRectangle width="150" height="30" as="alternateBounds" />
          </mxGeometry>
        </mxCell>
        <mxCell id="nyVP8lf8nU9UiDjdo4iV-157" value="INT" style="shape=partialRectangle;connectable=0;fillColor=none;top=0;left=0;bottom=0;right=0;align=left;spacingLeft=6;fontStyle=5;overflow=hidden;whiteSpace=wrap;html=1;" vertex="1" parent="nyVP8lf8nU9UiDjdo4iV-154">
          <mxGeometry x="180" width="73" height="30" as="geometry">
            <mxRectangle width="73" height="30" as="alternateBounds" />
          </mxGeometry>
        </mxCell>
        <mxCell id="nyVP8lf8nU9UiDjdo4iV-158" value="" style="shape=tableRow;horizontal=0;startSize=0;swimlaneHead=0;swimlaneBody=0;fillColor=none;collapsible=0;dropTarget=0;points=[[0,0.5],[1,0.5]];portConstraint=eastwest;top=0;left=0;right=0;bottom=0;" vertex="1" parent="nyVP8lf8nU9UiDjdo4iV-153">
          <mxGeometry y="60" width="253" height="30" as="geometry" />
        </mxCell>
        <mxCell id="nyVP8lf8nU9UiDjdo4iV-159" value="FK" style="shape=partialRectangle;connectable=0;fillColor=none;top=0;left=0;bottom=0;right=0;editable=1;overflow=hidden;whiteSpace=wrap;html=1;" vertex="1" parent="nyVP8lf8nU9UiDjdo4iV-158">
          <mxGeometry width="30" height="30" as="geometry">
            <mxRectangle width="30" height="30" as="alternateBounds" />
          </mxGeometry>
        </mxCell>
        <mxCell id="nyVP8lf8nU9UiDjdo4iV-160" value="ScriptLineId" style="shape=partialRectangle;connectable=0;fillColor=none;top=0;left=0;bottom=0;right=0;align=left;spacingLeft=6;overflow=hidden;whiteSpace=wrap;html=1;" vertex="1" parent="nyVP8lf8nU9UiDjdo4iV-158">
          <mxGeometry x="30" width="150" height="30" as="geometry">
            <mxRectangle width="150" height="30" as="alternateBounds" />
          </mxGeometry>
        </mxCell>
        <mxCell id="nyVP8lf8nU9UiDjdo4iV-161" value="INT" style="shape=partialRectangle;connectable=0;fillColor=none;top=0;left=0;bottom=0;right=0;align=left;spacingLeft=6;overflow=hidden;whiteSpace=wrap;html=1;" vertex="1" parent="nyVP8lf8nU9UiDjdo4iV-158">
          <mxGeometry x="180" width="73" height="30" as="geometry">
            <mxRectangle width="73" height="30" as="alternateBounds" />
          </mxGeometry>
        </mxCell>
        <mxCell id="nyVP8lf8nU9UiDjdo4iV-162" style="shape=tableRow;horizontal=0;startSize=0;swimlaneHead=0;swimlaneBody=0;fillColor=none;collapsible=0;dropTarget=0;points=[[0,0.5],[1,0.5]];portConstraint=eastwest;top=0;left=0;right=0;bottom=0;" vertex="1" parent="nyVP8lf8nU9UiDjdo4iV-153">
          <mxGeometry y="90" width="253" height="30" as="geometry" />
        </mxCell>
        <mxCell id="nyVP8lf8nU9UiDjdo4iV-163" value="FK" style="shape=partialRectangle;connectable=0;fillColor=none;top=0;left=0;bottom=0;right=0;editable=1;overflow=hidden;whiteSpace=wrap;html=1;" vertex="1" parent="nyVP8lf8nU9UiDjdo4iV-162">
          <mxGeometry width="30" height="30" as="geometry">
            <mxRectangle width="30" height="30" as="alternateBounds" />
          </mxGeometry>
        </mxCell>
        <mxCell id="nyVP8lf8nU9UiDjdo4iV-164" value="EntityTypeId" style="shape=partialRectangle;connectable=0;fillColor=none;top=0;left=0;bottom=0;right=0;align=left;spacingLeft=6;overflow=hidden;whiteSpace=wrap;html=1;" vertex="1" parent="nyVP8lf8nU9UiDjdo4iV-162">
          <mxGeometry x="30" width="150" height="30" as="geometry">
            <mxRectangle width="150" height="30" as="alternateBounds" />
          </mxGeometry>
        </mxCell>
        <mxCell id="nyVP8lf8nU9UiDjdo4iV-165" value="INT" style="shape=partialRectangle;connectable=0;fillColor=none;top=0;left=0;bottom=0;right=0;align=left;spacingLeft=6;overflow=hidden;whiteSpace=wrap;html=1;" vertex="1" parent="nyVP8lf8nU9UiDjdo4iV-162">
          <mxGeometry x="180" width="73" height="30" as="geometry">
            <mxRectangle width="73" height="30" as="alternateBounds" />
          </mxGeometry>
        </mxCell>
        <mxCell id="nyVP8lf8nU9UiDjdo4iV-166" style="shape=tableRow;horizontal=0;startSize=0;swimlaneHead=0;swimlaneBody=0;fillColor=none;collapsible=0;dropTarget=0;points=[[0,0.5],[1,0.5]];portConstraint=eastwest;top=0;left=0;right=0;bottom=0;" vertex="1" parent="nyVP8lf8nU9UiDjdo4iV-153">
          <mxGeometry y="120" width="253" height="30" as="geometry" />
        </mxCell>
        <mxCell id="nyVP8lf8nU9UiDjdo4iV-167" value="FK" style="shape=partialRectangle;connectable=0;fillColor=none;top=0;left=0;bottom=0;right=0;editable=1;overflow=hidden;whiteSpace=wrap;html=1;" vertex="1" parent="nyVP8lf8nU9UiDjdo4iV-166">
          <mxGeometry width="30" height="30" as="geometry">
            <mxRectangle width="30" height="30" as="alternateBounds" />
          </mxGeometry>
        </mxCell>
        <mxCell id="nyVP8lf8nU9UiDjdo4iV-168" value="PersonalityId" style="shape=partialRectangle;connectable=0;fillColor=none;top=0;left=0;bottom=0;right=0;align=left;spacingLeft=6;overflow=hidden;whiteSpace=wrap;html=1;" vertex="1" parent="nyVP8lf8nU9UiDjdo4iV-166">
          <mxGeometry x="30" width="150" height="30" as="geometry">
            <mxRectangle width="150" height="30" as="alternateBounds" />
          </mxGeometry>
        </mxCell>
        <mxCell id="nyVP8lf8nU9UiDjdo4iV-169" value="INT" style="shape=partialRectangle;connectable=0;fillColor=none;top=0;left=0;bottom=0;right=0;align=left;spacingLeft=6;overflow=hidden;whiteSpace=wrap;html=1;" vertex="1" parent="nyVP8lf8nU9UiDjdo4iV-166">
          <mxGeometry x="180" width="73" height="30" as="geometry">
            <mxRectangle width="73" height="30" as="alternateBounds" />
          </mxGeometry>
        </mxCell>
        <mxCell id="nyVP8lf8nU9UiDjdo4iV-170" value="&lt;span style=&quot;font-weight: 400; text-wrap: wrap;&quot;&gt;IdleTimeout&lt;/span&gt;" style="shape=table;startSize=30;container=1;collapsible=1;childLayout=tableLayout;fixedRows=1;rowLines=0;fontStyle=1;align=center;resizeLast=1;html=1;rounded=1;" vertex="1" parent="1">
          <mxGeometry x="-3201" y="-924" width="253" height="150" as="geometry" />
        </mxCell>
        <mxCell id="nyVP8lf8nU9UiDjdo4iV-171" value="" style="shape=tableRow;horizontal=0;startSize=0;swimlaneHead=0;swimlaneBody=0;fillColor=none;collapsible=0;dropTarget=0;points=[[0,0.5],[1,0.5]];portConstraint=eastwest;top=0;left=0;right=0;bottom=1;" vertex="1" parent="nyVP8lf8nU9UiDjdo4iV-170">
          <mxGeometry y="30" width="253" height="30" as="geometry" />
        </mxCell>
        <mxCell id="nyVP8lf8nU9UiDjdo4iV-172" value="PK" style="shape=partialRectangle;connectable=0;fillColor=none;top=0;left=0;bottom=0;right=0;fontStyle=1;overflow=hidden;whiteSpace=wrap;html=1;" vertex="1" parent="nyVP8lf8nU9UiDjdo4iV-171">
          <mxGeometry width="30" height="30" as="geometry">
            <mxRectangle width="30" height="30" as="alternateBounds" />
          </mxGeometry>
        </mxCell>
        <mxCell id="nyVP8lf8nU9UiDjdo4iV-173" value="IdleTimeoutId" style="shape=partialRectangle;connectable=0;fillColor=none;top=0;left=0;bottom=0;right=0;align=left;spacingLeft=6;fontStyle=5;overflow=hidden;whiteSpace=wrap;html=1;" vertex="1" parent="nyVP8lf8nU9UiDjdo4iV-171">
          <mxGeometry x="30" width="150" height="30" as="geometry">
            <mxRectangle width="150" height="30" as="alternateBounds" />
          </mxGeometry>
        </mxCell>
        <mxCell id="nyVP8lf8nU9UiDjdo4iV-174" value="INT" style="shape=partialRectangle;connectable=0;fillColor=none;top=0;left=0;bottom=0;right=0;align=left;spacingLeft=6;fontStyle=5;overflow=hidden;whiteSpace=wrap;html=1;" vertex="1" parent="nyVP8lf8nU9UiDjdo4iV-171">
          <mxGeometry x="180" width="73" height="30" as="geometry">
            <mxRectangle width="73" height="30" as="alternateBounds" />
          </mxGeometry>
        </mxCell>
        <mxCell id="nyVP8lf8nU9UiDjdo4iV-175" value="" style="shape=tableRow;horizontal=0;startSize=0;swimlaneHead=0;swimlaneBody=0;fillColor=none;collapsible=0;dropTarget=0;points=[[0,0.5],[1,0.5]];portConstraint=eastwest;top=0;left=0;right=0;bottom=0;" vertex="1" parent="nyVP8lf8nU9UiDjdo4iV-170">
          <mxGeometry y="60" width="253" height="30" as="geometry" />
        </mxCell>
        <mxCell id="nyVP8lf8nU9UiDjdo4iV-176" value="FK" style="shape=partialRectangle;connectable=0;fillColor=none;top=0;left=0;bottom=0;right=0;editable=1;overflow=hidden;whiteSpace=wrap;html=1;" vertex="1" parent="nyVP8lf8nU9UiDjdo4iV-175">
          <mxGeometry width="30" height="30" as="geometry">
            <mxRectangle width="30" height="30" as="alternateBounds" />
          </mxGeometry>
        </mxCell>
        <mxCell id="nyVP8lf8nU9UiDjdo4iV-177" value="ScriptLineId" style="shape=partialRectangle;connectable=0;fillColor=none;top=0;left=0;bottom=0;right=0;align=left;spacingLeft=6;overflow=hidden;whiteSpace=wrap;html=1;" vertex="1" parent="nyVP8lf8nU9UiDjdo4iV-175">
          <mxGeometry x="30" width="150" height="30" as="geometry">
            <mxRectangle width="150" height="30" as="alternateBounds" />
          </mxGeometry>
        </mxCell>
        <mxCell id="nyVP8lf8nU9UiDjdo4iV-178" value="INT" style="shape=partialRectangle;connectable=0;fillColor=none;top=0;left=0;bottom=0;right=0;align=left;spacingLeft=6;overflow=hidden;whiteSpace=wrap;html=1;" vertex="1" parent="nyVP8lf8nU9UiDjdo4iV-175">
          <mxGeometry x="180" width="73" height="30" as="geometry">
            <mxRectangle width="73" height="30" as="alternateBounds" />
          </mxGeometry>
        </mxCell>
        <mxCell id="nyVP8lf8nU9UiDjdo4iV-179" style="shape=tableRow;horizontal=0;startSize=0;swimlaneHead=0;swimlaneBody=0;fillColor=none;collapsible=0;dropTarget=0;points=[[0,0.5],[1,0.5]];portConstraint=eastwest;top=0;left=0;right=0;bottom=0;" vertex="1" parent="nyVP8lf8nU9UiDjdo4iV-170">
          <mxGeometry y="90" width="253" height="30" as="geometry" />
        </mxCell>
        <mxCell id="nyVP8lf8nU9UiDjdo4iV-180" value="FK" style="shape=partialRectangle;connectable=0;fillColor=none;top=0;left=0;bottom=0;right=0;editable=1;overflow=hidden;whiteSpace=wrap;html=1;" vertex="1" parent="nyVP8lf8nU9UiDjdo4iV-179">
          <mxGeometry width="30" height="30" as="geometry">
            <mxRectangle width="30" height="30" as="alternateBounds" />
          </mxGeometry>
        </mxCell>
        <mxCell id="nyVP8lf8nU9UiDjdo4iV-181" value="EntityTypeId" style="shape=partialRectangle;connectable=0;fillColor=none;top=0;left=0;bottom=0;right=0;align=left;spacingLeft=6;overflow=hidden;whiteSpace=wrap;html=1;" vertex="1" parent="nyVP8lf8nU9UiDjdo4iV-179">
          <mxGeometry x="30" width="150" height="30" as="geometry">
            <mxRectangle width="150" height="30" as="alternateBounds" />
          </mxGeometry>
        </mxCell>
        <mxCell id="nyVP8lf8nU9UiDjdo4iV-182" value="INT" style="shape=partialRectangle;connectable=0;fillColor=none;top=0;left=0;bottom=0;right=0;align=left;spacingLeft=6;overflow=hidden;whiteSpace=wrap;html=1;" vertex="1" parent="nyVP8lf8nU9UiDjdo4iV-179">
          <mxGeometry x="180" width="73" height="30" as="geometry">
            <mxRectangle width="73" height="30" as="alternateBounds" />
          </mxGeometry>
        </mxCell>
        <mxCell id="nyVP8lf8nU9UiDjdo4iV-183" style="shape=tableRow;horizontal=0;startSize=0;swimlaneHead=0;swimlaneBody=0;fillColor=none;collapsible=0;dropTarget=0;points=[[0,0.5],[1,0.5]];portConstraint=eastwest;top=0;left=0;right=0;bottom=0;" vertex="1" parent="nyVP8lf8nU9UiDjdo4iV-170">
          <mxGeometry y="120" width="253" height="30" as="geometry" />
        </mxCell>
        <mxCell id="nyVP8lf8nU9UiDjdo4iV-184" value="FK" style="shape=partialRectangle;connectable=0;fillColor=none;top=0;left=0;bottom=0;right=0;editable=1;overflow=hidden;whiteSpace=wrap;html=1;" vertex="1" parent="nyVP8lf8nU9UiDjdo4iV-183">
          <mxGeometry width="30" height="30" as="geometry">
            <mxRectangle width="30" height="30" as="alternateBounds" />
          </mxGeometry>
        </mxCell>
        <mxCell id="nyVP8lf8nU9UiDjdo4iV-185" value="PersonalityId" style="shape=partialRectangle;connectable=0;fillColor=none;top=0;left=0;bottom=0;right=0;align=left;spacingLeft=6;overflow=hidden;whiteSpace=wrap;html=1;" vertex="1" parent="nyVP8lf8nU9UiDjdo4iV-183">
          <mxGeometry x="30" width="150" height="30" as="geometry">
            <mxRectangle width="150" height="30" as="alternateBounds" />
          </mxGeometry>
        </mxCell>
        <mxCell id="nyVP8lf8nU9UiDjdo4iV-186" value="INT" style="shape=partialRectangle;connectable=0;fillColor=none;top=0;left=0;bottom=0;right=0;align=left;spacingLeft=6;overflow=hidden;whiteSpace=wrap;html=1;" vertex="1" parent="nyVP8lf8nU9UiDjdo4iV-183">
          <mxGeometry x="180" width="73" height="30" as="geometry">
            <mxRectangle width="73" height="30" as="alternateBounds" />
          </mxGeometry>
        </mxCell>
        <mxCell id="nyVP8lf8nU9UiDjdo4iV-187" value="&lt;span style=&quot;font-weight: 400; text-wrap: wrap;&quot;&gt;IdleWarning&lt;/span&gt;" style="shape=table;startSize=30;container=1;collapsible=1;childLayout=tableLayout;fixedRows=1;rowLines=0;fontStyle=1;align=center;resizeLast=1;html=1;rounded=1;" vertex="1" parent="1">
          <mxGeometry x="-3217" y="-665" width="253" height="150" as="geometry" />
        </mxCell>
        <mxCell id="nyVP8lf8nU9UiDjdo4iV-188" value="" style="shape=tableRow;horizontal=0;startSize=0;swimlaneHead=0;swimlaneBody=0;fillColor=none;collapsible=0;dropTarget=0;points=[[0,0.5],[1,0.5]];portConstraint=eastwest;top=0;left=0;right=0;bottom=1;" vertex="1" parent="nyVP8lf8nU9UiDjdo4iV-187">
          <mxGeometry y="30" width="253" height="30" as="geometry" />
        </mxCell>
        <mxCell id="nyVP8lf8nU9UiDjdo4iV-189" value="PK" style="shape=partialRectangle;connectable=0;fillColor=none;top=0;left=0;bottom=0;right=0;fontStyle=1;overflow=hidden;whiteSpace=wrap;html=1;" vertex="1" parent="nyVP8lf8nU9UiDjdo4iV-188">
          <mxGeometry width="30" height="30" as="geometry">
            <mxRectangle width="30" height="30" as="alternateBounds" />
          </mxGeometry>
        </mxCell>
        <mxCell id="nyVP8lf8nU9UiDjdo4iV-190" value="IdleWarningId" style="shape=partialRectangle;connectable=0;fillColor=none;top=0;left=0;bottom=0;right=0;align=left;spacingLeft=6;fontStyle=5;overflow=hidden;whiteSpace=wrap;html=1;" vertex="1" parent="nyVP8lf8nU9UiDjdo4iV-188">
          <mxGeometry x="30" width="150" height="30" as="geometry">
            <mxRectangle width="150" height="30" as="alternateBounds" />
          </mxGeometry>
        </mxCell>
        <mxCell id="nyVP8lf8nU9UiDjdo4iV-191" value="INT" style="shape=partialRectangle;connectable=0;fillColor=none;top=0;left=0;bottom=0;right=0;align=left;spacingLeft=6;fontStyle=5;overflow=hidden;whiteSpace=wrap;html=1;" vertex="1" parent="nyVP8lf8nU9UiDjdo4iV-188">
          <mxGeometry x="180" width="73" height="30" as="geometry">
            <mxRectangle width="73" height="30" as="alternateBounds" />
          </mxGeometry>
        </mxCell>
        <mxCell id="nyVP8lf8nU9UiDjdo4iV-192" value="" style="shape=tableRow;horizontal=0;startSize=0;swimlaneHead=0;swimlaneBody=0;fillColor=none;collapsible=0;dropTarget=0;points=[[0,0.5],[1,0.5]];portConstraint=eastwest;top=0;left=0;right=0;bottom=0;" vertex="1" parent="nyVP8lf8nU9UiDjdo4iV-187">
          <mxGeometry y="60" width="253" height="30" as="geometry" />
        </mxCell>
        <mxCell id="nyVP8lf8nU9UiDjdo4iV-193" value="FK" style="shape=partialRectangle;connectable=0;fillColor=none;top=0;left=0;bottom=0;right=0;editable=1;overflow=hidden;whiteSpace=wrap;html=1;" vertex="1" parent="nyVP8lf8nU9UiDjdo4iV-192">
          <mxGeometry width="30" height="30" as="geometry">
            <mxRectangle width="30" height="30" as="alternateBounds" />
          </mxGeometry>
        </mxCell>
        <mxCell id="nyVP8lf8nU9UiDjdo4iV-194" value="ScriptLineId" style="shape=partialRectangle;connectable=0;fillColor=none;top=0;left=0;bottom=0;right=0;align=left;spacingLeft=6;overflow=hidden;whiteSpace=wrap;html=1;" vertex="1" parent="nyVP8lf8nU9UiDjdo4iV-192">
          <mxGeometry x="30" width="150" height="30" as="geometry">
            <mxRectangle width="150" height="30" as="alternateBounds" />
          </mxGeometry>
        </mxCell>
        <mxCell id="nyVP8lf8nU9UiDjdo4iV-195" value="INT" style="shape=partialRectangle;connectable=0;fillColor=none;top=0;left=0;bottom=0;right=0;align=left;spacingLeft=6;overflow=hidden;whiteSpace=wrap;html=1;" vertex="1" parent="nyVP8lf8nU9UiDjdo4iV-192">
          <mxGeometry x="180" width="73" height="30" as="geometry">
            <mxRectangle width="73" height="30" as="alternateBounds" />
          </mxGeometry>
        </mxCell>
        <mxCell id="nyVP8lf8nU9UiDjdo4iV-196" style="shape=tableRow;horizontal=0;startSize=0;swimlaneHead=0;swimlaneBody=0;fillColor=none;collapsible=0;dropTarget=0;points=[[0,0.5],[1,0.5]];portConstraint=eastwest;top=0;left=0;right=0;bottom=0;" vertex="1" parent="nyVP8lf8nU9UiDjdo4iV-187">
          <mxGeometry y="90" width="253" height="30" as="geometry" />
        </mxCell>
        <mxCell id="nyVP8lf8nU9UiDjdo4iV-197" value="FK" style="shape=partialRectangle;connectable=0;fillColor=none;top=0;left=0;bottom=0;right=0;editable=1;overflow=hidden;whiteSpace=wrap;html=1;" vertex="1" parent="nyVP8lf8nU9UiDjdo4iV-196">
          <mxGeometry width="30" height="30" as="geometry">
            <mxRectangle width="30" height="30" as="alternateBounds" />
          </mxGeometry>
        </mxCell>
        <mxCell id="nyVP8lf8nU9UiDjdo4iV-198" value="EntityTypeId" style="shape=partialRectangle;connectable=0;fillColor=none;top=0;left=0;bottom=0;right=0;align=left;spacingLeft=6;overflow=hidden;whiteSpace=wrap;html=1;" vertex="1" parent="nyVP8lf8nU9UiDjdo4iV-196">
          <mxGeometry x="30" width="150" height="30" as="geometry">
            <mxRectangle width="150" height="30" as="alternateBounds" />
          </mxGeometry>
        </mxCell>
        <mxCell id="nyVP8lf8nU9UiDjdo4iV-199" value="INT" style="shape=partialRectangle;connectable=0;fillColor=none;top=0;left=0;bottom=0;right=0;align=left;spacingLeft=6;overflow=hidden;whiteSpace=wrap;html=1;" vertex="1" parent="nyVP8lf8nU9UiDjdo4iV-196">
          <mxGeometry x="180" width="73" height="30" as="geometry">
            <mxRectangle width="73" height="30" as="alternateBounds" />
          </mxGeometry>
        </mxCell>
        <mxCell id="nyVP8lf8nU9UiDjdo4iV-200" style="shape=tableRow;horizontal=0;startSize=0;swimlaneHead=0;swimlaneBody=0;fillColor=none;collapsible=0;dropTarget=0;points=[[0,0.5],[1,0.5]];portConstraint=eastwest;top=0;left=0;right=0;bottom=0;" vertex="1" parent="nyVP8lf8nU9UiDjdo4iV-187">
          <mxGeometry y="120" width="253" height="30" as="geometry" />
        </mxCell>
        <mxCell id="nyVP8lf8nU9UiDjdo4iV-201" value="FK" style="shape=partialRectangle;connectable=0;fillColor=none;top=0;left=0;bottom=0;right=0;editable=1;overflow=hidden;whiteSpace=wrap;html=1;" vertex="1" parent="nyVP8lf8nU9UiDjdo4iV-200">
          <mxGeometry width="30" height="30" as="geometry">
            <mxRectangle width="30" height="30" as="alternateBounds" />
          </mxGeometry>
        </mxCell>
        <mxCell id="nyVP8lf8nU9UiDjdo4iV-202" value="PersonalityId" style="shape=partialRectangle;connectable=0;fillColor=none;top=0;left=0;bottom=0;right=0;align=left;spacingLeft=6;overflow=hidden;whiteSpace=wrap;html=1;" vertex="1" parent="nyVP8lf8nU9UiDjdo4iV-200">
          <mxGeometry x="30" width="150" height="30" as="geometry">
            <mxRectangle width="150" height="30" as="alternateBounds" />
          </mxGeometry>
        </mxCell>
        <mxCell id="nyVP8lf8nU9UiDjdo4iV-203" value="INT" style="shape=partialRectangle;connectable=0;fillColor=none;top=0;left=0;bottom=0;right=0;align=left;spacingLeft=6;overflow=hidden;whiteSpace=wrap;html=1;" vertex="1" parent="nyVP8lf8nU9UiDjdo4iV-200">
          <mxGeometry x="180" width="73" height="30" as="geometry">
            <mxRectangle width="73" height="30" as="alternateBounds" />
          </mxGeometry>
        </mxCell>
        <mxCell id="nyVP8lf8nU9UiDjdo4iV-204" value="&lt;span style=&quot;font-weight: 400; text-wrap: wrap;&quot;&gt;HoldUpResponse&lt;/span&gt;" style="shape=table;startSize=30;container=1;collapsible=1;childLayout=tableLayout;fixedRows=1;rowLines=0;fontStyle=1;align=center;resizeLast=1;html=1;rounded=1;" vertex="1" parent="1">
          <mxGeometry x="-2061" y="-919" width="253" height="120" as="geometry" />
        </mxCell>
        <mxCell id="nyVP8lf8nU9UiDjdo4iV-205" value="" style="shape=tableRow;horizontal=0;startSize=0;swimlaneHead=0;swimlaneBody=0;fillColor=none;collapsible=0;dropTarget=0;points=[[0,0.5],[1,0.5]];portConstraint=eastwest;top=0;left=0;right=0;bottom=1;" vertex="1" parent="nyVP8lf8nU9UiDjdo4iV-204">
          <mxGeometry y="30" width="253" height="30" as="geometry" />
        </mxCell>
        <mxCell id="nyVP8lf8nU9UiDjdo4iV-206" value="PK" style="shape=partialRectangle;connectable=0;fillColor=none;top=0;left=0;bottom=0;right=0;fontStyle=1;overflow=hidden;whiteSpace=wrap;html=1;" vertex="1" parent="nyVP8lf8nU9UiDjdo4iV-205">
          <mxGeometry width="30" height="30" as="geometry">
            <mxRectangle width="30" height="30" as="alternateBounds" />
          </mxGeometry>
        </mxCell>
        <mxCell id="nyVP8lf8nU9UiDjdo4iV-207" value="HoldUpResponseId" style="shape=partialRectangle;connectable=0;fillColor=none;top=0;left=0;bottom=0;right=0;align=left;spacingLeft=6;fontStyle=5;overflow=hidden;whiteSpace=wrap;html=1;" vertex="1" parent="nyVP8lf8nU9UiDjdo4iV-205">
          <mxGeometry x="30" width="150" height="30" as="geometry">
            <mxRectangle width="150" height="30" as="alternateBounds" />
          </mxGeometry>
        </mxCell>
        <mxCell id="nyVP8lf8nU9UiDjdo4iV-208" value="INT" style="shape=partialRectangle;connectable=0;fillColor=none;top=0;left=0;bottom=0;right=0;align=left;spacingLeft=6;fontStyle=5;overflow=hidden;whiteSpace=wrap;html=1;" vertex="1" parent="nyVP8lf8nU9UiDjdo4iV-205">
          <mxGeometry x="180" width="73" height="30" as="geometry">
            <mxRectangle width="73" height="30" as="alternateBounds" />
          </mxGeometry>
        </mxCell>
        <mxCell id="nyVP8lf8nU9UiDjdo4iV-209" value="" style="shape=tableRow;horizontal=0;startSize=0;swimlaneHead=0;swimlaneBody=0;fillColor=none;collapsible=0;dropTarget=0;points=[[0,0.5],[1,0.5]];portConstraint=eastwest;top=0;left=0;right=0;bottom=0;" vertex="1" parent="nyVP8lf8nU9UiDjdo4iV-204">
          <mxGeometry y="60" width="253" height="30" as="geometry" />
        </mxCell>
        <mxCell id="nyVP8lf8nU9UiDjdo4iV-210" value="FK" style="shape=partialRectangle;connectable=0;fillColor=none;top=0;left=0;bottom=0;right=0;editable=1;overflow=hidden;whiteSpace=wrap;html=1;" vertex="1" parent="nyVP8lf8nU9UiDjdo4iV-209">
          <mxGeometry width="30" height="30" as="geometry">
            <mxRectangle width="30" height="30" as="alternateBounds" />
          </mxGeometry>
        </mxCell>
        <mxCell id="nyVP8lf8nU9UiDjdo4iV-211" value="HoldUpId" style="shape=partialRectangle;connectable=0;fillColor=none;top=0;left=0;bottom=0;right=0;align=left;spacingLeft=6;overflow=hidden;whiteSpace=wrap;html=1;" vertex="1" parent="nyVP8lf8nU9UiDjdo4iV-209">
          <mxGeometry x="30" width="150" height="30" as="geometry">
            <mxRectangle width="150" height="30" as="alternateBounds" />
          </mxGeometry>
        </mxCell>
        <mxCell id="nyVP8lf8nU9UiDjdo4iV-212" value="INT" style="shape=partialRectangle;connectable=0;fillColor=none;top=0;left=0;bottom=0;right=0;align=left;spacingLeft=6;overflow=hidden;whiteSpace=wrap;html=1;" vertex="1" parent="nyVP8lf8nU9UiDjdo4iV-209">
          <mxGeometry x="180" width="73" height="30" as="geometry">
            <mxRectangle width="73" height="30" as="alternateBounds" />
          </mxGeometry>
        </mxCell>
        <mxCell id="nyVP8lf8nU9UiDjdo4iV-213" style="shape=tableRow;horizontal=0;startSize=0;swimlaneHead=0;swimlaneBody=0;fillColor=none;collapsible=0;dropTarget=0;points=[[0,0.5],[1,0.5]];portConstraint=eastwest;top=0;left=0;right=0;bottom=0;" vertex="1" parent="nyVP8lf8nU9UiDjdo4iV-204">
          <mxGeometry y="90" width="253" height="30" as="geometry" />
        </mxCell>
        <mxCell id="nyVP8lf8nU9UiDjdo4iV-214" value="FK" style="shape=partialRectangle;connectable=0;fillColor=none;top=0;left=0;bottom=0;right=0;editable=1;overflow=hidden;whiteSpace=wrap;html=1;" vertex="1" parent="nyVP8lf8nU9UiDjdo4iV-213">
          <mxGeometry width="30" height="30" as="geometry">
            <mxRectangle width="30" height="30" as="alternateBounds" />
          </mxGeometry>
        </mxCell>
        <mxCell id="nyVP8lf8nU9UiDjdo4iV-215" value="ResponseId" style="shape=partialRectangle;connectable=0;fillColor=none;top=0;left=0;bottom=0;right=0;align=left;spacingLeft=6;overflow=hidden;whiteSpace=wrap;html=1;" vertex="1" parent="nyVP8lf8nU9UiDjdo4iV-213">
          <mxGeometry x="30" width="150" height="30" as="geometry">
            <mxRectangle width="150" height="30" as="alternateBounds" />
          </mxGeometry>
        </mxCell>
        <mxCell id="nyVP8lf8nU9UiDjdo4iV-216" value="INT" style="shape=partialRectangle;connectable=0;fillColor=none;top=0;left=0;bottom=0;right=0;align=left;spacingLeft=6;overflow=hidden;whiteSpace=wrap;html=1;" vertex="1" parent="nyVP8lf8nU9UiDjdo4iV-213">
          <mxGeometry x="180" width="73" height="30" as="geometry">
            <mxRectangle width="73" height="30" as="alternateBounds" />
          </mxGeometry>
        </mxCell>
        <mxCell id="nyVP8lf8nU9UiDjdo4iV-221" value="&lt;span style=&quot;font-weight: 400; text-wrap: wrap;&quot;&gt;HoldUpResponsePluginDependency&lt;/span&gt;" style="shape=table;startSize=30;container=1;collapsible=1;childLayout=tableLayout;fixedRows=1;rowLines=0;fontStyle=1;align=center;resizeLast=1;html=1;rounded=1;" vertex="1" parent="1">
          <mxGeometry x="-1717" y="-1022" width="406" height="120" as="geometry" />
        </mxCell>
        <mxCell id="nyVP8lf8nU9UiDjdo4iV-222" value="" style="shape=tableRow;horizontal=0;startSize=0;swimlaneHead=0;swimlaneBody=0;fillColor=none;collapsible=0;dropTarget=0;points=[[0,0.5],[1,0.5]];portConstraint=eastwest;top=0;left=0;right=0;bottom=1;" vertex="1" parent="nyVP8lf8nU9UiDjdo4iV-221">
          <mxGeometry y="30" width="406" height="30" as="geometry" />
        </mxCell>
        <mxCell id="nyVP8lf8nU9UiDjdo4iV-223" value="PK" style="shape=partialRectangle;connectable=0;fillColor=none;top=0;left=0;bottom=0;right=0;fontStyle=1;overflow=hidden;whiteSpace=wrap;html=1;" vertex="1" parent="nyVP8lf8nU9UiDjdo4iV-222">
          <mxGeometry width="30" height="30" as="geometry">
            <mxRectangle width="30" height="30" as="alternateBounds" />
          </mxGeometry>
        </mxCell>
        <mxCell id="nyVP8lf8nU9UiDjdo4iV-224" value="HoldUpResponsePluginDependencyId" style="shape=partialRectangle;connectable=0;fillColor=none;top=0;left=0;bottom=0;right=0;align=left;spacingLeft=6;fontStyle=5;overflow=hidden;whiteSpace=wrap;html=1;" vertex="1" parent="nyVP8lf8nU9UiDjdo4iV-222">
          <mxGeometry x="30" width="244.50000000000026" height="30" as="geometry">
            <mxRectangle width="244.50000000000026" height="30" as="alternateBounds" />
          </mxGeometry>
        </mxCell>
        <mxCell id="nyVP8lf8nU9UiDjdo4iV-225" value="INT" style="shape=partialRectangle;connectable=0;fillColor=none;top=0;left=0;bottom=0;right=0;align=left;spacingLeft=6;fontStyle=5;overflow=hidden;whiteSpace=wrap;html=1;" vertex="1" parent="nyVP8lf8nU9UiDjdo4iV-222">
          <mxGeometry x="274.5000000000002" width="131.49999999999977" height="30" as="geometry">
            <mxRectangle width="131.49999999999977" height="30" as="alternateBounds" />
          </mxGeometry>
        </mxCell>
        <mxCell id="nyVP8lf8nU9UiDjdo4iV-226" value="" style="shape=tableRow;horizontal=0;startSize=0;swimlaneHead=0;swimlaneBody=0;fillColor=none;collapsible=0;dropTarget=0;points=[[0,0.5],[1,0.5]];portConstraint=eastwest;top=0;left=0;right=0;bottom=0;" vertex="1" parent="nyVP8lf8nU9UiDjdo4iV-221">
          <mxGeometry y="60" width="406" height="30" as="geometry" />
        </mxCell>
        <mxCell id="nyVP8lf8nU9UiDjdo4iV-227" value="FK" style="shape=partialRectangle;connectable=0;fillColor=none;top=0;left=0;bottom=0;right=0;editable=1;overflow=hidden;whiteSpace=wrap;html=1;" vertex="1" parent="nyVP8lf8nU9UiDjdo4iV-226">
          <mxGeometry width="30" height="30" as="geometry">
            <mxRectangle width="30" height="30" as="alternateBounds" />
          </mxGeometry>
        </mxCell>
        <mxCell id="nyVP8lf8nU9UiDjdo4iV-228" value="HoldUpResponseId" style="shape=partialRectangle;connectable=0;fillColor=none;top=0;left=0;bottom=0;right=0;align=left;spacingLeft=6;overflow=hidden;whiteSpace=wrap;html=1;" vertex="1" parent="nyVP8lf8nU9UiDjdo4iV-226">
          <mxGeometry x="30" width="244.50000000000026" height="30" as="geometry">
            <mxRectangle width="244.50000000000026" height="30" as="alternateBounds" />
          </mxGeometry>
        </mxCell>
        <mxCell id="nyVP8lf8nU9UiDjdo4iV-229" value="INT" style="shape=partialRectangle;connectable=0;fillColor=none;top=0;left=0;bottom=0;right=0;align=left;spacingLeft=6;overflow=hidden;whiteSpace=wrap;html=1;" vertex="1" parent="nyVP8lf8nU9UiDjdo4iV-226">
          <mxGeometry x="274.5000000000002" width="131.49999999999977" height="30" as="geometry">
            <mxRectangle width="131.49999999999977" height="30" as="alternateBounds" />
          </mxGeometry>
        </mxCell>
        <mxCell id="nyVP8lf8nU9UiDjdo4iV-230" style="shape=tableRow;horizontal=0;startSize=0;swimlaneHead=0;swimlaneBody=0;fillColor=none;collapsible=0;dropTarget=0;points=[[0,0.5],[1,0.5]];portConstraint=eastwest;top=0;left=0;right=0;bottom=0;" vertex="1" parent="nyVP8lf8nU9UiDjdo4iV-221">
          <mxGeometry y="90" width="406" height="30" as="geometry" />
        </mxCell>
        <mxCell id="nyVP8lf8nU9UiDjdo4iV-231" value="" style="shape=partialRectangle;connectable=0;fillColor=none;top=0;left=0;bottom=0;right=0;editable=1;overflow=hidden;whiteSpace=wrap;html=1;" vertex="1" parent="nyVP8lf8nU9UiDjdo4iV-230">
          <mxGeometry width="30" height="30" as="geometry">
            <mxRectangle width="30" height="30" as="alternateBounds" />
          </mxGeometry>
        </mxCell>
        <mxCell id="nyVP8lf8nU9UiDjdo4iV-232" value="PluginNamespacedKey" style="shape=partialRectangle;connectable=0;fillColor=none;top=0;left=0;bottom=0;right=0;align=left;spacingLeft=6;overflow=hidden;whiteSpace=wrap;html=1;" vertex="1" parent="nyVP8lf8nU9UiDjdo4iV-230">
          <mxGeometry x="30" width="244.50000000000026" height="30" as="geometry">
            <mxRectangle width="244.50000000000026" height="30" as="alternateBounds" />
          </mxGeometry>
        </mxCell>
        <mxCell id="nyVP8lf8nU9UiDjdo4iV-233" value="VARCHAR" style="shape=partialRectangle;connectable=0;fillColor=none;top=0;left=0;bottom=0;right=0;align=left;spacingLeft=6;overflow=hidden;whiteSpace=wrap;html=1;" vertex="1" parent="nyVP8lf8nU9UiDjdo4iV-230">
          <mxGeometry x="274.5000000000002" width="131.49999999999977" height="30" as="geometry">
            <mxRectangle width="131.49999999999977" height="30" as="alternateBounds" />
          </mxGeometry>
        </mxCell>
        <mxCell id="nyVP8lf8nU9UiDjdo4iV-234" value="&lt;span style=&quot;font-weight: 400; text-wrap: wrap;&quot;&gt;HoldUpResponsePermissionDependency&lt;/span&gt;" style="shape=table;startSize=30;container=1;collapsible=1;childLayout=tableLayout;fixedRows=1;rowLines=0;fontStyle=1;align=center;resizeLast=1;html=1;rounded=1;" vertex="1" parent="1">
          <mxGeometry x="-1717" y="-861" width="406" height="120" as="geometry" />
        </mxCell>
        <mxCell id="nyVP8lf8nU9UiDjdo4iV-235" value="" style="shape=tableRow;horizontal=0;startSize=0;swimlaneHead=0;swimlaneBody=0;fillColor=none;collapsible=0;dropTarget=0;points=[[0,0.5],[1,0.5]];portConstraint=eastwest;top=0;left=0;right=0;bottom=1;" vertex="1" parent="nyVP8lf8nU9UiDjdo4iV-234">
          <mxGeometry y="30" width="406" height="30" as="geometry" />
        </mxCell>
        <mxCell id="nyVP8lf8nU9UiDjdo4iV-236" value="PK" style="shape=partialRectangle;connectable=0;fillColor=none;top=0;left=0;bottom=0;right=0;fontStyle=1;overflow=hidden;whiteSpace=wrap;html=1;" vertex="1" parent="nyVP8lf8nU9UiDjdo4iV-235">
          <mxGeometry width="30" height="30" as="geometry">
            <mxRectangle width="30" height="30" as="alternateBounds" />
          </mxGeometry>
        </mxCell>
        <mxCell id="nyVP8lf8nU9UiDjdo4iV-237" value="HoldUpResponsePermissionDependencyId" style="shape=partialRectangle;connectable=0;fillColor=none;top=0;left=0;bottom=0;right=0;align=left;spacingLeft=6;fontStyle=5;overflow=hidden;whiteSpace=wrap;html=1;" vertex="1" parent="nyVP8lf8nU9UiDjdo4iV-235">
          <mxGeometry x="30" width="267.0588235294124" height="30" as="geometry">
            <mxRectangle width="267.0588235294124" height="30" as="alternateBounds" />
          </mxGeometry>
        </mxCell>
        <mxCell id="nyVP8lf8nU9UiDjdo4iV-238" value="INT" style="shape=partialRectangle;connectable=0;fillColor=none;top=0;left=0;bottom=0;right=0;align=left;spacingLeft=6;fontStyle=5;overflow=hidden;whiteSpace=wrap;html=1;" vertex="1" parent="nyVP8lf8nU9UiDjdo4iV-235">
          <mxGeometry x="297.0588235294124" width="108.9411764705876" height="30" as="geometry">
            <mxRectangle width="108.9411764705876" height="30" as="alternateBounds" />
          </mxGeometry>
        </mxCell>
        <mxCell id="nyVP8lf8nU9UiDjdo4iV-239" value="" style="shape=tableRow;horizontal=0;startSize=0;swimlaneHead=0;swimlaneBody=0;fillColor=none;collapsible=0;dropTarget=0;points=[[0,0.5],[1,0.5]];portConstraint=eastwest;top=0;left=0;right=0;bottom=0;" vertex="1" parent="nyVP8lf8nU9UiDjdo4iV-234">
          <mxGeometry y="60" width="406" height="30" as="geometry" />
        </mxCell>
        <mxCell id="nyVP8lf8nU9UiDjdo4iV-240" value="FK" style="shape=partialRectangle;connectable=0;fillColor=none;top=0;left=0;bottom=0;right=0;editable=1;overflow=hidden;whiteSpace=wrap;html=1;" vertex="1" parent="nyVP8lf8nU9UiDjdo4iV-239">
          <mxGeometry width="30" height="30" as="geometry">
            <mxRectangle width="30" height="30" as="alternateBounds" />
          </mxGeometry>
        </mxCell>
        <mxCell id="nyVP8lf8nU9UiDjdo4iV-241" value="HoldUpResponseId" style="shape=partialRectangle;connectable=0;fillColor=none;top=0;left=0;bottom=0;right=0;align=left;spacingLeft=6;overflow=hidden;whiteSpace=wrap;html=1;" vertex="1" parent="nyVP8lf8nU9UiDjdo4iV-239">
          <mxGeometry x="30" width="267.0588235294124" height="30" as="geometry">
            <mxRectangle width="267.0588235294124" height="30" as="alternateBounds" />
          </mxGeometry>
        </mxCell>
        <mxCell id="nyVP8lf8nU9UiDjdo4iV-242" value="INT" style="shape=partialRectangle;connectable=0;fillColor=none;top=0;left=0;bottom=0;right=0;align=left;spacingLeft=6;overflow=hidden;whiteSpace=wrap;html=1;" vertex="1" parent="nyVP8lf8nU9UiDjdo4iV-239">
          <mxGeometry x="297.0588235294124" width="108.9411764705876" height="30" as="geometry">
            <mxRectangle width="108.9411764705876" height="30" as="alternateBounds" />
          </mxGeometry>
        </mxCell>
        <mxCell id="nyVP8lf8nU9UiDjdo4iV-243" style="shape=tableRow;horizontal=0;startSize=0;swimlaneHead=0;swimlaneBody=0;fillColor=none;collapsible=0;dropTarget=0;points=[[0,0.5],[1,0.5]];portConstraint=eastwest;top=0;left=0;right=0;bottom=0;" vertex="1" parent="nyVP8lf8nU9UiDjdo4iV-234">
          <mxGeometry y="90" width="406" height="30" as="geometry" />
        </mxCell>
        <mxCell id="nyVP8lf8nU9UiDjdo4iV-244" value="" style="shape=partialRectangle;connectable=0;fillColor=none;top=0;left=0;bottom=0;right=0;editable=1;overflow=hidden;whiteSpace=wrap;html=1;" vertex="1" parent="nyVP8lf8nU9UiDjdo4iV-243">
          <mxGeometry width="30" height="30" as="geometry">
            <mxRectangle width="30" height="30" as="alternateBounds" />
          </mxGeometry>
        </mxCell>
        <mxCell id="nyVP8lf8nU9UiDjdo4iV-245" value="PermissionKey" style="shape=partialRectangle;connectable=0;fillColor=none;top=0;left=0;bottom=0;right=0;align=left;spacingLeft=6;overflow=hidden;whiteSpace=wrap;html=1;" vertex="1" parent="nyVP8lf8nU9UiDjdo4iV-243">
          <mxGeometry x="30" width="267.0588235294124" height="30" as="geometry">
            <mxRectangle width="267.0588235294124" height="30" as="alternateBounds" />
          </mxGeometry>
        </mxCell>
        <mxCell id="nyVP8lf8nU9UiDjdo4iV-246" value="VARCHAR" style="shape=partialRectangle;connectable=0;fillColor=none;top=0;left=0;bottom=0;right=0;align=left;spacingLeft=6;overflow=hidden;whiteSpace=wrap;html=1;" vertex="1" parent="nyVP8lf8nU9UiDjdo4iV-243">
          <mxGeometry x="297.0588235294124" width="108.9411764705876" height="30" as="geometry">
            <mxRectangle width="108.9411764705876" height="30" as="alternateBounds" />
          </mxGeometry>
        </mxCell>
        <mxCell id="nyVP8lf8nU9UiDjdo4iV-247" value="&lt;span style=&quot;font-weight: 400; text-wrap: wrap;&quot;&gt;MoneyOffer&lt;/span&gt;" style="shape=table;startSize=30;container=1;collapsible=1;childLayout=tableLayout;fixedRows=1;rowLines=0;fontStyle=1;align=center;resizeLast=1;html=1;rounded=1;" vertex="1" parent="1">
          <mxGeometry x="-2411" y="-743" width="253" height="210" as="geometry" />
        </mxCell>
        <mxCell id="nyVP8lf8nU9UiDjdo4iV-248" value="" style="shape=tableRow;horizontal=0;startSize=0;swimlaneHead=0;swimlaneBody=0;fillColor=none;collapsible=0;dropTarget=0;points=[[0,0.5],[1,0.5]];portConstraint=eastwest;top=0;left=0;right=0;bottom=1;" vertex="1" parent="nyVP8lf8nU9UiDjdo4iV-247">
          <mxGeometry y="30" width="253" height="30" as="geometry" />
        </mxCell>
        <mxCell id="nyVP8lf8nU9UiDjdo4iV-249" value="PK" style="shape=partialRectangle;connectable=0;fillColor=none;top=0;left=0;bottom=0;right=0;fontStyle=1;overflow=hidden;whiteSpace=wrap;html=1;" vertex="1" parent="nyVP8lf8nU9UiDjdo4iV-248">
          <mxGeometry width="30" height="30" as="geometry">
            <mxRectangle width="30" height="30" as="alternateBounds" />
          </mxGeometry>
        </mxCell>
        <mxCell id="nyVP8lf8nU9UiDjdo4iV-250" value="MoneyOfferId" style="shape=partialRectangle;connectable=0;fillColor=none;top=0;left=0;bottom=0;right=0;align=left;spacingLeft=6;fontStyle=5;overflow=hidden;whiteSpace=wrap;html=1;" vertex="1" parent="nyVP8lf8nU9UiDjdo4iV-248">
          <mxGeometry x="30" width="150" height="30" as="geometry">
            <mxRectangle width="150" height="30" as="alternateBounds" />
          </mxGeometry>
        </mxCell>
        <mxCell id="nyVP8lf8nU9UiDjdo4iV-251" value="INT" style="shape=partialRectangle;connectable=0;fillColor=none;top=0;left=0;bottom=0;right=0;align=left;spacingLeft=6;fontStyle=5;overflow=hidden;whiteSpace=wrap;html=1;" vertex="1" parent="nyVP8lf8nU9UiDjdo4iV-248">
          <mxGeometry x="180" width="73" height="30" as="geometry">
            <mxRectangle width="73" height="30" as="alternateBounds" />
          </mxGeometry>
        </mxCell>
        <mxCell id="nyVP8lf8nU9UiDjdo4iV-252" value="" style="shape=tableRow;horizontal=0;startSize=0;swimlaneHead=0;swimlaneBody=0;fillColor=none;collapsible=0;dropTarget=0;points=[[0,0.5],[1,0.5]];portConstraint=eastwest;top=0;left=0;right=0;bottom=0;" vertex="1" parent="nyVP8lf8nU9UiDjdo4iV-247">
          <mxGeometry y="60" width="253" height="30" as="geometry" />
        </mxCell>
        <mxCell id="nyVP8lf8nU9UiDjdo4iV-253" value="FK" style="shape=partialRectangle;connectable=0;fillColor=none;top=0;left=0;bottom=0;right=0;editable=1;overflow=hidden;whiteSpace=wrap;html=1;" vertex="1" parent="nyVP8lf8nU9UiDjdo4iV-252">
          <mxGeometry width="30" height="30" as="geometry">
            <mxRectangle width="30" height="30" as="alternateBounds" />
          </mxGeometry>
        </mxCell>
        <mxCell id="nyVP8lf8nU9UiDjdo4iV-254" value="ScriptLineId" style="shape=partialRectangle;connectable=0;fillColor=none;top=0;left=0;bottom=0;right=0;align=left;spacingLeft=6;overflow=hidden;whiteSpace=wrap;html=1;" vertex="1" parent="nyVP8lf8nU9UiDjdo4iV-252">
          <mxGeometry x="30" width="150" height="30" as="geometry">
            <mxRectangle width="150" height="30" as="alternateBounds" />
          </mxGeometry>
        </mxCell>
        <mxCell id="nyVP8lf8nU9UiDjdo4iV-255" value="INT" style="shape=partialRectangle;connectable=0;fillColor=none;top=0;left=0;bottom=0;right=0;align=left;spacingLeft=6;overflow=hidden;whiteSpace=wrap;html=1;" vertex="1" parent="nyVP8lf8nU9UiDjdo4iV-252">
          <mxGeometry x="180" width="73" height="30" as="geometry">
            <mxRectangle width="73" height="30" as="alternateBounds" />
          </mxGeometry>
        </mxCell>
        <mxCell id="nyVP8lf8nU9UiDjdo4iV-256" style="shape=tableRow;horizontal=0;startSize=0;swimlaneHead=0;swimlaneBody=0;fillColor=none;collapsible=0;dropTarget=0;points=[[0,0.5],[1,0.5]];portConstraint=eastwest;top=0;left=0;right=0;bottom=0;" vertex="1" parent="nyVP8lf8nU9UiDjdo4iV-247">
          <mxGeometry y="90" width="253" height="30" as="geometry" />
        </mxCell>
        <mxCell id="nyVP8lf8nU9UiDjdo4iV-257" value="FK" style="shape=partialRectangle;connectable=0;fillColor=none;top=0;left=0;bottom=0;right=0;editable=1;overflow=hidden;whiteSpace=wrap;html=1;" vertex="1" parent="nyVP8lf8nU9UiDjdo4iV-256">
          <mxGeometry width="30" height="30" as="geometry">
            <mxRectangle width="30" height="30" as="alternateBounds" />
          </mxGeometry>
        </mxCell>
        <mxCell id="nyVP8lf8nU9UiDjdo4iV-258" value="EntityTypeId" style="shape=partialRectangle;connectable=0;fillColor=none;top=0;left=0;bottom=0;right=0;align=left;spacingLeft=6;overflow=hidden;whiteSpace=wrap;html=1;" vertex="1" parent="nyVP8lf8nU9UiDjdo4iV-256">
          <mxGeometry x="30" width="150" height="30" as="geometry">
            <mxRectangle width="150" height="30" as="alternateBounds" />
          </mxGeometry>
        </mxCell>
        <mxCell id="nyVP8lf8nU9UiDjdo4iV-259" value="INT" style="shape=partialRectangle;connectable=0;fillColor=none;top=0;left=0;bottom=0;right=0;align=left;spacingLeft=6;overflow=hidden;whiteSpace=wrap;html=1;" vertex="1" parent="nyVP8lf8nU9UiDjdo4iV-256">
          <mxGeometry x="180" width="73" height="30" as="geometry">
            <mxRectangle width="73" height="30" as="alternateBounds" />
          </mxGeometry>
        </mxCell>
        <mxCell id="nyVP8lf8nU9UiDjdo4iV-260" style="shape=tableRow;horizontal=0;startSize=0;swimlaneHead=0;swimlaneBody=0;fillColor=none;collapsible=0;dropTarget=0;points=[[0,0.5],[1,0.5]];portConstraint=eastwest;top=0;left=0;right=0;bottom=0;" vertex="1" parent="nyVP8lf8nU9UiDjdo4iV-247">
          <mxGeometry y="120" width="253" height="30" as="geometry" />
        </mxCell>
        <mxCell id="nyVP8lf8nU9UiDjdo4iV-261" value="FK" style="shape=partialRectangle;connectable=0;fillColor=none;top=0;left=0;bottom=0;right=0;editable=1;overflow=hidden;whiteSpace=wrap;html=1;" vertex="1" parent="nyVP8lf8nU9UiDjdo4iV-260">
          <mxGeometry width="30" height="30" as="geometry">
            <mxRectangle width="30" height="30" as="alternateBounds" />
          </mxGeometry>
        </mxCell>
        <mxCell id="nyVP8lf8nU9UiDjdo4iV-262" value="PersonalityId" style="shape=partialRectangle;connectable=0;fillColor=none;top=0;left=0;bottom=0;right=0;align=left;spacingLeft=6;overflow=hidden;whiteSpace=wrap;html=1;" vertex="1" parent="nyVP8lf8nU9UiDjdo4iV-260">
          <mxGeometry x="30" width="150" height="30" as="geometry">
            <mxRectangle width="150" height="30" as="alternateBounds" />
          </mxGeometry>
        </mxCell>
        <mxCell id="nyVP8lf8nU9UiDjdo4iV-263" value="INT" style="shape=partialRectangle;connectable=0;fillColor=none;top=0;left=0;bottom=0;right=0;align=left;spacingLeft=6;overflow=hidden;whiteSpace=wrap;html=1;" vertex="1" parent="nyVP8lf8nU9UiDjdo4iV-260">
          <mxGeometry x="180" width="73" height="30" as="geometry">
            <mxRectangle width="73" height="30" as="alternateBounds" />
          </mxGeometry>
        </mxCell>
        <mxCell id="nyVP8lf8nU9UiDjdo4iV-269" style="shape=tableRow;horizontal=0;startSize=0;swimlaneHead=0;swimlaneBody=0;fillColor=none;collapsible=0;dropTarget=0;points=[[0,0.5],[1,0.5]];portConstraint=eastwest;top=0;left=0;right=0;bottom=0;" vertex="1" parent="nyVP8lf8nU9UiDjdo4iV-247">
          <mxGeometry y="150" width="253" height="30" as="geometry" />
        </mxCell>
        <mxCell id="nyVP8lf8nU9UiDjdo4iV-270" style="shape=partialRectangle;connectable=0;fillColor=none;top=0;left=0;bottom=0;right=0;editable=1;overflow=hidden;whiteSpace=wrap;html=1;" vertex="1" parent="nyVP8lf8nU9UiDjdo4iV-269">
          <mxGeometry width="30" height="30" as="geometry">
            <mxRectangle width="30" height="30" as="alternateBounds" />
          </mxGeometry>
        </mxCell>
        <mxCell id="nyVP8lf8nU9UiDjdo4iV-271" value="CanBeInitialOffer" style="shape=partialRectangle;connectable=0;fillColor=none;top=0;left=0;bottom=0;right=0;align=left;spacingLeft=6;overflow=hidden;whiteSpace=wrap;html=1;" vertex="1" parent="nyVP8lf8nU9UiDjdo4iV-269">
          <mxGeometry x="30" width="150" height="30" as="geometry">
            <mxRectangle width="150" height="30" as="alternateBounds" />
          </mxGeometry>
        </mxCell>
        <mxCell id="nyVP8lf8nU9UiDjdo4iV-272" value="BIT" style="shape=partialRectangle;connectable=0;fillColor=none;top=0;left=0;bottom=0;right=0;align=left;spacingLeft=6;overflow=hidden;whiteSpace=wrap;html=1;" vertex="1" parent="nyVP8lf8nU9UiDjdo4iV-269">
          <mxGeometry x="180" width="73" height="30" as="geometry">
            <mxRectangle width="73" height="30" as="alternateBounds" />
          </mxGeometry>
        </mxCell>
        <mxCell id="nyVP8lf8nU9UiDjdo4iV-265" style="shape=tableRow;horizontal=0;startSize=0;swimlaneHead=0;swimlaneBody=0;fillColor=none;collapsible=0;dropTarget=0;points=[[0,0.5],[1,0.5]];portConstraint=eastwest;top=0;left=0;right=0;bottom=0;" vertex="1" parent="nyVP8lf8nU9UiDjdo4iV-247">
          <mxGeometry y="180" width="253" height="30" as="geometry" />
        </mxCell>
        <mxCell id="nyVP8lf8nU9UiDjdo4iV-266" style="shape=partialRectangle;connectable=0;fillColor=none;top=0;left=0;bottom=0;right=0;editable=1;overflow=hidden;whiteSpace=wrap;html=1;" vertex="1" parent="nyVP8lf8nU9UiDjdo4iV-265">
          <mxGeometry width="30" height="30" as="geometry">
            <mxRectangle width="30" height="30" as="alternateBounds" />
          </mxGeometry>
        </mxCell>
        <mxCell id="nyVP8lf8nU9UiDjdo4iV-267" value="CanBeRevisedOffer" style="shape=partialRectangle;connectable=0;fillColor=none;top=0;left=0;bottom=0;right=0;align=left;spacingLeft=6;overflow=hidden;whiteSpace=wrap;html=1;" vertex="1" parent="nyVP8lf8nU9UiDjdo4iV-265">
          <mxGeometry x="30" width="150" height="30" as="geometry">
            <mxRectangle width="150" height="30" as="alternateBounds" />
          </mxGeometry>
        </mxCell>
        <mxCell id="nyVP8lf8nU9UiDjdo4iV-268" value="BIT" style="shape=partialRectangle;connectable=0;fillColor=none;top=0;left=0;bottom=0;right=0;align=left;spacingLeft=6;overflow=hidden;whiteSpace=wrap;html=1;" vertex="1" parent="nyVP8lf8nU9UiDjdo4iV-265">
          <mxGeometry x="180" width="73" height="30" as="geometry">
            <mxRectangle width="73" height="30" as="alternateBounds" />
          </mxGeometry>
        </mxCell>
        <mxCell id="nyVP8lf8nU9UiDjdo4iV-273" value="&lt;span style=&quot;font-weight: 400; text-wrap: wrap;&quot;&gt;MoneyOfferResponse&lt;/span&gt;" style="shape=table;startSize=30;container=1;collapsible=1;childLayout=tableLayout;fixedRows=1;rowLines=0;fontStyle=1;align=center;resizeLast=1;html=1;rounded=1;" vertex="1" parent="1">
          <mxGeometry x="-2061" y="-692" width="253" height="120" as="geometry" />
        </mxCell>
        <mxCell id="nyVP8lf8nU9UiDjdo4iV-274" value="" style="shape=tableRow;horizontal=0;startSize=0;swimlaneHead=0;swimlaneBody=0;fillColor=none;collapsible=0;dropTarget=0;points=[[0,0.5],[1,0.5]];portConstraint=eastwest;top=0;left=0;right=0;bottom=1;" vertex="1" parent="nyVP8lf8nU9UiDjdo4iV-273">
          <mxGeometry y="30" width="253" height="30" as="geometry" />
        </mxCell>
        <mxCell id="nyVP8lf8nU9UiDjdo4iV-275" value="PK" style="shape=partialRectangle;connectable=0;fillColor=none;top=0;left=0;bottom=0;right=0;fontStyle=1;overflow=hidden;whiteSpace=wrap;html=1;" vertex="1" parent="nyVP8lf8nU9UiDjdo4iV-274">
          <mxGeometry width="30" height="30" as="geometry">
            <mxRectangle width="30" height="30" as="alternateBounds" />
          </mxGeometry>
        </mxCell>
        <mxCell id="nyVP8lf8nU9UiDjdo4iV-276" value="MoneyOfferResponseId" style="shape=partialRectangle;connectable=0;fillColor=none;top=0;left=0;bottom=0;right=0;align=left;spacingLeft=6;fontStyle=5;overflow=hidden;whiteSpace=wrap;html=1;" vertex="1" parent="nyVP8lf8nU9UiDjdo4iV-274">
          <mxGeometry x="30" width="150" height="30" as="geometry">
            <mxRectangle width="150" height="30" as="alternateBounds" />
          </mxGeometry>
        </mxCell>
        <mxCell id="nyVP8lf8nU9UiDjdo4iV-277" value="INT" style="shape=partialRectangle;connectable=0;fillColor=none;top=0;left=0;bottom=0;right=0;align=left;spacingLeft=6;fontStyle=5;overflow=hidden;whiteSpace=wrap;html=1;" vertex="1" parent="nyVP8lf8nU9UiDjdo4iV-274">
          <mxGeometry x="180" width="73" height="30" as="geometry">
            <mxRectangle width="73" height="30" as="alternateBounds" />
          </mxGeometry>
        </mxCell>
        <mxCell id="nyVP8lf8nU9UiDjdo4iV-278" value="" style="shape=tableRow;horizontal=0;startSize=0;swimlaneHead=0;swimlaneBody=0;fillColor=none;collapsible=0;dropTarget=0;points=[[0,0.5],[1,0.5]];portConstraint=eastwest;top=0;left=0;right=0;bottom=0;" vertex="1" parent="nyVP8lf8nU9UiDjdo4iV-273">
          <mxGeometry y="60" width="253" height="30" as="geometry" />
        </mxCell>
        <mxCell id="nyVP8lf8nU9UiDjdo4iV-279" value="FK" style="shape=partialRectangle;connectable=0;fillColor=none;top=0;left=0;bottom=0;right=0;editable=1;overflow=hidden;whiteSpace=wrap;html=1;" vertex="1" parent="nyVP8lf8nU9UiDjdo4iV-278">
          <mxGeometry width="30" height="30" as="geometry">
            <mxRectangle width="30" height="30" as="alternateBounds" />
          </mxGeometry>
        </mxCell>
        <mxCell id="nyVP8lf8nU9UiDjdo4iV-280" value="MoneyOfferId" style="shape=partialRectangle;connectable=0;fillColor=none;top=0;left=0;bottom=0;right=0;align=left;spacingLeft=6;overflow=hidden;whiteSpace=wrap;html=1;" vertex="1" parent="nyVP8lf8nU9UiDjdo4iV-278">
          <mxGeometry x="30" width="150" height="30" as="geometry">
            <mxRectangle width="150" height="30" as="alternateBounds" />
          </mxGeometry>
        </mxCell>
        <mxCell id="nyVP8lf8nU9UiDjdo4iV-281" value="INT" style="shape=partialRectangle;connectable=0;fillColor=none;top=0;left=0;bottom=0;right=0;align=left;spacingLeft=6;overflow=hidden;whiteSpace=wrap;html=1;" vertex="1" parent="nyVP8lf8nU9UiDjdo4iV-278">
          <mxGeometry x="180" width="73" height="30" as="geometry">
            <mxRectangle width="73" height="30" as="alternateBounds" />
          </mxGeometry>
        </mxCell>
        <mxCell id="nyVP8lf8nU9UiDjdo4iV-282" style="shape=tableRow;horizontal=0;startSize=0;swimlaneHead=0;swimlaneBody=0;fillColor=none;collapsible=0;dropTarget=0;points=[[0,0.5],[1,0.5]];portConstraint=eastwest;top=0;left=0;right=0;bottom=0;" vertex="1" parent="nyVP8lf8nU9UiDjdo4iV-273">
          <mxGeometry y="90" width="253" height="30" as="geometry" />
        </mxCell>
        <mxCell id="nyVP8lf8nU9UiDjdo4iV-283" value="FK" style="shape=partialRectangle;connectable=0;fillColor=none;top=0;left=0;bottom=0;right=0;editable=1;overflow=hidden;whiteSpace=wrap;html=1;" vertex="1" parent="nyVP8lf8nU9UiDjdo4iV-282">
          <mxGeometry width="30" height="30" as="geometry">
            <mxRectangle width="30" height="30" as="alternateBounds" />
          </mxGeometry>
        </mxCell>
        <mxCell id="nyVP8lf8nU9UiDjdo4iV-284" value="ResponseId" style="shape=partialRectangle;connectable=0;fillColor=none;top=0;left=0;bottom=0;right=0;align=left;spacingLeft=6;overflow=hidden;whiteSpace=wrap;html=1;" vertex="1" parent="nyVP8lf8nU9UiDjdo4iV-282">
          <mxGeometry x="30" width="150" height="30" as="geometry">
            <mxRectangle width="150" height="30" as="alternateBounds" />
          </mxGeometry>
        </mxCell>
        <mxCell id="nyVP8lf8nU9UiDjdo4iV-285" value="INT" style="shape=partialRectangle;connectable=0;fillColor=none;top=0;left=0;bottom=0;right=0;align=left;spacingLeft=6;overflow=hidden;whiteSpace=wrap;html=1;" vertex="1" parent="nyVP8lf8nU9UiDjdo4iV-282">
          <mxGeometry x="180" width="73" height="30" as="geometry">
            <mxRectangle width="73" height="30" as="alternateBounds" />
          </mxGeometry>
        </mxCell>
        <mxCell id="nyVP8lf8nU9UiDjdo4iV-286" value="&lt;span style=&quot;font-weight: 400; text-wrap: wrap;&quot;&gt;ItemOffer&lt;/span&gt;" style="shape=table;startSize=30;container=1;collapsible=1;childLayout=tableLayout;fixedRows=1;rowLines=0;fontStyle=1;align=center;resizeLast=1;html=1;rounded=1;" vertex="1" parent="1">
          <mxGeometry x="-2411" y="-475" width="253" height="210" as="geometry" />
        </mxCell>
        <mxCell id="nyVP8lf8nU9UiDjdo4iV-287" value="" style="shape=tableRow;horizontal=0;startSize=0;swimlaneHead=0;swimlaneBody=0;fillColor=none;collapsible=0;dropTarget=0;points=[[0,0.5],[1,0.5]];portConstraint=eastwest;top=0;left=0;right=0;bottom=1;" vertex="1" parent="nyVP8lf8nU9UiDjdo4iV-286">
          <mxGeometry y="30" width="253" height="30" as="geometry" />
        </mxCell>
        <mxCell id="nyVP8lf8nU9UiDjdo4iV-288" value="PK" style="shape=partialRectangle;connectable=0;fillColor=none;top=0;left=0;bottom=0;right=0;fontStyle=1;overflow=hidden;whiteSpace=wrap;html=1;" vertex="1" parent="nyVP8lf8nU9UiDjdo4iV-287">
          <mxGeometry width="30" height="30" as="geometry">
            <mxRectangle width="30" height="30" as="alternateBounds" />
          </mxGeometry>
        </mxCell>
        <mxCell id="nyVP8lf8nU9UiDjdo4iV-289" value="ItemOfferId" style="shape=partialRectangle;connectable=0;fillColor=none;top=0;left=0;bottom=0;right=0;align=left;spacingLeft=6;fontStyle=5;overflow=hidden;whiteSpace=wrap;html=1;" vertex="1" parent="nyVP8lf8nU9UiDjdo4iV-287">
          <mxGeometry x="30" width="150" height="30" as="geometry">
            <mxRectangle width="150" height="30" as="alternateBounds" />
          </mxGeometry>
        </mxCell>
        <mxCell id="nyVP8lf8nU9UiDjdo4iV-290" value="INT" style="shape=partialRectangle;connectable=0;fillColor=none;top=0;left=0;bottom=0;right=0;align=left;spacingLeft=6;fontStyle=5;overflow=hidden;whiteSpace=wrap;html=1;" vertex="1" parent="nyVP8lf8nU9UiDjdo4iV-287">
          <mxGeometry x="180" width="73" height="30" as="geometry">
            <mxRectangle width="73" height="30" as="alternateBounds" />
          </mxGeometry>
        </mxCell>
        <mxCell id="nyVP8lf8nU9UiDjdo4iV-291" value="" style="shape=tableRow;horizontal=0;startSize=0;swimlaneHead=0;swimlaneBody=0;fillColor=none;collapsible=0;dropTarget=0;points=[[0,0.5],[1,0.5]];portConstraint=eastwest;top=0;left=0;right=0;bottom=0;" vertex="1" parent="nyVP8lf8nU9UiDjdo4iV-286">
          <mxGeometry y="60" width="253" height="30" as="geometry" />
        </mxCell>
        <mxCell id="nyVP8lf8nU9UiDjdo4iV-292" value="FK" style="shape=partialRectangle;connectable=0;fillColor=none;top=0;left=0;bottom=0;right=0;editable=1;overflow=hidden;whiteSpace=wrap;html=1;" vertex="1" parent="nyVP8lf8nU9UiDjdo4iV-291">
          <mxGeometry width="30" height="30" as="geometry">
            <mxRectangle width="30" height="30" as="alternateBounds" />
          </mxGeometry>
        </mxCell>
        <mxCell id="nyVP8lf8nU9UiDjdo4iV-293" value="ScriptLineId" style="shape=partialRectangle;connectable=0;fillColor=none;top=0;left=0;bottom=0;right=0;align=left;spacingLeft=6;overflow=hidden;whiteSpace=wrap;html=1;" vertex="1" parent="nyVP8lf8nU9UiDjdo4iV-291">
          <mxGeometry x="30" width="150" height="30" as="geometry">
            <mxRectangle width="150" height="30" as="alternateBounds" />
          </mxGeometry>
        </mxCell>
        <mxCell id="nyVP8lf8nU9UiDjdo4iV-294" value="INT" style="shape=partialRectangle;connectable=0;fillColor=none;top=0;left=0;bottom=0;right=0;align=left;spacingLeft=6;overflow=hidden;whiteSpace=wrap;html=1;" vertex="1" parent="nyVP8lf8nU9UiDjdo4iV-291">
          <mxGeometry x="180" width="73" height="30" as="geometry">
            <mxRectangle width="73" height="30" as="alternateBounds" />
          </mxGeometry>
        </mxCell>
        <mxCell id="nyVP8lf8nU9UiDjdo4iV-295" style="shape=tableRow;horizontal=0;startSize=0;swimlaneHead=0;swimlaneBody=0;fillColor=none;collapsible=0;dropTarget=0;points=[[0,0.5],[1,0.5]];portConstraint=eastwest;top=0;left=0;right=0;bottom=0;" vertex="1" parent="nyVP8lf8nU9UiDjdo4iV-286">
          <mxGeometry y="90" width="253" height="30" as="geometry" />
        </mxCell>
        <mxCell id="nyVP8lf8nU9UiDjdo4iV-296" value="FK" style="shape=partialRectangle;connectable=0;fillColor=none;top=0;left=0;bottom=0;right=0;editable=1;overflow=hidden;whiteSpace=wrap;html=1;" vertex="1" parent="nyVP8lf8nU9UiDjdo4iV-295">
          <mxGeometry width="30" height="30" as="geometry">
            <mxRectangle width="30" height="30" as="alternateBounds" />
          </mxGeometry>
        </mxCell>
        <mxCell id="nyVP8lf8nU9UiDjdo4iV-297" value="EntityTypeId" style="shape=partialRectangle;connectable=0;fillColor=none;top=0;left=0;bottom=0;right=0;align=left;spacingLeft=6;overflow=hidden;whiteSpace=wrap;html=1;" vertex="1" parent="nyVP8lf8nU9UiDjdo4iV-295">
          <mxGeometry x="30" width="150" height="30" as="geometry">
            <mxRectangle width="150" height="30" as="alternateBounds" />
          </mxGeometry>
        </mxCell>
        <mxCell id="nyVP8lf8nU9UiDjdo4iV-298" value="INT" style="shape=partialRectangle;connectable=0;fillColor=none;top=0;left=0;bottom=0;right=0;align=left;spacingLeft=6;overflow=hidden;whiteSpace=wrap;html=1;" vertex="1" parent="nyVP8lf8nU9UiDjdo4iV-295">
          <mxGeometry x="180" width="73" height="30" as="geometry">
            <mxRectangle width="73" height="30" as="alternateBounds" />
          </mxGeometry>
        </mxCell>
        <mxCell id="nyVP8lf8nU9UiDjdo4iV-299" style="shape=tableRow;horizontal=0;startSize=0;swimlaneHead=0;swimlaneBody=0;fillColor=none;collapsible=0;dropTarget=0;points=[[0,0.5],[1,0.5]];portConstraint=eastwest;top=0;left=0;right=0;bottom=0;" vertex="1" parent="nyVP8lf8nU9UiDjdo4iV-286">
          <mxGeometry y="120" width="253" height="30" as="geometry" />
        </mxCell>
        <mxCell id="nyVP8lf8nU9UiDjdo4iV-300" value="FK" style="shape=partialRectangle;connectable=0;fillColor=none;top=0;left=0;bottom=0;right=0;editable=1;overflow=hidden;whiteSpace=wrap;html=1;" vertex="1" parent="nyVP8lf8nU9UiDjdo4iV-299">
          <mxGeometry width="30" height="30" as="geometry">
            <mxRectangle width="30" height="30" as="alternateBounds" />
          </mxGeometry>
        </mxCell>
        <mxCell id="nyVP8lf8nU9UiDjdo4iV-301" value="PersonalityId" style="shape=partialRectangle;connectable=0;fillColor=none;top=0;left=0;bottom=0;right=0;align=left;spacingLeft=6;overflow=hidden;whiteSpace=wrap;html=1;" vertex="1" parent="nyVP8lf8nU9UiDjdo4iV-299">
          <mxGeometry x="30" width="150" height="30" as="geometry">
            <mxRectangle width="150" height="30" as="alternateBounds" />
          </mxGeometry>
        </mxCell>
        <mxCell id="nyVP8lf8nU9UiDjdo4iV-302" value="INT" style="shape=partialRectangle;connectable=0;fillColor=none;top=0;left=0;bottom=0;right=0;align=left;spacingLeft=6;overflow=hidden;whiteSpace=wrap;html=1;" vertex="1" parent="nyVP8lf8nU9UiDjdo4iV-299">
          <mxGeometry x="180" width="73" height="30" as="geometry">
            <mxRectangle width="73" height="30" as="alternateBounds" />
          </mxGeometry>
        </mxCell>
        <mxCell id="nyVP8lf8nU9UiDjdo4iV-303" style="shape=tableRow;horizontal=0;startSize=0;swimlaneHead=0;swimlaneBody=0;fillColor=none;collapsible=0;dropTarget=0;points=[[0,0.5],[1,0.5]];portConstraint=eastwest;top=0;left=0;right=0;bottom=0;" vertex="1" parent="nyVP8lf8nU9UiDjdo4iV-286">
          <mxGeometry y="150" width="253" height="30" as="geometry" />
        </mxCell>
        <mxCell id="nyVP8lf8nU9UiDjdo4iV-304" style="shape=partialRectangle;connectable=0;fillColor=none;top=0;left=0;bottom=0;right=0;editable=1;overflow=hidden;whiteSpace=wrap;html=1;" vertex="1" parent="nyVP8lf8nU9UiDjdo4iV-303">
          <mxGeometry width="30" height="30" as="geometry">
            <mxRectangle width="30" height="30" as="alternateBounds" />
          </mxGeometry>
        </mxCell>
        <mxCell id="nyVP8lf8nU9UiDjdo4iV-305" value="CanBeInitialOffer" style="shape=partialRectangle;connectable=0;fillColor=none;top=0;left=0;bottom=0;right=0;align=left;spacingLeft=6;overflow=hidden;whiteSpace=wrap;html=1;" vertex="1" parent="nyVP8lf8nU9UiDjdo4iV-303">
          <mxGeometry x="30" width="150" height="30" as="geometry">
            <mxRectangle width="150" height="30" as="alternateBounds" />
          </mxGeometry>
        </mxCell>
        <mxCell id="nyVP8lf8nU9UiDjdo4iV-306" value="BIT" style="shape=partialRectangle;connectable=0;fillColor=none;top=0;left=0;bottom=0;right=0;align=left;spacingLeft=6;overflow=hidden;whiteSpace=wrap;html=1;" vertex="1" parent="nyVP8lf8nU9UiDjdo4iV-303">
          <mxGeometry x="180" width="73" height="30" as="geometry">
            <mxRectangle width="73" height="30" as="alternateBounds" />
          </mxGeometry>
        </mxCell>
        <mxCell id="nyVP8lf8nU9UiDjdo4iV-307" style="shape=tableRow;horizontal=0;startSize=0;swimlaneHead=0;swimlaneBody=0;fillColor=none;collapsible=0;dropTarget=0;points=[[0,0.5],[1,0.5]];portConstraint=eastwest;top=0;left=0;right=0;bottom=0;" vertex="1" parent="nyVP8lf8nU9UiDjdo4iV-286">
          <mxGeometry y="180" width="253" height="30" as="geometry" />
        </mxCell>
        <mxCell id="nyVP8lf8nU9UiDjdo4iV-308" style="shape=partialRectangle;connectable=0;fillColor=none;top=0;left=0;bottom=0;right=0;editable=1;overflow=hidden;whiteSpace=wrap;html=1;" vertex="1" parent="nyVP8lf8nU9UiDjdo4iV-307">
          <mxGeometry width="30" height="30" as="geometry">
            <mxRectangle width="30" height="30" as="alternateBounds" />
          </mxGeometry>
        </mxCell>
        <mxCell id="nyVP8lf8nU9UiDjdo4iV-309" value="CanBeRevisedOffer" style="shape=partialRectangle;connectable=0;fillColor=none;top=0;left=0;bottom=0;right=0;align=left;spacingLeft=6;overflow=hidden;whiteSpace=wrap;html=1;" vertex="1" parent="nyVP8lf8nU9UiDjdo4iV-307">
          <mxGeometry x="30" width="150" height="30" as="geometry">
            <mxRectangle width="150" height="30" as="alternateBounds" />
          </mxGeometry>
        </mxCell>
        <mxCell id="nyVP8lf8nU9UiDjdo4iV-310" value="BIT" style="shape=partialRectangle;connectable=0;fillColor=none;top=0;left=0;bottom=0;right=0;align=left;spacingLeft=6;overflow=hidden;whiteSpace=wrap;html=1;" vertex="1" parent="nyVP8lf8nU9UiDjdo4iV-307">
          <mxGeometry x="180" width="73" height="30" as="geometry">
            <mxRectangle width="73" height="30" as="alternateBounds" />
          </mxGeometry>
        </mxCell>
        <mxCell id="nyVP8lf8nU9UiDjdo4iV-311" value="&lt;span style=&quot;font-weight: 400; text-wrap: wrap;&quot;&gt;ItemOfferResponse&lt;/span&gt;" style="shape=table;startSize=30;container=1;collapsible=1;childLayout=tableLayout;fixedRows=1;rowLines=0;fontStyle=1;align=center;resizeLast=1;html=1;rounded=1;" vertex="1" parent="1">
          <mxGeometry x="-2040" y="-421" width="253" height="120" as="geometry" />
        </mxCell>
        <mxCell id="nyVP8lf8nU9UiDjdo4iV-312" value="" style="shape=tableRow;horizontal=0;startSize=0;swimlaneHead=0;swimlaneBody=0;fillColor=none;collapsible=0;dropTarget=0;points=[[0,0.5],[1,0.5]];portConstraint=eastwest;top=0;left=0;right=0;bottom=1;" vertex="1" parent="nyVP8lf8nU9UiDjdo4iV-311">
          <mxGeometry y="30" width="253" height="30" as="geometry" />
        </mxCell>
        <mxCell id="nyVP8lf8nU9UiDjdo4iV-313" value="PK" style="shape=partialRectangle;connectable=0;fillColor=none;top=0;left=0;bottom=0;right=0;fontStyle=1;overflow=hidden;whiteSpace=wrap;html=1;" vertex="1" parent="nyVP8lf8nU9UiDjdo4iV-312">
          <mxGeometry width="30" height="30" as="geometry">
            <mxRectangle width="30" height="30" as="alternateBounds" />
          </mxGeometry>
        </mxCell>
        <mxCell id="nyVP8lf8nU9UiDjdo4iV-314" value="ItemOfferResponseId" style="shape=partialRectangle;connectable=0;fillColor=none;top=0;left=0;bottom=0;right=0;align=left;spacingLeft=6;fontStyle=5;overflow=hidden;whiteSpace=wrap;html=1;" vertex="1" parent="nyVP8lf8nU9UiDjdo4iV-312">
          <mxGeometry x="30" width="150" height="30" as="geometry">
            <mxRectangle width="150" height="30" as="alternateBounds" />
          </mxGeometry>
        </mxCell>
        <mxCell id="nyVP8lf8nU9UiDjdo4iV-315" value="INT" style="shape=partialRectangle;connectable=0;fillColor=none;top=0;left=0;bottom=0;right=0;align=left;spacingLeft=6;fontStyle=5;overflow=hidden;whiteSpace=wrap;html=1;" vertex="1" parent="nyVP8lf8nU9UiDjdo4iV-312">
          <mxGeometry x="180" width="73" height="30" as="geometry">
            <mxRectangle width="73" height="30" as="alternateBounds" />
          </mxGeometry>
        </mxCell>
        <mxCell id="nyVP8lf8nU9UiDjdo4iV-316" value="" style="shape=tableRow;horizontal=0;startSize=0;swimlaneHead=0;swimlaneBody=0;fillColor=none;collapsible=0;dropTarget=0;points=[[0,0.5],[1,0.5]];portConstraint=eastwest;top=0;left=0;right=0;bottom=0;" vertex="1" parent="nyVP8lf8nU9UiDjdo4iV-311">
          <mxGeometry y="60" width="253" height="30" as="geometry" />
        </mxCell>
        <mxCell id="nyVP8lf8nU9UiDjdo4iV-317" value="FK" style="shape=partialRectangle;connectable=0;fillColor=none;top=0;left=0;bottom=0;right=0;editable=1;overflow=hidden;whiteSpace=wrap;html=1;" vertex="1" parent="nyVP8lf8nU9UiDjdo4iV-316">
          <mxGeometry width="30" height="30" as="geometry">
            <mxRectangle width="30" height="30" as="alternateBounds" />
          </mxGeometry>
        </mxCell>
        <mxCell id="nyVP8lf8nU9UiDjdo4iV-318" value="ItemOfferId" style="shape=partialRectangle;connectable=0;fillColor=none;top=0;left=0;bottom=0;right=0;align=left;spacingLeft=6;overflow=hidden;whiteSpace=wrap;html=1;" vertex="1" parent="nyVP8lf8nU9UiDjdo4iV-316">
          <mxGeometry x="30" width="150" height="30" as="geometry">
            <mxRectangle width="150" height="30" as="alternateBounds" />
          </mxGeometry>
        </mxCell>
        <mxCell id="nyVP8lf8nU9UiDjdo4iV-319" value="INT" style="shape=partialRectangle;connectable=0;fillColor=none;top=0;left=0;bottom=0;right=0;align=left;spacingLeft=6;overflow=hidden;whiteSpace=wrap;html=1;" vertex="1" parent="nyVP8lf8nU9UiDjdo4iV-316">
          <mxGeometry x="180" width="73" height="30" as="geometry">
            <mxRectangle width="73" height="30" as="alternateBounds" />
          </mxGeometry>
        </mxCell>
        <mxCell id="nyVP8lf8nU9UiDjdo4iV-320" style="shape=tableRow;horizontal=0;startSize=0;swimlaneHead=0;swimlaneBody=0;fillColor=none;collapsible=0;dropTarget=0;points=[[0,0.5],[1,0.5]];portConstraint=eastwest;top=0;left=0;right=0;bottom=0;" vertex="1" parent="nyVP8lf8nU9UiDjdo4iV-311">
          <mxGeometry y="90" width="253" height="30" as="geometry" />
        </mxCell>
        <mxCell id="nyVP8lf8nU9UiDjdo4iV-321" value="FK" style="shape=partialRectangle;connectable=0;fillColor=none;top=0;left=0;bottom=0;right=0;editable=1;overflow=hidden;whiteSpace=wrap;html=1;" vertex="1" parent="nyVP8lf8nU9UiDjdo4iV-320">
          <mxGeometry width="30" height="30" as="geometry">
            <mxRectangle width="30" height="30" as="alternateBounds" />
          </mxGeometry>
        </mxCell>
        <mxCell id="nyVP8lf8nU9UiDjdo4iV-322" value="ResponseId" style="shape=partialRectangle;connectable=0;fillColor=none;top=0;left=0;bottom=0;right=0;align=left;spacingLeft=6;overflow=hidden;whiteSpace=wrap;html=1;" vertex="1" parent="nyVP8lf8nU9UiDjdo4iV-320">
          <mxGeometry x="30" width="150" height="30" as="geometry">
            <mxRectangle width="150" height="30" as="alternateBounds" />
          </mxGeometry>
        </mxCell>
        <mxCell id="nyVP8lf8nU9UiDjdo4iV-323" value="INT" style="shape=partialRectangle;connectable=0;fillColor=none;top=0;left=0;bottom=0;right=0;align=left;spacingLeft=6;overflow=hidden;whiteSpace=wrap;html=1;" vertex="1" parent="nyVP8lf8nU9UiDjdo4iV-320">
          <mxGeometry x="180" width="73" height="30" as="geometry">
            <mxRectangle width="73" height="30" as="alternateBounds" />
          </mxGeometry>
        </mxCell>
        <mxCell id="nyVP8lf8nU9UiDjdo4iV-324" value="&lt;span style=&quot;font-weight: 400; text-wrap: wrap;&quot;&gt;PowerPrompt&lt;/span&gt;" style="shape=table;startSize=30;container=1;collapsible=1;childLayout=tableLayout;fixedRows=1;rowLines=0;fontStyle=1;align=center;resizeLast=1;html=1;rounded=1;" vertex="1" parent="1">
          <mxGeometry x="-2411" y="-215" width="253" height="180" as="geometry" />
        </mxCell>
        <mxCell id="nyVP8lf8nU9UiDjdo4iV-325" value="" style="shape=tableRow;horizontal=0;startSize=0;swimlaneHead=0;swimlaneBody=0;fillColor=none;collapsible=0;dropTarget=0;points=[[0,0.5],[1,0.5]];portConstraint=eastwest;top=0;left=0;right=0;bottom=1;" vertex="1" parent="nyVP8lf8nU9UiDjdo4iV-324">
          <mxGeometry y="30" width="253" height="30" as="geometry" />
        </mxCell>
        <mxCell id="nyVP8lf8nU9UiDjdo4iV-326" value="PK" style="shape=partialRectangle;connectable=0;fillColor=none;top=0;left=0;bottom=0;right=0;fontStyle=1;overflow=hidden;whiteSpace=wrap;html=1;" vertex="1" parent="nyVP8lf8nU9UiDjdo4iV-325">
          <mxGeometry width="30" height="30" as="geometry">
            <mxRectangle width="30" height="30" as="alternateBounds" />
          </mxGeometry>
        </mxCell>
        <mxCell id="nyVP8lf8nU9UiDjdo4iV-327" value="PowerPromptId" style="shape=partialRectangle;connectable=0;fillColor=none;top=0;left=0;bottom=0;right=0;align=left;spacingLeft=6;fontStyle=5;overflow=hidden;whiteSpace=wrap;html=1;" vertex="1" parent="nyVP8lf8nU9UiDjdo4iV-325">
          <mxGeometry x="30" width="150" height="30" as="geometry">
            <mxRectangle width="150" height="30" as="alternateBounds" />
          </mxGeometry>
        </mxCell>
        <mxCell id="nyVP8lf8nU9UiDjdo4iV-328" value="INT" style="shape=partialRectangle;connectable=0;fillColor=none;top=0;left=0;bottom=0;right=0;align=left;spacingLeft=6;fontStyle=5;overflow=hidden;whiteSpace=wrap;html=1;" vertex="1" parent="nyVP8lf8nU9UiDjdo4iV-325">
          <mxGeometry x="180" width="73" height="30" as="geometry">
            <mxRectangle width="73" height="30" as="alternateBounds" />
          </mxGeometry>
        </mxCell>
        <mxCell id="nyVP8lf8nU9UiDjdo4iV-329" value="" style="shape=tableRow;horizontal=0;startSize=0;swimlaneHead=0;swimlaneBody=0;fillColor=none;collapsible=0;dropTarget=0;points=[[0,0.5],[1,0.5]];portConstraint=eastwest;top=0;left=0;right=0;bottom=0;" vertex="1" parent="nyVP8lf8nU9UiDjdo4iV-324">
          <mxGeometry y="60" width="253" height="30" as="geometry" />
        </mxCell>
        <mxCell id="nyVP8lf8nU9UiDjdo4iV-330" value="FK" style="shape=partialRectangle;connectable=0;fillColor=none;top=0;left=0;bottom=0;right=0;editable=1;overflow=hidden;whiteSpace=wrap;html=1;" vertex="1" parent="nyVP8lf8nU9UiDjdo4iV-329">
          <mxGeometry width="30" height="30" as="geometry">
            <mxRectangle width="30" height="30" as="alternateBounds" />
          </mxGeometry>
        </mxCell>
        <mxCell id="nyVP8lf8nU9UiDjdo4iV-331" value="ScriptLineId" style="shape=partialRectangle;connectable=0;fillColor=none;top=0;left=0;bottom=0;right=0;align=left;spacingLeft=6;overflow=hidden;whiteSpace=wrap;html=1;" vertex="1" parent="nyVP8lf8nU9UiDjdo4iV-329">
          <mxGeometry x="30" width="150" height="30" as="geometry">
            <mxRectangle width="150" height="30" as="alternateBounds" />
          </mxGeometry>
        </mxCell>
        <mxCell id="nyVP8lf8nU9UiDjdo4iV-332" value="INT" style="shape=partialRectangle;connectable=0;fillColor=none;top=0;left=0;bottom=0;right=0;align=left;spacingLeft=6;overflow=hidden;whiteSpace=wrap;html=1;" vertex="1" parent="nyVP8lf8nU9UiDjdo4iV-329">
          <mxGeometry x="180" width="73" height="30" as="geometry">
            <mxRectangle width="73" height="30" as="alternateBounds" />
          </mxGeometry>
        </mxCell>
        <mxCell id="nyVP8lf8nU9UiDjdo4iV-333" style="shape=tableRow;horizontal=0;startSize=0;swimlaneHead=0;swimlaneBody=0;fillColor=none;collapsible=0;dropTarget=0;points=[[0,0.5],[1,0.5]];portConstraint=eastwest;top=0;left=0;right=0;bottom=0;" vertex="1" parent="nyVP8lf8nU9UiDjdo4iV-324">
          <mxGeometry y="90" width="253" height="30" as="geometry" />
        </mxCell>
        <mxCell id="nyVP8lf8nU9UiDjdo4iV-334" value="FK" style="shape=partialRectangle;connectable=0;fillColor=none;top=0;left=0;bottom=0;right=0;editable=1;overflow=hidden;whiteSpace=wrap;html=1;" vertex="1" parent="nyVP8lf8nU9UiDjdo4iV-333">
          <mxGeometry width="30" height="30" as="geometry">
            <mxRectangle width="30" height="30" as="alternateBounds" />
          </mxGeometry>
        </mxCell>
        <mxCell id="nyVP8lf8nU9UiDjdo4iV-335" value="EntityTypeId" style="shape=partialRectangle;connectable=0;fillColor=none;top=0;left=0;bottom=0;right=0;align=left;spacingLeft=6;overflow=hidden;whiteSpace=wrap;html=1;" vertex="1" parent="nyVP8lf8nU9UiDjdo4iV-333">
          <mxGeometry x="30" width="150" height="30" as="geometry">
            <mxRectangle width="150" height="30" as="alternateBounds" />
          </mxGeometry>
        </mxCell>
        <mxCell id="nyVP8lf8nU9UiDjdo4iV-336" value="INT" style="shape=partialRectangle;connectable=0;fillColor=none;top=0;left=0;bottom=0;right=0;align=left;spacingLeft=6;overflow=hidden;whiteSpace=wrap;html=1;" vertex="1" parent="nyVP8lf8nU9UiDjdo4iV-333">
          <mxGeometry x="180" width="73" height="30" as="geometry">
            <mxRectangle width="73" height="30" as="alternateBounds" />
          </mxGeometry>
        </mxCell>
        <mxCell id="nyVP8lf8nU9UiDjdo4iV-337" style="shape=tableRow;horizontal=0;startSize=0;swimlaneHead=0;swimlaneBody=0;fillColor=none;collapsible=0;dropTarget=0;points=[[0,0.5],[1,0.5]];portConstraint=eastwest;top=0;left=0;right=0;bottom=0;" vertex="1" parent="nyVP8lf8nU9UiDjdo4iV-324">
          <mxGeometry y="120" width="253" height="30" as="geometry" />
        </mxCell>
        <mxCell id="nyVP8lf8nU9UiDjdo4iV-338" value="FK" style="shape=partialRectangle;connectable=0;fillColor=none;top=0;left=0;bottom=0;right=0;editable=1;overflow=hidden;whiteSpace=wrap;html=1;" vertex="1" parent="nyVP8lf8nU9UiDjdo4iV-337">
          <mxGeometry width="30" height="30" as="geometry">
            <mxRectangle width="30" height="30" as="alternateBounds" />
          </mxGeometry>
        </mxCell>
        <mxCell id="nyVP8lf8nU9UiDjdo4iV-339" value="PersonalityId" style="shape=partialRectangle;connectable=0;fillColor=none;top=0;left=0;bottom=0;right=0;align=left;spacingLeft=6;overflow=hidden;whiteSpace=wrap;html=1;" vertex="1" parent="nyVP8lf8nU9UiDjdo4iV-337">
          <mxGeometry x="30" width="150" height="30" as="geometry">
            <mxRectangle width="150" height="30" as="alternateBounds" />
          </mxGeometry>
        </mxCell>
        <mxCell id="nyVP8lf8nU9UiDjdo4iV-340" value="INT" style="shape=partialRectangle;connectable=0;fillColor=none;top=0;left=0;bottom=0;right=0;align=left;spacingLeft=6;overflow=hidden;whiteSpace=wrap;html=1;" vertex="1" parent="nyVP8lf8nU9UiDjdo4iV-337">
          <mxGeometry x="180" width="73" height="30" as="geometry">
            <mxRectangle width="73" height="30" as="alternateBounds" />
          </mxGeometry>
        </mxCell>
        <mxCell id="nyVP8lf8nU9UiDjdo4iV-341" style="shape=tableRow;horizontal=0;startSize=0;swimlaneHead=0;swimlaneBody=0;fillColor=none;collapsible=0;dropTarget=0;points=[[0,0.5],[1,0.5]];portConstraint=eastwest;top=0;left=0;right=0;bottom=0;" vertex="1" parent="nyVP8lf8nU9UiDjdo4iV-324">
          <mxGeometry y="150" width="253" height="30" as="geometry" />
        </mxCell>
        <mxCell id="nyVP8lf8nU9UiDjdo4iV-342" style="shape=partialRectangle;connectable=0;fillColor=none;top=0;left=0;bottom=0;right=0;editable=1;overflow=hidden;whiteSpace=wrap;html=1;" vertex="1" parent="nyVP8lf8nU9UiDjdo4iV-341">
          <mxGeometry width="30" height="30" as="geometry">
            <mxRectangle width="30" height="30" as="alternateBounds" />
          </mxGeometry>
        </mxCell>
        <mxCell id="nyVP8lf8nU9UiDjdo4iV-343" value="IsRootPrompt" style="shape=partialRectangle;connectable=0;fillColor=none;top=0;left=0;bottom=0;right=0;align=left;spacingLeft=6;overflow=hidden;whiteSpace=wrap;html=1;" vertex="1" parent="nyVP8lf8nU9UiDjdo4iV-341">
          <mxGeometry x="30" width="150" height="30" as="geometry">
            <mxRectangle width="150" height="30" as="alternateBounds" />
          </mxGeometry>
        </mxCell>
        <mxCell id="nyVP8lf8nU9UiDjdo4iV-344" value="BIT" style="shape=partialRectangle;connectable=0;fillColor=none;top=0;left=0;bottom=0;right=0;align=left;spacingLeft=6;overflow=hidden;whiteSpace=wrap;html=1;" vertex="1" parent="nyVP8lf8nU9UiDjdo4iV-341">
          <mxGeometry x="180" width="73" height="30" as="geometry">
            <mxRectangle width="73" height="30" as="alternateBounds" />
          </mxGeometry>
        </mxCell>
        <mxCell id="nyVP8lf8nU9UiDjdo4iV-349" value="&lt;span style=&quot;font-weight: 400; text-wrap: wrap;&quot;&gt;PowerPromptResponse&lt;/span&gt;" style="shape=table;startSize=30;container=1;collapsible=1;childLayout=tableLayout;fixedRows=1;rowLines=0;fontStyle=1;align=center;resizeLast=1;html=1;rounded=1;" vertex="1" parent="1">
          <mxGeometry x="-2031" y="-237" width="276" height="270" as="geometry" />
        </mxCell>
        <mxCell id="nyVP8lf8nU9UiDjdo4iV-350" value="" style="shape=tableRow;horizontal=0;startSize=0;swimlaneHead=0;swimlaneBody=0;fillColor=none;collapsible=0;dropTarget=0;points=[[0,0.5],[1,0.5]];portConstraint=eastwest;top=0;left=0;right=0;bottom=1;" vertex="1" parent="nyVP8lf8nU9UiDjdo4iV-349">
          <mxGeometry y="30" width="276" height="30" as="geometry" />
        </mxCell>
        <mxCell id="nyVP8lf8nU9UiDjdo4iV-351" value="PK" style="shape=partialRectangle;connectable=0;fillColor=none;top=0;left=0;bottom=0;right=0;fontStyle=1;overflow=hidden;whiteSpace=wrap;html=1;" vertex="1" parent="nyVP8lf8nU9UiDjdo4iV-350">
          <mxGeometry width="30" height="30" as="geometry">
            <mxRectangle width="30" height="30" as="alternateBounds" />
          </mxGeometry>
        </mxCell>
        <mxCell id="nyVP8lf8nU9UiDjdo4iV-352" value="PowerPromptResponseId" style="shape=partialRectangle;connectable=0;fillColor=none;top=0;left=0;bottom=0;right=0;align=left;spacingLeft=6;fontStyle=5;overflow=hidden;whiteSpace=wrap;html=1;" vertex="1" parent="nyVP8lf8nU9UiDjdo4iV-350">
          <mxGeometry x="30" width="171.4583333333336" height="30" as="geometry">
            <mxRectangle width="171.4583333333336" height="30" as="alternateBounds" />
          </mxGeometry>
        </mxCell>
        <mxCell id="nyVP8lf8nU9UiDjdo4iV-353" value="INT" style="shape=partialRectangle;connectable=0;fillColor=none;top=0;left=0;bottom=0;right=0;align=left;spacingLeft=6;fontStyle=5;overflow=hidden;whiteSpace=wrap;html=1;" vertex="1" parent="nyVP8lf8nU9UiDjdo4iV-350">
          <mxGeometry x="201.4583333333336" width="74.5416666666664" height="30" as="geometry">
            <mxRectangle width="74.5416666666664" height="30" as="alternateBounds" />
          </mxGeometry>
        </mxCell>
        <mxCell id="nyVP8lf8nU9UiDjdo4iV-354" value="" style="shape=tableRow;horizontal=0;startSize=0;swimlaneHead=0;swimlaneBody=0;fillColor=none;collapsible=0;dropTarget=0;points=[[0,0.5],[1,0.5]];portConstraint=eastwest;top=0;left=0;right=0;bottom=0;" vertex="1" parent="nyVP8lf8nU9UiDjdo4iV-349">
          <mxGeometry y="60" width="276" height="30" as="geometry" />
        </mxCell>
        <mxCell id="nyVP8lf8nU9UiDjdo4iV-355" value="FK" style="shape=partialRectangle;connectable=0;fillColor=none;top=0;left=0;bottom=0;right=0;editable=1;overflow=hidden;whiteSpace=wrap;html=1;" vertex="1" parent="nyVP8lf8nU9UiDjdo4iV-354">
          <mxGeometry width="30" height="30" as="geometry">
            <mxRectangle width="30" height="30" as="alternateBounds" />
          </mxGeometry>
        </mxCell>
        <mxCell id="nyVP8lf8nU9UiDjdo4iV-356" value="PowerPromptId" style="shape=partialRectangle;connectable=0;fillColor=none;top=0;left=0;bottom=0;right=0;align=left;spacingLeft=6;overflow=hidden;whiteSpace=wrap;html=1;" vertex="1" parent="nyVP8lf8nU9UiDjdo4iV-354">
          <mxGeometry x="30" width="171.4583333333336" height="30" as="geometry">
            <mxRectangle width="171.4583333333336" height="30" as="alternateBounds" />
          </mxGeometry>
        </mxCell>
        <mxCell id="nyVP8lf8nU9UiDjdo4iV-357" value="INT" style="shape=partialRectangle;connectable=0;fillColor=none;top=0;left=0;bottom=0;right=0;align=left;spacingLeft=6;overflow=hidden;whiteSpace=wrap;html=1;" vertex="1" parent="nyVP8lf8nU9UiDjdo4iV-354">
          <mxGeometry x="201.4583333333336" width="74.5416666666664" height="30" as="geometry">
            <mxRectangle width="74.5416666666664" height="30" as="alternateBounds" />
          </mxGeometry>
        </mxCell>
        <mxCell id="nyVP8lf8nU9UiDjdo4iV-358" style="shape=tableRow;horizontal=0;startSize=0;swimlaneHead=0;swimlaneBody=0;fillColor=none;collapsible=0;dropTarget=0;points=[[0,0.5],[1,0.5]];portConstraint=eastwest;top=0;left=0;right=0;bottom=0;" vertex="1" parent="nyVP8lf8nU9UiDjdo4iV-349">
          <mxGeometry y="90" width="276" height="30" as="geometry" />
        </mxCell>
        <mxCell id="nyVP8lf8nU9UiDjdo4iV-359" value="FK" style="shape=partialRectangle;connectable=0;fillColor=none;top=0;left=0;bottom=0;right=0;editable=1;overflow=hidden;whiteSpace=wrap;html=1;" vertex="1" parent="nyVP8lf8nU9UiDjdo4iV-358">
          <mxGeometry width="30" height="30" as="geometry">
            <mxRectangle width="30" height="30" as="alternateBounds" />
          </mxGeometry>
        </mxCell>
        <mxCell id="nyVP8lf8nU9UiDjdo4iV-360" value="ResponseId" style="shape=partialRectangle;connectable=0;fillColor=none;top=0;left=0;bottom=0;right=0;align=left;spacingLeft=6;overflow=hidden;whiteSpace=wrap;html=1;" vertex="1" parent="nyVP8lf8nU9UiDjdo4iV-358">
          <mxGeometry x="30" width="171.4583333333336" height="30" as="geometry">
            <mxRectangle width="171.4583333333336" height="30" as="alternateBounds" />
          </mxGeometry>
        </mxCell>
        <mxCell id="nyVP8lf8nU9UiDjdo4iV-361" value="INT" style="shape=partialRectangle;connectable=0;fillColor=none;top=0;left=0;bottom=0;right=0;align=left;spacingLeft=6;overflow=hidden;whiteSpace=wrap;html=1;" vertex="1" parent="nyVP8lf8nU9UiDjdo4iV-358">
          <mxGeometry x="201.4583333333336" width="74.5416666666664" height="30" as="geometry">
            <mxRectangle width="74.5416666666664" height="30" as="alternateBounds" />
          </mxGeometry>
        </mxCell>
        <mxCell id="nyVP8lf8nU9UiDjdo4iV-362" style="shape=tableRow;horizontal=0;startSize=0;swimlaneHead=0;swimlaneBody=0;fillColor=none;collapsible=0;dropTarget=0;points=[[0,0.5],[1,0.5]];portConstraint=eastwest;top=0;left=0;right=0;bottom=0;" vertex="1" parent="nyVP8lf8nU9UiDjdo4iV-349">
          <mxGeometry y="120" width="276" height="30" as="geometry" />
        </mxCell>
        <mxCell id="nyVP8lf8nU9UiDjdo4iV-363" value="" style="shape=partialRectangle;connectable=0;fillColor=none;top=0;left=0;bottom=0;right=0;editable=1;overflow=hidden;whiteSpace=wrap;html=1;" vertex="1" parent="nyVP8lf8nU9UiDjdo4iV-362">
          <mxGeometry width="30" height="30" as="geometry">
            <mxRectangle width="30" height="30" as="alternateBounds" />
          </mxGeometry>
        </mxCell>
        <mxCell id="nyVP8lf8nU9UiDjdo4iV-364" value="SuccessRate" style="shape=partialRectangle;connectable=0;fillColor=none;top=0;left=0;bottom=0;right=0;align=left;spacingLeft=6;overflow=hidden;whiteSpace=wrap;html=1;" vertex="1" parent="nyVP8lf8nU9UiDjdo4iV-362">
          <mxGeometry x="30" width="171.4583333333336" height="30" as="geometry">
            <mxRectangle width="171.4583333333336" height="30" as="alternateBounds" />
          </mxGeometry>
        </mxCell>
        <mxCell id="nyVP8lf8nU9UiDjdo4iV-365" value="FLOAT" style="shape=partialRectangle;connectable=0;fillColor=none;top=0;left=0;bottom=0;right=0;align=left;spacingLeft=6;overflow=hidden;whiteSpace=wrap;html=1;" vertex="1" parent="nyVP8lf8nU9UiDjdo4iV-362">
          <mxGeometry x="201.4583333333336" width="74.5416666666664" height="30" as="geometry">
            <mxRectangle width="74.5416666666664" height="30" as="alternateBounds" />
          </mxGeometry>
        </mxCell>
        <mxCell id="nyVP8lf8nU9UiDjdo4iV-366" style="shape=tableRow;horizontal=0;startSize=0;swimlaneHead=0;swimlaneBody=0;fillColor=none;collapsible=0;dropTarget=0;points=[[0,0.5],[1,0.5]];portConstraint=eastwest;top=0;left=0;right=0;bottom=0;" vertex="1" parent="nyVP8lf8nU9UiDjdo4iV-349">
          <mxGeometry y="150" width="276" height="30" as="geometry" />
        </mxCell>
        <mxCell id="nyVP8lf8nU9UiDjdo4iV-367" value="FK" style="shape=partialRectangle;connectable=0;fillColor=none;top=0;left=0;bottom=0;right=0;editable=1;overflow=hidden;whiteSpace=wrap;html=1;" vertex="1" parent="nyVP8lf8nU9UiDjdo4iV-366">
          <mxGeometry width="30" height="30" as="geometry">
            <mxRectangle width="30" height="30" as="alternateBounds" />
          </mxGeometry>
        </mxCell>
        <mxCell id="nyVP8lf8nU9UiDjdo4iV-368" value="SuccessScriptLineId" style="shape=partialRectangle;connectable=0;fillColor=none;top=0;left=0;bottom=0;right=0;align=left;spacingLeft=6;overflow=hidden;whiteSpace=wrap;html=1;" vertex="1" parent="nyVP8lf8nU9UiDjdo4iV-366">
          <mxGeometry x="30" width="171.4583333333336" height="30" as="geometry">
            <mxRectangle width="171.4583333333336" height="30" as="alternateBounds" />
          </mxGeometry>
        </mxCell>
        <mxCell id="nyVP8lf8nU9UiDjdo4iV-369" value="INT" style="shape=partialRectangle;connectable=0;fillColor=none;top=0;left=0;bottom=0;right=0;align=left;spacingLeft=6;overflow=hidden;whiteSpace=wrap;html=1;" vertex="1" parent="nyVP8lf8nU9UiDjdo4iV-366">
          <mxGeometry x="201.4583333333336" width="74.5416666666664" height="30" as="geometry">
            <mxRectangle width="74.5416666666664" height="30" as="alternateBounds" />
          </mxGeometry>
        </mxCell>
        <mxCell id="nyVP8lf8nU9UiDjdo4iV-370" style="shape=tableRow;horizontal=0;startSize=0;swimlaneHead=0;swimlaneBody=0;fillColor=none;collapsible=0;dropTarget=0;points=[[0,0.5],[1,0.5]];portConstraint=eastwest;top=0;left=0;right=0;bottom=0;" vertex="1" parent="nyVP8lf8nU9UiDjdo4iV-349">
          <mxGeometry y="180" width="276" height="30" as="geometry" />
        </mxCell>
        <mxCell id="nyVP8lf8nU9UiDjdo4iV-371" value="FK" style="shape=partialRectangle;connectable=0;fillColor=none;top=0;left=0;bottom=0;right=0;editable=1;overflow=hidden;whiteSpace=wrap;html=1;" vertex="1" parent="nyVP8lf8nU9UiDjdo4iV-370">
          <mxGeometry width="30" height="30" as="geometry">
            <mxRectangle width="30" height="30" as="alternateBounds" />
          </mxGeometry>
        </mxCell>
        <mxCell id="nyVP8lf8nU9UiDjdo4iV-372" value="SuccessPowerPromptId" style="shape=partialRectangle;connectable=0;fillColor=none;top=0;left=0;bottom=0;right=0;align=left;spacingLeft=6;overflow=hidden;whiteSpace=wrap;html=1;" vertex="1" parent="nyVP8lf8nU9UiDjdo4iV-370">
          <mxGeometry x="30" width="171.4583333333336" height="30" as="geometry">
            <mxRectangle width="171.4583333333336" height="30" as="alternateBounds" />
          </mxGeometry>
        </mxCell>
        <mxCell id="nyVP8lf8nU9UiDjdo4iV-373" value="INT" style="shape=partialRectangle;connectable=0;fillColor=none;top=0;left=0;bottom=0;right=0;align=left;spacingLeft=6;overflow=hidden;whiteSpace=wrap;html=1;" vertex="1" parent="nyVP8lf8nU9UiDjdo4iV-370">
          <mxGeometry x="201.4583333333336" width="74.5416666666664" height="30" as="geometry">
            <mxRectangle width="74.5416666666664" height="30" as="alternateBounds" />
          </mxGeometry>
        </mxCell>
        <mxCell id="nyVP8lf8nU9UiDjdo4iV-374" style="shape=tableRow;horizontal=0;startSize=0;swimlaneHead=0;swimlaneBody=0;fillColor=none;collapsible=0;dropTarget=0;points=[[0,0.5],[1,0.5]];portConstraint=eastwest;top=0;left=0;right=0;bottom=0;" vertex="1" parent="nyVP8lf8nU9UiDjdo4iV-349">
          <mxGeometry y="210" width="276" height="30" as="geometry" />
        </mxCell>
        <mxCell id="nyVP8lf8nU9UiDjdo4iV-375" value="FK" style="shape=partialRectangle;connectable=0;fillColor=none;top=0;left=0;bottom=0;right=0;editable=1;overflow=hidden;whiteSpace=wrap;html=1;" vertex="1" parent="nyVP8lf8nU9UiDjdo4iV-374">
          <mxGeometry width="30" height="30" as="geometry">
            <mxRectangle width="30" height="30" as="alternateBounds" />
          </mxGeometry>
        </mxCell>
        <mxCell id="nyVP8lf8nU9UiDjdo4iV-376" value="FailureScriptLineId" style="shape=partialRectangle;connectable=0;fillColor=none;top=0;left=0;bottom=0;right=0;align=left;spacingLeft=6;overflow=hidden;whiteSpace=wrap;html=1;" vertex="1" parent="nyVP8lf8nU9UiDjdo4iV-374">
          <mxGeometry x="30" width="171.4583333333336" height="30" as="geometry">
            <mxRectangle width="171.4583333333336" height="30" as="alternateBounds" />
          </mxGeometry>
        </mxCell>
        <mxCell id="nyVP8lf8nU9UiDjdo4iV-377" value="INT" style="shape=partialRectangle;connectable=0;fillColor=none;top=0;left=0;bottom=0;right=0;align=left;spacingLeft=6;overflow=hidden;whiteSpace=wrap;html=1;" vertex="1" parent="nyVP8lf8nU9UiDjdo4iV-374">
          <mxGeometry x="201.4583333333336" width="74.5416666666664" height="30" as="geometry">
            <mxRectangle width="74.5416666666664" height="30" as="alternateBounds" />
          </mxGeometry>
        </mxCell>
        <mxCell id="nyVP8lf8nU9UiDjdo4iV-378" style="shape=tableRow;horizontal=0;startSize=0;swimlaneHead=0;swimlaneBody=0;fillColor=none;collapsible=0;dropTarget=0;points=[[0,0.5],[1,0.5]];portConstraint=eastwest;top=0;left=0;right=0;bottom=0;" vertex="1" parent="nyVP8lf8nU9UiDjdo4iV-349">
          <mxGeometry y="240" width="276" height="30" as="geometry" />
        </mxCell>
        <mxCell id="nyVP8lf8nU9UiDjdo4iV-379" value="FK" style="shape=partialRectangle;connectable=0;fillColor=none;top=0;left=0;bottom=0;right=0;editable=1;overflow=hidden;whiteSpace=wrap;html=1;" vertex="1" parent="nyVP8lf8nU9UiDjdo4iV-378">
          <mxGeometry width="30" height="30" as="geometry">
            <mxRectangle width="30" height="30" as="alternateBounds" />
          </mxGeometry>
        </mxCell>
        <mxCell id="nyVP8lf8nU9UiDjdo4iV-380" value="FailurePowerPromptId" style="shape=partialRectangle;connectable=0;fillColor=none;top=0;left=0;bottom=0;right=0;align=left;spacingLeft=6;overflow=hidden;whiteSpace=wrap;html=1;" vertex="1" parent="nyVP8lf8nU9UiDjdo4iV-378">
          <mxGeometry x="30" width="171.4583333333336" height="30" as="geometry">
            <mxRectangle width="171.4583333333336" height="30" as="alternateBounds" />
          </mxGeometry>
        </mxCell>
        <mxCell id="nyVP8lf8nU9UiDjdo4iV-381" value="INT" style="shape=partialRectangle;connectable=0;fillColor=none;top=0;left=0;bottom=0;right=0;align=left;spacingLeft=6;overflow=hidden;whiteSpace=wrap;html=1;" vertex="1" parent="nyVP8lf8nU9UiDjdo4iV-378">
          <mxGeometry x="201.4583333333336" width="74.5416666666664" height="30" as="geometry">
            <mxRectangle width="74.5416666666664" height="30" as="alternateBounds" />
          </mxGeometry>
        </mxCell>
        <mxCell id="nyVP8lf8nU9UiDjdo4iV-383" value="" style="edgeStyle=entityRelationEdgeStyle;fontSize=12;html=1;endArrow=ERoneToMany;rounded=0;startSize=8;endSize=8;curved=1;entryX=1;entryY=0.5;entryDx=0;entryDy=0;exitX=0;exitY=0.5;exitDx=0;exitDy=0;" edge="1" parent="1" source="nyVP8lf8nU9UiDjdo4iV-55" target="nyVP8lf8nU9UiDjdo4iV-72">
          <mxGeometry width="100" height="100" relative="1" as="geometry">
            <mxPoint x="-2878" y="307" as="sourcePoint" />
            <mxPoint x="-3191" y="282" as="targetPoint" />
          </mxGeometry>
        </mxCell>
        <mxCell id="nyVP8lf8nU9UiDjdo4iV-384" value="" style="edgeStyle=entityRelationEdgeStyle;fontSize=12;html=1;endArrow=ERoneToMany;rounded=0;startSize=8;endSize=8;curved=1;entryX=1;entryY=0.5;entryDx=0;entryDy=0;exitX=0;exitY=0.5;exitDx=0;exitDy=0;" edge="1" parent="1" source="nyVP8lf8nU9UiDjdo4iV-67" target="nyVP8lf8nU9UiDjdo4iV-81">
          <mxGeometry width="100" height="100" relative="1" as="geometry">
            <mxPoint x="-2666" y="392" as="sourcePoint" />
            <mxPoint x="-2780" y="342" as="targetPoint" />
          </mxGeometry>
        </mxCell>
        <mxCell id="nyVP8lf8nU9UiDjdo4iV-389" value="" style="edgeStyle=entityRelationEdgeStyle;fontSize=12;html=1;endArrow=ERmandOne;startArrow=ERmandOne;rounded=0;startSize=8;endSize=8;curved=1;entryX=0;entryY=0.5;entryDx=0;entryDy=0;exitX=1;exitY=0.5;exitDx=0;exitDy=0;" edge="1" parent="1" source="nyVP8lf8nU9UiDjdo4iV-120" target="nyVP8lf8nU9UiDjdo4iV-63">
          <mxGeometry width="100" height="100" relative="1" as="geometry">
            <mxPoint x="-3244" y="448" as="sourcePoint" />
            <mxPoint x="-3144" y="348" as="targetPoint" />
          </mxGeometry>
        </mxCell>
        <mxCell id="nyVP8lf8nU9UiDjdo4iV-390" value="" style="edgeStyle=entityRelationEdgeStyle;fontSize=12;html=1;endArrow=ERoneToMany;rounded=0;startSize=8;endSize=8;curved=1;exitX=0;exitY=0.5;exitDx=0;exitDy=0;entryX=1;entryY=0.5;entryDx=0;entryDy=0;" edge="1" parent="1" source="nyVP8lf8nU9UiDjdo4iV-120" target="nyVP8lf8nU9UiDjdo4iV-149">
          <mxGeometry width="100" height="100" relative="1" as="geometry">
            <mxPoint x="-3421" y="166" as="sourcePoint" />
            <mxPoint x="-3321" y="66" as="targetPoint" />
          </mxGeometry>
        </mxCell>
        <mxCell id="nyVP8lf8nU9UiDjdo4iV-393" value="" style="edgeStyle=entityRelationEdgeStyle;fontSize=12;html=1;endArrow=ERoneToMany;rounded=0;startSize=8;endSize=8;curved=1;exitX=1;exitY=0.5;exitDx=0;exitDy=0;entryX=0;entryY=0.5;entryDx=0;entryDy=0;" edge="1" parent="1" source="nyVP8lf8nU9UiDjdo4iV-32" target="nyVP8lf8nU9UiDjdo4iV-137">
          <mxGeometry width="100" height="100" relative="1" as="geometry">
            <mxPoint x="-3671" y="323" as="sourcePoint" />
            <mxPoint x="-3571" y="223" as="targetPoint" />
          </mxGeometry>
        </mxCell>
        <mxCell id="nyVP8lf8nU9UiDjdo4iV-394" value="" style="edgeStyle=entityRelationEdgeStyle;fontSize=12;html=1;endArrow=ERoneToMany;rounded=0;startSize=8;endSize=8;curved=1;exitX=1;exitY=0.5;exitDx=0;exitDy=0;entryX=0;entryY=0.5;entryDx=0;entryDy=0;" edge="1" parent="1" source="nyVP8lf8nU9UiDjdo4iV-33" target="nyVP8lf8nU9UiDjdo4iV-124">
          <mxGeometry width="100" height="100" relative="1" as="geometry">
            <mxPoint x="-3505" y="557" as="sourcePoint" />
            <mxPoint x="-3405" y="457" as="targetPoint" />
          </mxGeometry>
        </mxCell>
        <mxCell id="nyVP8lf8nU9UiDjdo4iV-396" value="" style="edgeStyle=entityRelationEdgeStyle;fontSize=12;html=1;endArrow=ERoneToMany;rounded=0;startSize=8;endSize=8;curved=1;exitX=1;exitY=0.5;exitDx=0;exitDy=0;entryX=0;entryY=0.5;entryDx=0;entryDy=0;" edge="1" parent="1" source="nyVP8lf8nU9UiDjdo4iV-107" target="nyVP8lf8nU9UiDjdo4iV-98">
          <mxGeometry width="100" height="100" relative="1" as="geometry">
            <mxPoint x="-2443" y="571" as="sourcePoint" />
            <mxPoint x="-2343" y="471" as="targetPoint" />
          </mxGeometry>
        </mxCell>
        <mxCell id="nyVP8lf8nU9UiDjdo4iV-399" value="" style="edgeStyle=entityRelationEdgeStyle;fontSize=12;html=1;endArrow=ERoneToMany;rounded=0;startSize=8;endSize=8;curved=1;exitX=0;exitY=0.5;exitDx=0;exitDy=0;entryX=1;entryY=0.5;entryDx=0;entryDy=0;" edge="1" parent="1" source="nyVP8lf8nU9UiDjdo4iV-51" target="nyVP8lf8nU9UiDjdo4iV-175">
          <mxGeometry width="100" height="100" relative="1" as="geometry">
            <mxPoint x="-2649" y="-62" as="sourcePoint" />
            <mxPoint x="-2812" y="-31" as="targetPoint" />
          </mxGeometry>
        </mxCell>
        <mxCell id="nyVP8lf8nU9UiDjdo4iV-398" value="" style="edgeStyle=entityRelationEdgeStyle;fontSize=12;html=1;endArrow=ERoneToMany;rounded=0;startSize=8;endSize=8;curved=1;exitX=1;exitY=0.5;exitDx=0;exitDy=0;entryX=0;entryY=0.5;entryDx=0;entryDy=0;" edge="1" parent="1" source="nyVP8lf8nU9UiDjdo4iV-51" target="nyVP8lf8nU9UiDjdo4iV-94">
          <mxGeometry width="100" height="100" relative="1" as="geometry">
            <mxPoint x="-2436" y="359" as="sourcePoint" />
            <mxPoint x="-2524" y="454" as="targetPoint" />
          </mxGeometry>
        </mxCell>
        <mxCell id="nyVP8lf8nU9UiDjdo4iV-400" value="" style="edgeStyle=entityRelationEdgeStyle;fontSize=12;html=1;endArrow=ERoneToMany;rounded=0;startSize=8;endSize=8;curved=1;exitX=0;exitY=0.5;exitDx=0;exitDy=0;entryX=1;entryY=0.5;entryDx=0;entryDy=0;" edge="1" parent="1" source="nyVP8lf8nU9UiDjdo4iV-51" target="nyVP8lf8nU9UiDjdo4iV-192">
          <mxGeometry width="100" height="100" relative="1" as="geometry">
            <mxPoint x="-2602" y="-163" as="sourcePoint" />
            <mxPoint x="-2716" y="-370" as="targetPoint" />
          </mxGeometry>
        </mxCell>
        <mxCell id="nyVP8lf8nU9UiDjdo4iV-401" value="" style="edgeStyle=entityRelationEdgeStyle;fontSize=12;html=1;endArrow=ERoneToMany;rounded=0;startSize=8;endSize=8;curved=1;exitX=1;exitY=0.5;exitDx=0;exitDy=0;entryX=0;entryY=0.5;entryDx=0;entryDy=0;" edge="1" parent="1" source="nyVP8lf8nU9UiDjdo4iV-51" target="nyVP8lf8nU9UiDjdo4iV-158">
          <mxGeometry width="100" height="100" relative="1" as="geometry">
            <mxPoint x="-2403" y="16" as="sourcePoint" />
            <mxPoint x="-2519" y="-363" as="targetPoint" />
          </mxGeometry>
        </mxCell>
        <mxCell id="nyVP8lf8nU9UiDjdo4iV-402" value="" style="edgeStyle=entityRelationEdgeStyle;fontSize=12;html=1;endArrow=ERoneToMany;rounded=0;startSize=8;endSize=8;curved=1;exitX=1;exitY=0.5;exitDx=0;exitDy=0;entryX=0;entryY=0.5;entryDx=0;entryDy=0;" edge="1" parent="1" source="nyVP8lf8nU9UiDjdo4iV-205" target="nyVP8lf8nU9UiDjdo4iV-239">
          <mxGeometry width="100" height="100" relative="1" as="geometry">
            <mxPoint x="-1836" y="-207" as="sourcePoint" />
            <mxPoint x="-1725" y="-732" as="targetPoint" />
          </mxGeometry>
        </mxCell>
        <mxCell id="nyVP8lf8nU9UiDjdo4iV-403" value="" style="edgeStyle=entityRelationEdgeStyle;fontSize=12;html=1;endArrow=ERoneToMany;rounded=0;startSize=8;endSize=8;curved=1;exitX=1;exitY=0.5;exitDx=0;exitDy=0;entryX=0;entryY=0.5;entryDx=0;entryDy=0;" edge="1" parent="1" source="nyVP8lf8nU9UiDjdo4iV-205" target="nyVP8lf8nU9UiDjdo4iV-226">
          <mxGeometry width="100" height="100" relative="1" as="geometry">
            <mxPoint x="-1904" y="-1087" as="sourcePoint" />
            <mxPoint x="-1805" y="-1057" as="targetPoint" />
          </mxGeometry>
        </mxCell>
        <mxCell id="nyVP8lf8nU9UiDjdo4iV-404" value="" style="edgeStyle=entityRelationEdgeStyle;fontSize=12;html=1;endArrow=ERoneToMany;rounded=0;startSize=8;endSize=8;curved=1;exitX=1;exitY=0.5;exitDx=0;exitDy=0;entryX=0;entryY=0.5;entryDx=0;entryDy=0;" edge="1" parent="1" source="nyVP8lf8nU9UiDjdo4iV-154" target="nyVP8lf8nU9UiDjdo4iV-209">
          <mxGeometry width="100" height="100" relative="1" as="geometry">
            <mxPoint x="-2065" y="-1005" as="sourcePoint" />
            <mxPoint x="-1966" y="-1136" as="targetPoint" />
          </mxGeometry>
        </mxCell>
        <mxCell id="nyVP8lf8nU9UiDjdo4iV-406" value="" style="edgeStyle=entityRelationEdgeStyle;fontSize=12;html=1;endArrow=ERmandOne;startArrow=ERmandOne;rounded=0;startSize=8;endSize=8;curved=1;exitX=1;exitY=0.5;exitDx=0;exitDy=0;entryX=0;entryY=0.5;entryDx=0;entryDy=0;" edge="1" parent="1" source="nyVP8lf8nU9UiDjdo4iV-90" target="nyVP8lf8nU9UiDjdo4iV-213">
          <mxGeometry width="100" height="100" relative="1" as="geometry">
            <mxPoint x="-2078" y="245" as="sourcePoint" />
            <mxPoint x="-1978" y="145" as="targetPoint" />
          </mxGeometry>
        </mxCell>
        <mxCell id="nyVP8lf8nU9UiDjdo4iV-407" value="" style="edgeStyle=entityRelationEdgeStyle;fontSize=12;html=1;endArrow=ERoneToMany;rounded=0;startSize=8;endSize=8;curved=1;exitX=1;exitY=0.5;exitDx=0;exitDy=0;entryX=0;entryY=0.5;entryDx=0;entryDy=0;" edge="1" parent="1" source="nyVP8lf8nU9UiDjdo4iV-51" target="nyVP8lf8nU9UiDjdo4iV-252">
          <mxGeometry width="100" height="100" relative="1" as="geometry">
            <mxPoint x="-2686" y="-140" as="sourcePoint" />
            <mxPoint x="-2575" y="-665" as="targetPoint" />
          </mxGeometry>
        </mxCell>
        <mxCell id="nyVP8lf8nU9UiDjdo4iV-408" value="" style="edgeStyle=entityRelationEdgeStyle;fontSize=12;html=1;endArrow=ERoneToMany;rounded=0;startSize=8;endSize=8;curved=1;exitX=1;exitY=0.5;exitDx=0;exitDy=0;entryX=0;entryY=0.5;entryDx=0;entryDy=0;" edge="1" parent="1" source="nyVP8lf8nU9UiDjdo4iV-248" target="nyVP8lf8nU9UiDjdo4iV-278">
          <mxGeometry width="100" height="100" relative="1" as="geometry">
            <mxPoint x="-2512" y="-324" as="sourcePoint" />
            <mxPoint x="-2401" y="-658" as="targetPoint" />
          </mxGeometry>
        </mxCell>
        <mxCell id="nyVP8lf8nU9UiDjdo4iV-409" value="" style="edgeStyle=entityRelationEdgeStyle;fontSize=12;html=1;endArrow=ERmandOne;startArrow=ERmandOne;rounded=0;startSize=8;endSize=8;curved=1;exitX=1;exitY=0.5;exitDx=0;exitDy=0;entryX=0;entryY=0.5;entryDx=0;entryDy=0;" edge="1" parent="1" source="nyVP8lf8nU9UiDjdo4iV-90" target="nyVP8lf8nU9UiDjdo4iV-282">
          <mxGeometry width="100" height="100" relative="1" as="geometry">
            <mxPoint x="-2183" y="299" as="sourcePoint" />
            <mxPoint x="-2055" y="-383" as="targetPoint" />
          </mxGeometry>
        </mxCell>
        <mxCell id="nyVP8lf8nU9UiDjdo4iV-410" value="" style="edgeStyle=entityRelationEdgeStyle;fontSize=12;html=1;endArrow=ERoneToMany;rounded=0;startSize=8;endSize=8;curved=1;exitX=0;exitY=0.5;exitDx=0;exitDy=0;entryX=1;entryY=0.5;entryDx=0;entryDy=0;" edge="1" parent="1" source="nyVP8lf8nU9UiDjdo4iV-260" target="nyVP8lf8nU9UiDjdo4iV-42">
          <mxGeometry width="100" height="100" relative="1" as="geometry">
            <mxPoint x="-2512" y="-324" as="sourcePoint" />
            <mxPoint x="-2401" y="-849" as="targetPoint" />
          </mxGeometry>
        </mxCell>
        <mxCell id="nyVP8lf8nU9UiDjdo4iV-411" value="" style="edgeStyle=entityRelationEdgeStyle;fontSize=12;html=1;endArrow=ERoneToMany;rounded=0;startSize=8;endSize=8;curved=1;exitX=0;exitY=0.5;exitDx=0;exitDy=0;entryX=1;entryY=0.5;entryDx=0;entryDy=0;" edge="1" parent="1" source="nyVP8lf8nU9UiDjdo4iV-256" target="nyVP8lf8nU9UiDjdo4iV-3">
          <mxGeometry width="100" height="100" relative="1" as="geometry">
            <mxPoint x="-2401" y="-598" as="sourcePoint" />
            <mxPoint x="-3320" y="-691" as="targetPoint" />
          </mxGeometry>
        </mxCell>
        <mxCell id="nyVP8lf8nU9UiDjdo4iV-412" value="" style="edgeStyle=entityRelationEdgeStyle;fontSize=12;html=1;endArrow=ERoneToMany;rounded=0;startSize=8;endSize=8;curved=1;exitX=0;exitY=0.5;exitDx=0;exitDy=0;entryX=1;entryY=0.5;entryDx=0;entryDy=0;" edge="1" parent="1" source="nyVP8lf8nU9UiDjdo4iV-162" target="nyVP8lf8nU9UiDjdo4iV-3">
          <mxGeometry width="100" height="100" relative="1" as="geometry">
            <mxPoint x="-2401" y="-628" as="sourcePoint" />
            <mxPoint x="-3311" y="-921" as="targetPoint" />
          </mxGeometry>
        </mxCell>
        <mxCell id="nyVP8lf8nU9UiDjdo4iV-413" value="" style="edgeStyle=entityRelationEdgeStyle;fontSize=12;html=1;endArrow=ERoneToMany;rounded=0;startSize=8;endSize=8;curved=1;exitX=0;exitY=0.5;exitDx=0;exitDy=0;entryX=1;entryY=0.5;entryDx=0;entryDy=0;" edge="1" parent="1" source="nyVP8lf8nU9UiDjdo4iV-166" target="nyVP8lf8nU9UiDjdo4iV-42">
          <mxGeometry width="100" height="100" relative="1" as="geometry">
            <mxPoint x="-2401" y="-819" as="sourcePoint" />
            <mxPoint x="-3311" y="-921" as="targetPoint" />
          </mxGeometry>
        </mxCell>
        <mxCell id="nyVP8lf8nU9UiDjdo4iV-414" value="" style="edgeStyle=entityRelationEdgeStyle;fontSize=12;html=1;endArrow=ERoneToMany;rounded=0;startSize=8;endSize=8;curved=1;exitX=1;exitY=0.5;exitDx=0;exitDy=0;entryX=0;entryY=0.5;entryDx=0;entryDy=0;" edge="1" parent="1" source="nyVP8lf8nU9UiDjdo4iV-179" target="nyVP8lf8nU9UiDjdo4iV-3">
          <mxGeometry width="100" height="100" relative="1" as="geometry">
            <mxPoint x="-2401" y="-819" as="sourcePoint" />
            <mxPoint x="-3311" y="-921" as="targetPoint" />
          </mxGeometry>
        </mxCell>
        <mxCell id="nyVP8lf8nU9UiDjdo4iV-415" value="" style="edgeStyle=entityRelationEdgeStyle;fontSize=12;html=1;endArrow=ERoneToMany;rounded=0;startSize=8;endSize=8;curved=1;exitX=1;exitY=0.5;exitDx=0;exitDy=0;entryX=0;entryY=0.5;entryDx=0;entryDy=0;" edge="1" parent="1" source="nyVP8lf8nU9UiDjdo4iV-183" target="nyVP8lf8nU9UiDjdo4iV-42">
          <mxGeometry width="100" height="100" relative="1" as="geometry">
            <mxPoint x="-3132" y="-787" as="sourcePoint" />
            <mxPoint x="-3311" y="-921" as="targetPoint" />
          </mxGeometry>
        </mxCell>
        <mxCell id="nyVP8lf8nU9UiDjdo4iV-416" value="" style="edgeStyle=entityRelationEdgeStyle;fontSize=12;html=1;endArrow=ERoneToMany;rounded=0;startSize=8;endSize=8;curved=1;exitX=1;exitY=0.5;exitDx=0;exitDy=0;entryX=0;entryY=0.5;entryDx=0;entryDy=0;" edge="1" parent="1" source="nyVP8lf8nU9UiDjdo4iV-200" target="nyVP8lf8nU9UiDjdo4iV-42">
          <mxGeometry width="100" height="100" relative="1" as="geometry">
            <mxPoint x="-3132" y="-757" as="sourcePoint" />
            <mxPoint x="-3320" y="-691" as="targetPoint" />
          </mxGeometry>
        </mxCell>
        <mxCell id="nyVP8lf8nU9UiDjdo4iV-417" value="" style="edgeStyle=entityRelationEdgeStyle;fontSize=12;html=1;endArrow=ERoneToMany;rounded=0;startSize=8;endSize=8;curved=1;exitX=1;exitY=0.5;exitDx=0;exitDy=0;entryX=0;entryY=0.5;entryDx=0;entryDy=0;" edge="1" parent="1" source="nyVP8lf8nU9UiDjdo4iV-196" target="nyVP8lf8nU9UiDjdo4iV-3">
          <mxGeometry width="100" height="100" relative="1" as="geometry">
            <mxPoint x="-3132" y="-572" as="sourcePoint" />
            <mxPoint x="-3320" y="-691" as="targetPoint" />
          </mxGeometry>
        </mxCell>
        <mxCell id="nyVP8lf8nU9UiDjdo4iV-418" value="" style="edgeStyle=entityRelationEdgeStyle;fontSize=12;html=1;endArrow=ERmandOne;startArrow=ERmandOne;rounded=0;startSize=8;endSize=8;curved=1;exitX=1;exitY=0.5;exitDx=0;exitDy=0;entryX=0;entryY=0.5;entryDx=0;entryDy=0;" edge="1" parent="1" source="nyVP8lf8nU9UiDjdo4iV-90" target="nyVP8lf8nU9UiDjdo4iV-320">
          <mxGeometry width="100" height="100" relative="1" as="geometry">
            <mxPoint x="-2183" y="299" as="sourcePoint" />
            <mxPoint x="-2051" y="-339" as="targetPoint" />
          </mxGeometry>
        </mxCell>
        <mxCell id="nyVP8lf8nU9UiDjdo4iV-419" value="" style="edgeStyle=entityRelationEdgeStyle;fontSize=12;html=1;endArrow=ERoneToMany;rounded=0;startSize=8;endSize=8;curved=1;exitX=1;exitY=0.5;exitDx=0;exitDy=0;entryX=0;entryY=0.5;entryDx=0;entryDy=0;" edge="1" parent="1" source="nyVP8lf8nU9UiDjdo4iV-287" target="nyVP8lf8nU9UiDjdo4iV-316">
          <mxGeometry width="100" height="100" relative="1" as="geometry">
            <mxPoint x="-2148" y="-688" as="sourcePoint" />
            <mxPoint x="-2051" y="-607" as="targetPoint" />
          </mxGeometry>
        </mxCell>
        <mxCell id="nyVP8lf8nU9UiDjdo4iV-420" value="" style="edgeStyle=entityRelationEdgeStyle;fontSize=12;html=1;endArrow=ERoneToMany;rounded=0;startSize=8;endSize=8;curved=1;exitX=1;exitY=0.5;exitDx=0;exitDy=0;entryX=0;entryY=0.5;entryDx=0;entryDy=0;" edge="1" parent="1" source="nyVP8lf8nU9UiDjdo4iV-51" target="nyVP8lf8nU9UiDjdo4iV-291">
          <mxGeometry width="100" height="100" relative="1" as="geometry">
            <mxPoint x="-2516" y="97" as="sourcePoint" />
            <mxPoint x="-2401" y="-420" as="targetPoint" />
          </mxGeometry>
        </mxCell>
        <mxCell id="nyVP8lf8nU9UiDjdo4iV-421" value="" style="edgeStyle=entityRelationEdgeStyle;fontSize=12;html=1;endArrow=ERoneToMany;rounded=0;startSize=8;endSize=8;curved=1;exitX=0;exitY=0.5;exitDx=0;exitDy=0;entryX=1;entryY=0.5;entryDx=0;entryDy=0;" edge="1" parent="1" source="nyVP8lf8nU9UiDjdo4iV-299" target="nyVP8lf8nU9UiDjdo4iV-42">
          <mxGeometry width="100" height="100" relative="1" as="geometry">
            <mxPoint x="-2401" y="-598" as="sourcePoint" />
            <mxPoint x="-2543" y="-700" as="targetPoint" />
          </mxGeometry>
        </mxCell>
        <mxCell id="nyVP8lf8nU9UiDjdo4iV-422" value="" style="edgeStyle=entityRelationEdgeStyle;fontSize=12;html=1;endArrow=ERoneToMany;rounded=0;startSize=8;endSize=8;curved=1;exitX=0;exitY=0.5;exitDx=0;exitDy=0;entryX=1;entryY=0.5;entryDx=0;entryDy=0;" edge="1" parent="1" source="nyVP8lf8nU9UiDjdo4iV-295" target="nyVP8lf8nU9UiDjdo4iV-3">
          <mxGeometry width="100" height="100" relative="1" as="geometry">
            <mxPoint x="-2401" y="-819" as="sourcePoint" />
            <mxPoint x="-2543" y="-962" as="targetPoint" />
          </mxGeometry>
        </mxCell>
        <mxCell id="nyVP8lf8nU9UiDjdo4iV-423" value="" style="edgeStyle=entityRelationEdgeStyle;fontSize=12;html=1;endArrow=ERoneToMany;rounded=0;startSize=8;endSize=8;curved=1;exitX=1;exitY=0.5;exitDx=0;exitDy=0;entryX=0;entryY=0.5;entryDx=0;entryDy=0;" edge="1" parent="1" source="nyVP8lf8nU9UiDjdo4iV-51" target="nyVP8lf8nU9UiDjdo4iV-329">
          <mxGeometry width="100" height="100" relative="1" as="geometry">
            <mxPoint x="-2516" y="97" as="sourcePoint" />
            <mxPoint x="-2401" y="-390" as="targetPoint" />
          </mxGeometry>
        </mxCell>
        <mxCell id="nyVP8lf8nU9UiDjdo4iV-424" value="" style="edgeStyle=entityRelationEdgeStyle;fontSize=12;html=1;endArrow=ERoneToMany;rounded=0;startSize=8;endSize=8;curved=1;exitX=0;exitY=0.5;exitDx=0;exitDy=0;entryX=1;entryY=0.5;entryDx=0;entryDy=0;" edge="1" parent="1" source="nyVP8lf8nU9UiDjdo4iV-337" target="nyVP8lf8nU9UiDjdo4iV-42">
          <mxGeometry width="100" height="100" relative="1" as="geometry">
            <mxPoint x="-2401" y="-330" as="sourcePoint" />
            <mxPoint x="-2540" y="-442" as="targetPoint" />
          </mxGeometry>
        </mxCell>
        <mxCell id="nyVP8lf8nU9UiDjdo4iV-425" value="" style="edgeStyle=entityRelationEdgeStyle;fontSize=12;html=1;endArrow=ERoneToMany;rounded=0;startSize=8;endSize=8;curved=1;exitX=0;exitY=0.5;exitDx=0;exitDy=0;entryX=1;entryY=0.5;entryDx=0;entryDy=0;" edge="1" parent="1" source="nyVP8lf8nU9UiDjdo4iV-333" target="nyVP8lf8nU9UiDjdo4iV-3">
          <mxGeometry width="100" height="100" relative="1" as="geometry">
            <mxPoint x="-2401" y="-70" as="sourcePoint" />
            <mxPoint x="-2540" y="-442" as="targetPoint" />
          </mxGeometry>
        </mxCell>
        <mxCell id="nyVP8lf8nU9UiDjdo4iV-429" value="" style="edgeStyle=entityRelationEdgeStyle;fontSize=12;html=1;endArrow=ERoneToMany;rounded=0;startSize=8;endSize=8;curved=1;entryX=0;entryY=0.5;entryDx=0;entryDy=0;exitX=1;exitY=0.5;exitDx=0;exitDy=0;" edge="1" parent="1" source="nyVP8lf8nU9UiDjdo4iV-325" target="nyVP8lf8nU9UiDjdo4iV-354">
          <mxGeometry width="100" height="100" relative="1" as="geometry">
            <mxPoint x="-1969" y="253" as="sourcePoint" />
            <mxPoint x="-1869" y="153" as="targetPoint" />
          </mxGeometry>
        </mxCell>
        <mxCell id="nyVP8lf8nU9UiDjdo4iV-430" value="" style="edgeStyle=entityRelationEdgeStyle;fontSize=12;html=1;endArrow=ERmandOne;startArrow=ERmandOne;rounded=0;startSize=8;endSize=8;curved=1;exitX=1;exitY=0.5;exitDx=0;exitDy=0;entryX=0;entryY=0.5;entryDx=0;entryDy=0;" edge="1" parent="1" source="nyVP8lf8nU9UiDjdo4iV-90" target="nyVP8lf8nU9UiDjdo4iV-358">
          <mxGeometry width="100" height="100" relative="1" as="geometry">
            <mxPoint x="-1705" y="361" as="sourcePoint" />
            <mxPoint x="-1552" y="-244" as="targetPoint" />
          </mxGeometry>
        </mxCell>
        <mxCell id="nyVP8lf8nU9UiDjdo4iV-431" value="" style="edgeStyle=entityRelationEdgeStyle;fontSize=12;html=1;endArrow=ERoneToMany;rounded=0;startSize=8;endSize=8;curved=1;exitX=1;exitY=0.5;exitDx=0;exitDy=0;entryX=0;entryY=0.5;entryDx=0;entryDy=0;" edge="1" parent="1" source="nyVP8lf8nU9UiDjdo4iV-51" target="nyVP8lf8nU9UiDjdo4iV-366">
          <mxGeometry width="100" height="100" relative="1" as="geometry">
            <mxPoint x="-1878" y="278" as="sourcePoint" />
            <mxPoint x="-1763" y="51" as="targetPoint" />
          </mxGeometry>
        </mxCell>
        <mxCell id="nyVP8lf8nU9UiDjdo4iV-432" value="" style="edgeStyle=entityRelationEdgeStyle;fontSize=12;html=1;endArrow=ERoneToMany;rounded=0;startSize=8;endSize=8;curved=1;exitX=1;exitY=0.5;exitDx=0;exitDy=0;entryX=0;entryY=0.5;entryDx=0;entryDy=0;" edge="1" parent="1" source="nyVP8lf8nU9UiDjdo4iV-51" target="nyVP8lf8nU9UiDjdo4iV-374">
          <mxGeometry width="100" height="100" relative="1" as="geometry">
            <mxPoint x="-2516" y="97" as="sourcePoint" />
            <mxPoint x="-2021" y="-62" as="targetPoint" />
          </mxGeometry>
        </mxCell>
        <mxCell id="nyVP8lf8nU9UiDjdo4iV-433" value="" style="edgeStyle=entityRelationEdgeStyle;fontSize=12;html=1;endArrow=ERoneToMany;rounded=0;startSize=8;endSize=8;curved=1;exitX=1;exitY=0.5;exitDx=0;exitDy=0;entryX=0;entryY=0.5;entryDx=0;entryDy=0;" edge="1" parent="1" source="nyVP8lf8nU9UiDjdo4iV-325" target="nyVP8lf8nU9UiDjdo4iV-378">
          <mxGeometry width="100" height="100" relative="1" as="geometry">
            <mxPoint x="-2132" y="291" as="sourcePoint" />
            <mxPoint x="-1822" y="155" as="targetPoint" />
          </mxGeometry>
        </mxCell>
        <mxCell id="nyVP8lf8nU9UiDjdo4iV-434" value="" style="edgeStyle=entityRelationEdgeStyle;fontSize=12;html=1;endArrow=ERoneToMany;rounded=0;startSize=8;endSize=8;curved=1;exitX=1;exitY=0.5;exitDx=0;exitDy=0;entryX=0;entryY=0.5;entryDx=0;entryDy=0;" edge="1" parent="1" source="nyVP8lf8nU9UiDjdo4iV-325" target="nyVP8lf8nU9UiDjdo4iV-370">
          <mxGeometry width="100" height="100" relative="1" as="geometry">
            <mxPoint x="-2148" y="-160" as="sourcePoint" />
            <mxPoint x="-2021" y="28" as="targetPoint" />
          </mxGeometry>
        </mxCell>
      </root>
    </mxGraphModel>
  </diagram>
</mxfile>
